<svg width="33" height="33" viewBox="0 0 33 33" fill="none" xmlns="http://www.w3.org/2000/svg">
<path d="M2.19672 13.5228C2.68272 13.1433 3.17172 12.7623 3.65472 12.385C4.72722 11.5555 5.80222 10.727 6.87972 9.89953C7.19547 9.65728 7.26372 9.64753 7.58697 9.89578C8.81172 10.8363 10.0252 11.7918 11.2567 12.7263C13.0507 14.0905 14.8567 15.4383 16.6522 16.8025C16.8067 16.9203 16.8877 16.8873 17.016 16.7898C18.716 15.4788 20.418 14.1698 22.122 12.8628C23.4307 11.8533 24.7312 10.8325 26.0385 9.81928C26.3467 9.58078 26.5267 9.58453 26.8845 9.85753C27.9195 10.6473 28.9477 11.446 29.9797 12.2403C30.2565 12.4533 30.5355 12.6625 30.8595 12.91C30.4095 13.0038 30.0112 13.0968 29.6107 13.1665C27.5865 13.563 25.6064 14.1584 23.6992 14.944C21.7529 15.7147 19.8501 16.591 17.9992 17.569C17.9032 17.5995 17.7994 17.5936 17.7075 17.5525C16.191 16.972 14.6925 16.3428 13.1595 15.8088C11.7395 15.3315 10.2666 15.0292 8.77347 14.9088C6.14587 14.7064 3.50493 15.054 1.01922 15.9295C0.869223 15.979 0.714723 16.0248 0.521973 16.084C0.540723 15.6723 0.553473 15.289 0.577473 14.9088C0.677766 13.5013 0.980898 12.1158 1.47747 10.795C2.05392 9.21383 2.87105 7.73112 3.89997 6.39928C5.93689 3.71649 8.75842 1.73429 11.973 0.727781C13.8049 0.139976 15.7316 -0.095425 17.6512 0.0340311C21.0468 0.241738 24.2833 1.54551 26.8747 3.74953C29.0836 5.59787 30.7763 7.98663 31.788 10.6833C31.8105 10.7315 31.8283 10.7817 31.8412 10.8333C31.86 10.96 31.9162 11.182 31.878 11.2C31.7204 11.2951 31.536 11.3362 31.353 11.317C31.0983 11.2413 30.8615 11.1151 30.6565 10.9461C30.4515 10.7771 30.2826 10.5686 30.1597 10.333C29.7465 9.58753 29.3572 8.82253 28.8847 8.11378C26.9985 5.19447 24.1527 3.02497 20.838 1.97953C19.1414 1.43485 17.3542 1.22895 15.5782 1.37353C13.3584 1.54816 11.2131 2.254 9.32322 3.43153C6.08643 5.34691 3.67315 8.39257 2.54847 11.9815C2.39097 12.4735 2.26947 12.9768 2.13147 13.4755L2.20122 13.5273L2.19672 13.5228Z" fill="black"/>
<path d="M32.6888 17.3735C32.5907 18.9794 32.2605 20.5626 31.7085 22.0738C30.8835 22.0423 30.087 21.9673 29.2928 21.9898C26.9905 22.0823 24.7135 22.5052 22.5315 23.2453C20.0879 24.0897 17.6973 25.0805 15.3728 26.2123C13.1573 27.239 10.9275 28.232 8.69778 29.2355C8.38728 29.375 8.06103 29.4793 7.73928 29.5918C7.70879 29.6047 7.67602 29.6114 7.6429 29.6114C7.60979 29.6114 7.57701 29.6047 7.54653 29.5918C7.13478 29.309 6.72753 29.0158 6.37128 28.7623C8.50528 27.5843 10.6355 26.4075 12.762 25.232C14.6955 24.164 16.6178 23.0765 18.5633 22.0318C21.1353 20.6534 23.8133 19.4826 26.5718 18.5308C28.0874 18.0092 29.6542 17.6504 31.2458 17.4605C31.7063 17.4035 32.1728 17.4058 32.6888 17.3795V17.3735Z" fill="black"/>
<path d="M21.504 8.3092C21.5183 8.9544 21.3991 9.59561 21.1537 10.1925C20.9084 10.7894 20.5422 11.3291 20.0783 11.7777C19.6143 12.2263 19.0626 12.5741 18.4578 12.7993C17.8529 13.0244 17.2081 13.122 16.5637 13.086C15.9326 13.0847 15.3079 12.9577 14.7264 12.7123C14.1449 12.4669 13.6181 12.1081 13.1768 11.6568C12.7355 11.2055 12.3885 10.6708 12.1562 10.0839C11.9239 9.49705 11.8109 8.86976 11.8237 8.2387C11.8323 6.95994 12.3482 5.73689 13.2581 4.83836C14.168 3.93984 15.3975 3.43937 16.6762 3.44695C17.3162 3.43626 17.9517 3.555 18.5446 3.79605C19.1376 4.03709 19.6757 4.39547 20.1266 4.84966C20.5776 5.30385 20.9321 5.84449 21.169 6.43911C21.4058 7.03374 21.52 7.67009 21.5047 8.30995L21.504 8.3092ZM17.2147 9.0712C17.34 9.87145 17.4502 10.5855 17.5635 11.298C17.6055 11.562 17.7787 11.7345 17.9767 11.7097C18.1897 11.6842 18.3142 11.5065 18.3052 11.2327C18.285 10.5577 18.2992 9.8827 18.2302 9.21295C18.1671 8.94865 18.1914 8.671 18.2996 8.42173C18.4078 8.17246 18.594 7.96506 18.8302 7.8307C19.0123 7.71431 19.1727 7.56711 19.3042 7.3957C19.4606 7.22378 19.5873 7.02711 19.6792 6.8137C19.7022 6.74769 19.7057 6.6765 19.6896 6.60851C19.6734 6.54053 19.6381 6.47858 19.5879 6.42996C19.5377 6.38134 19.4747 6.34807 19.4062 6.33408C19.3378 6.32008 19.2667 6.32593 19.2015 6.35095C19.0731 6.39183 18.9523 6.45339 18.8437 6.5332C18.4597 6.8272 18.0937 7.1422 17.7015 7.4332C17.5807 7.52968 17.4334 7.58722 17.2792 7.5982C16.3635 7.5757 15.4485 7.52695 14.5327 7.4917C14.3077 7.4827 14.0827 7.48645 13.8577 7.49545C13.8124 7.49108 13.7666 7.49639 13.7235 7.51102C13.6804 7.52566 13.6408 7.54928 13.6075 7.58033C13.5742 7.61139 13.5479 7.64916 13.5302 7.69116C13.5126 7.73316 13.5041 7.77842 13.5052 7.82395C13.5 8.0392 13.6357 8.13595 13.8412 8.17045C14.4675 8.2747 15.0915 8.3857 15.7162 8.49595C15.909 8.53045 16.1002 8.5672 16.3327 8.60995C15.8145 9.0322 15.3435 9.4192 14.8642 9.7957C14.7937 9.83858 14.7098 9.85381 14.6287 9.83845C14.3205 9.7837 14.0175 9.68845 13.7085 9.6607C13.6345 9.65722 13.5606 9.6706 13.4926 9.69983C13.4245 9.72907 13.3639 9.77339 13.3155 9.82945C13.215 10.0005 13.3102 10.176 13.503 10.266C13.7121 10.3447 13.9147 10.4397 14.109 10.5502C14.2503 10.6479 14.3629 10.7815 14.4352 10.9372C14.5365 11.1622 14.577 11.4165 14.6602 11.6535C14.6722 11.695 14.6923 11.7338 14.7193 11.7677C14.7463 11.8015 14.7797 11.8296 14.8176 11.8505C14.8555 11.8714 14.8971 11.8846 14.9401 11.8894C14.9831 11.8942 15.0267 11.8905 15.0682 11.8785C15.1106 11.872 15.1512 11.857 15.1876 11.8344C15.224 11.8119 15.2554 11.7822 15.2801 11.7472C15.3048 11.7122 15.3221 11.6725 15.331 11.6306C15.34 11.5888 15.3404 11.5455 15.3322 11.5035C15.318 11.2785 15.3052 11.0535 15.3082 10.8285C15.3074 10.751 15.3361 10.6762 15.3885 10.6192C15.9727 10.1167 16.5637 9.62245 17.2132 9.07495L17.2147 9.0712Z" fill="black"/>
<path d="M9.49797 30.7038C10.353 30.3205 11.1592 29.9733 11.9542 29.599C13.6987 28.774 15.4335 27.9318 17.1795 27.1113C19.3767 26.0483 21.6487 25.1476 23.9775 24.4165C25.2008 24.0415 26.4561 23.7804 27.7275 23.6365C28.7143 23.5098 29.7134 23.5118 30.6997 23.6425C30.7837 23.6553 30.8655 23.6793 31.0155 23.7123C30.6525 24.3123 30.294 24.8575 29.9842 25.4305C29.9195 25.5943 29.794 25.7267 29.634 25.8002C29.4741 25.8737 29.2919 25.8826 29.1255 25.825C27.9171 25.6287 26.6853 25.6256 25.476 25.816C23.6002 26.0668 21.7668 26.5688 20.025 27.3085C17.5942 28.381 15.1965 29.5278 12.7845 30.6408C12.2962 30.8658 11.8095 31.0908 11.3137 31.3075C11.226 31.3445 11.128 31.3495 11.037 31.3218C10.5345 31.129 10.0402 30.922 9.49347 30.7008L9.49797 30.7038Z" fill="black"/>
<path d="M28.2952 27.3648C24.906 31.4095 18.339 33.1623 13.7715 32.0425C14.1075 31.8573 14.4007 31.684 14.7045 31.528C17.4695 30.0217 20.3748 28.7884 23.379 27.8455C24.6896 27.4388 26.057 27.2454 27.429 27.2725C27.708 27.2838 27.9847 27.3295 28.2937 27.364L28.2952 27.3648Z" fill="black"/>
<path d="M4.77374 27.1613C5.76374 26.6033 6.75299 26.0731 7.71524 25.4963C10.1775 24.0166 12.624 22.5098 15.0825 21.0256C17.1649 19.7334 19.3202 18.5627 21.5377 17.5193C23.5248 16.5817 25.5861 15.8103 27.7005 15.2131C28.9005 14.8921 30.117 14.6551 31.332 14.4001C31.7235 14.3191 32.1292 14.3063 32.5785 14.2568C32.6215 14.7613 32.663 15.2453 32.703 15.7088C31.989 15.7838 31.3282 15.8176 30.678 15.9196C28.6811 16.24 26.7213 16.7596 24.828 17.4706C21.8633 18.5934 18.9852 19.933 16.2172 21.4786C13.0762 23.2031 9.93549 24.9281 6.79499 26.6536C6.33974 26.9033 5.85899 27.1103 5.39024 27.3331C5.03999 27.4981 5.01524 27.4906 4.77899 27.1583L4.77374 27.1613Z" fill="black"/>
<path d="M15.8512 18.7703C15.4215 19.0238 15.0487 19.2563 14.6632 19.4641C14.6106 19.4884 14.5537 19.5021 14.4958 19.5043C14.4378 19.5065 14.38 19.4971 14.3257 19.4768C13.0231 18.8719 11.6558 18.4175 10.2502 18.1223C8.70819 17.8144 7.12795 17.7456 5.56498 17.9183C3.91151 18.1264 2.29561 18.5665 0.76498 19.2256C0.71698 18.9046 0.65473 18.5926 0.62548 18.2768C0.58273 17.7998 0.59023 17.7938 1.04923 17.6266C2.60386 17.024 4.23519 16.642 5.89573 16.4918C6.88013 16.4105 7.86963 16.4123 8.85373 16.4971C10.5076 16.6536 12.127 17.0668 13.6537 17.7218C14.2462 17.9791 14.829 18.2543 15.4147 18.5273C15.552 18.5911 15.6787 18.6773 15.852 18.7711L15.8512 18.7703Z" fill="black"/>
<path d="M1.65971 22.2136C1.48946 21.7636 1.33421 21.3451 1.17371 20.9161C2.95134 20.0094 4.90956 19.5126 6.90443 19.4623C8.8993 19.4119 10.8801 19.8092 12.7012 20.6251C12.2347 20.9131 11.8252 21.1741 11.403 21.4178C11.3124 21.4472 11.2143 21.4435 11.1262 21.4073C7.98656 20.4313 4.58906 20.7206 1.65971 22.2136Z" fill="black"/>
<path d="M9.31495 22.7754L3.61495 25.8781C3.16495 25.1604 2.7397 24.4906 2.3092 23.8089C4.41011 22.5821 6.89126 22.1777 9.27295 22.6741C9.2872 22.7086 9.3022 22.7416 9.3157 22.7754H9.31495Z" fill="black"/>
</svg>
