<svg width="26" height="26" viewBox="0 0 26 26" fill="none" xmlns="http://www.w3.org/2000/svg">
<path fill-rule="evenodd" clip-rule="evenodd" d="M11.3352 0.823346C8.59362 1.15692 6.04157 2.39531 4.083 4.34252C2.12442 6.28974 0.871204 8.83454 0.52169 11.5742C0.172177 14.3138 0.746334 17.0917 2.15329 19.4683C3.56024 21.8449 5.71963 23.6843 8.28966 24.6955C10.8597 25.7068 13.6936 25.832 16.3428 25.0513C18.992 24.2707 21.3052 22.6288 22.9162 20.3856C24.5273 18.1424 25.3442 15.4259 25.2377 12.6661C25.1311 9.90635 24.1072 7.26095 22.328 5.1486C20.9988 3.57164 19.2979 2.35049 17.3787 1.59537C15.4596 0.840246 13.3826 0.574922 11.3352 0.823346ZM14.6967 2.8701C17.273 3.33566 19.5771 4.76024 21.145 6.85686C22.7128 8.95348 23.4278 11.5664 23.146 14.1692C22.8642 16.7719 21.6066 19.1712 19.6263 20.8837C17.6461 22.5962 15.0905 23.4947 12.4743 23.3981C9.85805 23.3015 7.37564 22.217 5.5271 20.3632C3.67855 18.5093 2.60124 16.0238 2.51216 13.4073C2.42308 10.7908 3.32886 8.23777 5.04704 6.26248C6.76522 4.28718 9.16813 3.0364 11.7717 2.7621C12.748 2.71811 13.7263 2.75423 14.6967 2.8701ZM17.4642 8.91435C17.1597 8.9706 17.0832 9.04035 14.1102 12.0118L11.1657 14.9496L9.93572 13.7121C8.63597 12.4078 8.49197 12.2946 8.09297 12.2931C7.92792 12.2959 7.76618 12.3399 7.62247 12.4211C7.47875 12.5023 7.35764 12.6182 7.27013 12.7582C7.18263 12.8982 7.13152 13.0578 7.12144 13.2226C7.11137 13.3873 7.14266 13.552 7.21247 13.7016C7.32497 13.9266 10.4967 17.1073 10.727 17.2266C11.0047 17.3483 11.3192 17.3556 11.6022 17.2468C11.873 17.1343 18.4407 10.5636 18.551 10.2936C18.6257 10.1282 18.6537 9.94552 18.632 9.76535C18.6102 9.58517 18.5394 9.41441 18.4274 9.27162C18.3154 9.12883 18.1664 9.01947 17.9966 8.95543C17.8268 8.89138 17.6426 8.8751 17.4642 8.90835" fill="black"/>
</svg>
