<svg width="24" height="19" viewBox="0 0 24 19" fill="none" xmlns="http://www.w3.org/2000/svg">
<path d="M10.4312 18.7513C8.9837 18.7513 7.7927 18.7513 6.6812 18.7475C5.13212 18.7565 3.62882 18.2227 2.43236 17.2387C1.2359 16.2548 0.421847 14.8828 0.131578 13.3612C-0.15869 11.8395 0.0931584 10.2642 0.843388 8.90893C1.59362 7.55362 2.79484 6.50388 4.23845 5.942C4.31422 5.91838 4.38271 5.87581 4.43743 5.81832C4.49216 5.76084 4.53132 5.69034 4.5512 5.6135C5.0344 4.12593 5.97656 2.82973 7.24239 1.91101C8.50822 0.992298 10.0326 0.49832 11.5967 0.500004C13.5498 0.498472 15.4271 1.25636 16.8317 2.6135C17.4258 3.18703 17.9197 3.85604 18.2927 4.59275C18.675 5.34741 18.9232 6.16281 19.0262 7.0025C19.0275 7.12089 19.0694 7.23524 19.1449 7.32644C19.2204 7.41764 19.3249 7.48014 19.4409 7.5035C20.627 7.93253 21.6398 8.73842 22.3242 9.79781C23.0086 10.8572 23.3271 12.1117 23.2307 13.3693C23.1235 14.6642 22.5969 15.8889 21.7307 16.8575C20.8814 17.8102 19.7288 18.4398 18.4682 18.6395C17.9674 18.7074 17.4623 18.7384 16.9569 18.7325C16.7252 18.7325 16.4859 18.7393 16.2489 18.749H13.2864L10.4312 18.7513ZM8.96195 10.4533C8.7167 10.4533 8.51195 10.4533 8.32745 10.4533C8.16178 10.4465 7.99812 10.4915 7.85916 10.5819C7.72021 10.6723 7.61284 10.8038 7.55195 10.958C7.47944 11.1077 7.45736 11.2769 7.48899 11.4402C7.52063 11.6035 7.60428 11.7522 7.72745 11.864C8.9912 13.139 10.0449 14.189 11.0447 15.1813C11.1988 15.341 11.41 15.433 11.6319 15.437C11.849 15.4329 12.0557 15.3435 12.2072 15.188C13.2729 14.1313 14.3642 13.0423 15.5424 11.852C15.6714 11.7272 15.7541 11.5622 15.7768 11.3842C15.7996 11.2062 15.7611 11.0257 15.6677 10.8725C15.5944 10.7392 15.4854 10.629 15.3529 10.5543C15.2204 10.4795 15.0697 10.4433 14.9177 10.4495H13.2909V7.18025C13.3014 6.79726 13.1788 6.42249 12.944 6.11973C12.7092 5.81697 12.3767 5.60495 12.0032 5.51975C11.8757 5.49073 11.7454 5.47589 11.6147 5.4755C11.2906 5.47921 10.9746 5.57769 10.7058 5.75881C10.437 5.93993 10.2271 6.19576 10.1019 6.49475C10.0884 6.56525 10.0734 6.635 10.0592 6.7025C10.0138 6.88185 9.98614 7.06524 9.9767 7.25C9.9677 7.95425 9.96845 8.67125 9.96995 9.3635V10.2313C9.96995 10.2823 9.96995 10.3325 9.96245 10.3858C9.96245 10.409 9.96245 10.4323 9.95795 10.4555H9.4502L8.96195 10.4533Z" fill="white"/>
</svg>
