<svg width="23" height="26" viewBox="0 0 23 26" fill="none" xmlns="http://www.w3.org/2000/svg">
<path fill-rule="evenodd" clip-rule="evenodd" d="M10.6649 0.991183C8.13854 1.22916 5.77345 2.33792 3.9745 4.12764C2.17555 5.91736 1.05463 8.27674 0.803659 10.8019C0.552687 13.327 1.18725 15.8609 2.59873 17.9697C4.01021 20.0785 6.11083 21.6311 8.54096 22.3617L9.36595 22.6114L10.3687 23.9614C10.9215 24.7032 11.4389 25.3902 11.5184 25.4884L11.6632 25.6669L11.7652 25.5357C11.8222 25.4689 12.3487 24.7744 12.9367 23.9974C13.9342 22.6812 14.0212 22.5837 14.25 22.5267C16.0863 22.0828 17.7766 21.1713 19.1565 19.8808C20.5363 18.5904 21.5588 16.9649 22.1246 15.1623C22.6903 13.3597 22.78 11.4415 22.3851 9.59397C21.9901 7.74647 21.1238 6.03259 19.8705 4.61894C18.7168 3.34746 17.2859 2.35862 15.6887 1.72901C14.0914 1.09939 12.3707 0.845904 10.6597 0.988185M13.0319 3.99719C19.4984 4.97219 21.9045 13.5312 16.9102 17.7972C15.9013 18.683 14.6844 19.2986 13.373 19.5865C12.0617 19.8744 10.6988 19.8253 9.41158 19.4436C8.1244 19.062 6.95498 18.3603 6.01251 17.4042C5.07003 16.448 4.38525 15.2686 4.0222 13.9761C3.65914 12.6835 3.62963 11.32 3.93641 10.013C4.24319 8.70595 4.87626 7.49798 5.77648 6.50195C6.6767 5.50591 7.81473 4.7543 9.08419 4.31733C10.3537 3.88035 11.7131 3.77227 13.0357 4.00319M11.097 5.28943C9.54688 5.42752 8.09585 6.11037 7.00146 7.21679C5.90706 8.32321 5.24009 9.78162 5.11895 11.3331C4.99781 12.8846 5.43031 14.4289 6.33972 15.6918C7.24912 16.9546 8.57658 17.8544 10.0865 18.2314C11.5963 18.6084 13.191 18.4382 14.5873 17.7511C15.9836 17.0639 17.0912 15.9042 17.7136 14.4779C18.336 13.0515 18.4329 11.4508 17.9871 9.95976C17.5412 8.46876 16.5814 7.18396 15.2782 6.33343C14.0413 5.5257 12.5684 5.15795 11.097 5.28943Z" fill="#CCCCCC"/>
</svg>
