<svg width="22" height="23" viewBox="0 0 22 23" fill="none" xmlns="http://www.w3.org/2000/svg">
<path opacity="0.2" d="M17.2734 22.3843C16.8611 22.3845 16.4512 22.32 16.0589 22.1931C15.1349 21.8827 14.3512 21.2543 13.8473 20.4199C13.3434 19.5855 13.1522 18.5993 13.3075 17.6371L6.65008 14.3811C6.09335 14.7945 5.43605 15.0512 4.74652 15.1247C4.05699 15.1981 3.36033 15.0856 2.72902 14.7987C2.2257 14.57 1.77613 14.2379 1.40952 13.8241C0.756996 13.0844 0.396973 12.132 0.396973 11.1457C0.396973 10.1594 0.756996 9.20701 1.40952 8.46739C1.77568 8.05276 2.22566 7.7205 2.72966 7.49253C3.23366 7.26457 3.78025 7.14608 4.33341 7.14489C5.16861 7.14392 5.98163 7.4141 6.65008 7.91484L13.3224 4.6536C13.2314 4.08234 13.2647 3.49817 13.42 2.94094C13.5752 2.3837 13.8489 1.86649 14.2221 1.42459C14.6898 0.868606 15.3029 0.453729 15.9929 0.226403C16.6829 -0.000923345 17.4226 -0.0317257 18.1291 0.137436C18.8356 0.306599 19.4812 0.669057 19.9934 1.18424C20.5057 1.69941 20.8644 2.34699 21.0295 3.05447C21.2475 3.91649 21.1737 4.82643 20.8196 5.64206C20.4656 6.45769 19.8513 7.13303 19.0727 7.56248C18.5001 7.87497 17.8584 8.03939 17.206 8.0408C16.6578 8.04023 16.116 7.92291 15.6166 7.69667C15.114 7.47108 14.6644 7.14236 14.2971 6.7318L8.03703 9.78987C8.35186 10.6661 8.35186 11.6246 8.03703 12.5008L14.2971 15.5611C14.6673 15.1372 15.1252 14.7988 15.6391 14.5693C16.1527 14.3372 16.7098 14.2168 17.2734 14.2162C18.0715 14.2157 18.8508 14.4584 19.5075 14.9119C20.3091 15.4715 20.8879 16.2957 21.142 17.2397C21.397 18.1834 21.3066 19.187 20.8871 20.0699C20.5653 20.758 20.055 21.3408 19.4154 21.7506C18.7758 22.1604 18.033 22.3804 17.2734 22.385V22.3843Z" fill="black"/>
</svg>
