<svg width="18" height="18" viewBox="0 0 18 18" fill="none" xmlns="http://www.w3.org/2000/svg">
<path d="M4.94817 17.8138C4.75485 17.8157 4.56325 17.7775 4.38544 17.7016C4.20763 17.6257 4.04747 17.5138 3.91507 17.3729C3.78309 17.2302 3.6811 17.0625 3.61518 16.8797C3.55147 16.6969 3.52596 16.5029 3.54022 16.3099L3.83111 11.9053L1.14189 8.5383C0.993185 8.35534 0.893355 8.13763 0.851751 7.90555C0.809985 7.67314 0.826996 7.434 0.901233 7.20984C0.973594 6.98474 1.10269 6.78212 1.27609 6.62138C1.44739 6.45836 1.65825 6.34283 1.88785 6.28624L5.90406 5.23663L8.10595 1.52853C8.24081 1.33099 8.42068 1.16838 8.63075 1.05401C8.84305 0.94175 9.07958 0.883057 9.31974 0.883057C9.5599 0.883057 9.79641 0.94175 10.0087 1.05401C10.2189 1.16821 10.3988 1.33086 10.5335 1.52853L12.7287 5.23663L16.7471 6.29375C16.9764 6.35052 17.187 6.46594 17.3581 6.62879C17.5299 6.78854 17.6588 6.98891 17.733 7.21139C17.8072 7.43552 17.8249 7.67447 17.7847 7.90711C17.7443 8.14088 17.6458 8.36079 17.4983 8.54663L14.8121 11.9068L15.103 16.3113C15.1169 16.5039 15.0908 16.6972 15.0263 16.8791C14.9618 17.061 14.8603 17.2277 14.7282 17.3685C14.5961 17.5105 14.4367 17.6245 14.2596 17.7036C14.0818 17.7793 13.8905 17.8181 13.6973 17.8175H13.6711C13.4876 17.8169 13.306 17.7805 13.1365 17.7103L9.31299 16.0842H9.30699L5.48946 17.7043C5.31807 17.7763 5.13407 17.8135 4.94817 17.8138Z" fill="#FCA800"/>
</svg>
