<svg width="56" height="55" viewBox="0 0 56 55" fill="none" xmlns="http://www.w3.org/2000/svg">
<path d="M33.225 0.492676C32.3082 0.772537 31.4747 1.27468 30.7988 1.95443L6.07128 26.6677C5.39192 27.3439 4.88985 28.1773 4.60953 29.0939L28.4513 24.3367L33.225 0.492676Z" fill="white"/>
<path d="M53.5425 16.416L39.078 1.95229C38.3597 1.2319 37.4649 0.712605 36.483 0.446289L31.371 26.0025C31.3088 26.3116 31.1564 26.5953 30.9331 26.8178C30.7098 27.0403 30.4256 27.1917 30.1163 27.2528L4.56003 32.364C4.82687 33.3477 5.3469 34.2443 6.06828 34.9643L7.33728 36.2333L1.27203 42.2963C1.12375 42.4447 1.00616 42.6209 0.925969 42.8148C0.845778 43.0086 0.804558 43.2164 0.804662 43.4262C0.804767 43.636 0.846194 43.8437 0.926578 44.0375C1.00696 44.2313 1.12473 44.4074 1.27316 44.5557C1.42158 44.7039 1.59776 44.8215 1.79163 44.9017C1.98551 44.9819 2.19327 45.0231 2.40308 45.023C2.61288 45.0229 2.82061 44.9815 3.0144 44.9011C3.20819 44.8207 3.38425 44.703 3.53253 44.5545L9.59778 38.4893L12.1733 41.067L1.27653 51.9645C1.11596 52.1097 0.986609 52.286 0.896342 52.4827C0.806076 52.6794 0.756786 52.8924 0.751473 53.1088C0.746159 53.3252 0.784933 53.5404 0.865435 53.7413C0.945936 53.9422 1.06648 54.1247 1.21973 54.2775C1.37298 54.4303 1.55574 54.5504 1.75686 54.6304C1.95799 54.7103 2.17329 54.7485 2.38965 54.7426C2.60601 54.7368 2.81891 54.6869 3.01539 54.5961C3.21187 54.5053 3.38782 54.3755 3.53253 54.2145L14.433 43.3185L17.0055 45.8963L10.9418 51.9645C10.7812 52.1097 10.6519 52.286 10.5616 52.4827C10.4713 52.6794 10.422 52.8924 10.4167 53.1088C10.4114 53.3252 10.4502 53.5404 10.5307 53.7413C10.6112 53.9422 10.7317 54.1247 10.885 54.2775C11.0382 54.4303 11.221 54.5504 11.4221 54.6304C11.6232 54.7103 11.8385 54.7485 12.0549 54.7426C12.2713 54.7368 12.4842 54.6869 12.6806 54.5961C12.8771 54.5053 13.0531 54.3755 13.1978 54.2145L19.2623 48.1463L20.5313 49.4213C21.6326 50.5164 23.1226 51.1312 24.6758 51.1312C26.2289 51.1312 27.719 50.5164 28.8203 49.4213L53.5425 24.7043C54.639 23.6036 55.2546 22.1134 55.2546 20.5598C55.2546 19.0062 54.639 17.5167 53.5425 16.416Z" fill="white"/>
</svg>
