<svg width="37" height="31" viewBox="0 0 37 31" fill="none" xmlns="http://www.w3.org/2000/svg">
<path opacity="0.06" d="M20.9172 29.0735V23.7095C20.9374 23.3408 21.1027 22.9952 21.3771 22.7481C21.6514 22.501 22.0125 22.3726 22.3812 22.391C25.2657 22.391 26.8347 19.7277 27.053 14.4702H22.3805C22.0123 14.4885 21.6518 14.3604 21.3776 14.114C21.1033 13.8676 20.9376 13.5228 20.9165 13.1547V1.81849C20.9368 1.44996 21.1023 1.10448 21.3766 0.85755C21.6509 0.610624 22.0119 0.482342 22.3805 0.500744H34.8357C35.2043 0.482542 35.5651 0.610892 35.8394 0.857778C36.1137 1.10466 36.2792 1.45003 36.2997 1.81849V13.151C36.3243 15.4694 36.0426 17.7809 35.462 20.0255C34.9544 21.9897 34.0717 23.8371 32.8625 25.466C31.6958 27.0077 30.1821 28.2526 28.4442 29.0997C26.5474 29.9879 24.4724 30.4299 22.3782 30.392C22.01 30.4094 21.6499 30.2806 21.3762 30.0336C21.1026 29.7866 20.9376 29.4415 20.9172 29.0735ZM2.03674 22.3887C1.66835 22.3705 1.30772 22.4988 1.03358 22.7456C0.759433 22.9923 0.594034 23.3375 0.573486 23.7057L0.573486 29.0742C0.594225 29.4424 0.759707 29.7874 1.03383 30.0339C1.30796 30.2805 1.66847 30.4087 2.03674 30.3905C4.13038 30.4283 6.20489 29.9863 8.10124 29.0982C9.83917 28.2515 11.3527 27.0065 12.5187 25.4645C13.7284 23.8356 14.6111 21.9878 15.1182 20.0232C15.6989 17.7781 15.9803 15.4661 15.9552 13.1472V1.81774C15.9347 1.44928 15.7692 1.10391 15.4949 0.857028C15.2206 0.610143 14.8598 0.481791 14.4912 0.499993H2.03674C1.66828 0.481995 1.30765 0.610438 1.03353 0.857303C0.75941 1.10417 0.594036 1.44942 0.573486 1.81774L0.573486 13.1472C0.593652 13.5158 0.758886 13.8613 1.03307 14.1084C1.30726 14.3555 1.66811 14.4839 2.03674 14.4657H6.64324C6.42799 19.7247 4.88149 22.3887 2.03674 22.3887Z" fill="black"/>
</svg>
