<svg width="119" height="25" viewBox="0 0 119 25" fill="none" xmlns="http://www.w3.org/2000/svg">
<path d="M61.0977 12.0645C60.2644 12.0914 59.4486 12.3117 58.715 12.708V20.058C59.2854 20.1112 59.8582 20.1327 60.431 20.1225C62.7635 20.1225 63.0837 19.0545 63.0837 17.5627V14.0513C63.0837 12.9495 62.7185 12.0645 61.0977 12.0645ZM45.605 11.664C43.9865 11.664 43.6167 12.5528 43.6167 13.653V14.271H47.5918V13.653C47.5903 12.552 47.2212 11.664 45.605 11.664ZM15.5922 19.314C15.5648 19.4935 15.5799 19.6769 15.6363 19.8496C15.6927 20.0222 15.7888 20.1791 15.9169 20.3078C16.045 20.4365 16.2015 20.5334 16.3739 20.5905C16.5463 20.6477 16.7296 20.6636 16.9092 20.637C17.7034 20.6118 18.4791 20.391 19.1675 19.9943V18.2483H17.0413C16.0347 18.2483 15.5922 18.4358 15.5922 19.311V19.314ZM76.1683 12.0675C74.5468 12.0675 73.985 12.9525 73.985 14.0535V18.0735C73.985 19.1775 74.5468 20.0655 76.1683 20.0655C77.7897 20.0655 78.3515 19.1782 78.3515 18.0735V14.0535C78.3507 12.9495 77.7845 12.0645 76.1683 12.0645V12.0675ZM7.64675 23.8185H2.88125V12.2828H0.5V8.30775H2.882V5.92125C2.882 2.67825 4.226 0.75 8.04575 0.75H11.2265V4.725H9.23825C7.751 4.725 7.65275 5.28075 7.65275 6.31725L7.64675 8.307H11.2467L10.8252 12.282H7.64525V23.8185H7.64675ZM23.9345 23.8485H19.9595L19.7878 22.8442C18.4141 23.6164 16.8635 24.0187 15.2877 24.012C12.3747 24.012 10.8245 22.0658 10.8245 19.3748C10.8245 16.2 12.6335 15.0668 15.8705 15.0668H19.1675V14.379C19.1675 12.7583 18.9815 12.279 16.4893 12.279H12.4145L12.8127 8.304H17.267C22.7352 8.304 23.9345 10.029 23.9345 14.4075V23.8485ZM37.442 12.5745C36.0051 12.2613 34.5413 12.0882 33.071 12.0577C30.935 12.0577 30.2893 12.5288 30.2893 14.343V17.7743C30.2893 19.5885 30.935 20.0618 33.071 20.0618C34.5414 20.0304 36.0053 19.8561 37.442 19.5413V23.4188C35.8813 23.8042 34.2817 24.0098 32.6743 24.0315C27.5578 24.0315 25.5237 21.3405 25.5237 17.454V14.67C25.5237 10.7798 27.5578 8.08425 32.6743 8.08425C34.2818 8.10612 35.8816 8.31273 37.442 8.7V12.5745ZM52.3558 17.454H43.616V17.7743C43.616 19.5885 44.2617 20.0618 46.3978 20.0618C48.2635 20.0753 50.1259 19.9009 51.9567 19.5413V23.4188C50.0036 23.8602 48.0046 24.0659 46.0025 24.0315C40.8853 24.0315 38.8505 21.3405 38.8505 17.454V14.2703C38.8505 10.869 40.3603 8.0835 45.6005 8.0835C50.8408 8.0835 52.3505 10.8368 52.3505 14.2703L52.3558 17.454ZM67.8477 17.529C67.8477 21.2858 66.7738 24.0262 60.2728 24.0262C58.1525 24.0111 56.0378 23.8086 53.9532 23.421V1.944L58.7173 1.149V8.66175C59.8681 8.26994 61.0768 8.07496 62.2925 8.085C67.0573 8.085 67.8508 10.221 67.8508 13.6538V17.529H67.8477ZM83.12 17.6107C83.12 20.8515 81.782 23.9948 76.184 23.9948C70.586 23.9948 69.2202 20.8515 69.2202 17.6107V14.4802C69.2202 11.238 70.583 8.094 76.184 8.094C81.785 8.094 83.12 11.238 83.12 14.4802V17.6107ZM98.3818 17.6107C98.3818 20.8515 97.0423 23.9948 91.445 23.9948C85.8478 23.9948 84.4812 20.8515 84.4812 17.6107V14.4802C84.4812 11.238 85.844 8.094 91.445 8.094C97.046 8.094 98.3818 11.238 98.3818 14.4802V17.6107ZM114.044 23.82H108.883L104.515 16.5293V23.82H99.7498V1.944L104.515 1.149V15.231L108.883 8.3085H114.046L109.278 15.8633L114.044 23.82ZM91.4285 12.0645C89.81 12.0645 89.2483 12.9495 89.2483 14.0505V18.0705C89.2483 19.1745 89.81 20.0625 91.4285 20.0625C93.047 20.0625 93.617 19.1753 93.617 18.0705V14.0505C93.617 12.9495 93.0455 12.0645 91.4285 12.0645ZM116.764 21.0975C117.151 21.0983 117.522 21.2526 117.795 21.5266C118.068 21.8005 118.221 22.1717 118.221 22.5585C118.22 22.9453 118.066 23.3162 117.793 23.5896C117.519 23.8629 117.148 24.0165 116.761 24.0165C116.374 24.0165 116.003 23.8629 115.73 23.5896C115.456 23.3162 115.302 22.9453 115.302 22.5585C115.301 22.1717 115.455 21.8005 115.728 21.5266C116.001 21.2526 116.371 21.0983 116.758 21.0975H116.764ZM116.758 21.3263C116.44 21.3445 116.14 21.484 115.922 21.7162C115.703 21.9484 115.582 22.2555 115.582 22.5745C115.583 22.8934 115.706 23.2 115.926 23.4311C116.146 23.6622 116.446 23.8003 116.764 23.817C117.083 23.7995 117.382 23.6607 117.602 23.4291C117.821 23.1974 117.943 22.8906 117.943 22.5716C117.943 22.2527 117.821 21.9458 117.602 21.7142C117.382 21.4826 117.083 21.3437 116.764 21.3263H116.758ZM116.484 23.4263H116.223V21.7838C116.376 21.759 116.531 21.7463 116.687 21.7455C116.866 21.7333 117.044 21.7765 117.198 21.8693C117.249 21.9093 117.289 21.9612 117.315 22.0205C117.341 22.0797 117.352 22.1444 117.348 22.209C117.348 22.302 117.317 22.3923 117.259 22.465C117.201 22.5377 117.12 22.5884 117.029 22.6087V22.6215C117.172 22.6485 117.27 22.7775 117.303 23.019C117.316 23.159 117.351 23.2961 117.406 23.4255H117.133C117.071 23.2934 117.033 23.1515 117.021 23.0062C117.019 22.9634 117.008 22.9215 116.989 22.8832C116.969 22.845 116.942 22.8112 116.909 22.7841C116.875 22.7571 116.837 22.7373 116.795 22.7261C116.754 22.7148 116.711 22.7124 116.668 22.719H116.487V23.4263H116.484ZM116.484 22.5173H116.674C116.889 22.5173 117.072 22.4385 117.072 22.2352C117.072 22.0912 116.968 21.948 116.674 21.948C116.611 21.9478 116.547 21.9521 116.484 21.9608V22.5173Z" fill="#303030"/>
</svg>
