<svg width="110" height="31" viewBox="0 0 110 31" fill="none" xmlns="http://www.w3.org/2000/svg">
<path d="M24.9425 14.5456C24.834 16.9261 23.1715 20.1863 19.955 24.3263C16.631 28.6488 13.8177 30.8103 11.5153 30.8108C10.0907 30.8108 8.88525 29.4941 7.89875 26.8606L5.92475 19.6208C5.19375 16.9883 4.4085 15.6716 3.569 15.6706C2.87538 15.9575 2.22829 16.346 1.649 16.8233L0.5 15.3406C1.706 14.2806 2.89525 13.2191 4.06775 12.1561C5.67775 10.7661 6.886 10.0338 7.6925 9.95933C9.595 9.77683 10.7665 11.0783 11.207 13.8638C11.682 16.8703 12.0113 18.7396 12.1947 19.4716C12.7448 21.9656 13.3485 23.2121 14.006 23.2111C14.5185 23.2111 15.2875 22.4023 16.313 20.7848C17.1199 19.6852 17.6824 18.4258 17.963 17.0911C18.109 15.6946 17.559 14.9958 16.313 14.9948C15.6886 15.0031 15.0726 15.1397 14.5033 15.3961C15.7032 11.4586 17.999 9.54433 21.3905 9.65333C23.9035 9.72733 25.0875 11.3581 24.9425 14.5456Z" fill="#303030"/>
<path d="M35.2587 2.73224C35.2138 3.23869 35.0692 3.73127 34.8334 4.18173C34.5977 4.63219 34.2753 5.03167 33.8847 5.35724C33.4226 5.81498 32.8739 6.17623 32.2708 6.41997C31.6677 6.66371 31.0222 6.78507 30.3717 6.77699C28.2852 6.77699 27.2782 5.86649 27.3507 4.0455C27.415 3.49592 27.5979 2.96686 27.8868 2.49496C28.1757 2.02306 28.5637 1.6196 29.024 1.31249C30.0319 0.464668 31.3069 9.27769e-05 32.624 0.000744717C32.9917 -0.00459882 33.3559 0.073631 33.689 0.229534C34.0221 0.385438 34.3155 0.614944 34.547 0.900745C35.0171 1.39205 35.2738 2.04937 35.261 2.72924L35.2587 2.73224ZM40.0362 22.2607C38.9617 24.2607 37.5283 26.0459 35.8077 27.5272C33.3547 29.6482 30.9022 30.7092 28.4502 30.7102C27.9601 30.7404 27.4696 30.6569 27.0171 30.4662C26.5646 30.2755 26.1624 29.9827 25.8417 29.6107C25.2127 28.8001 24.9093 27.7836 24.9912 26.7607C25.1587 24.859 25.536 22.9816 26.1162 21.1627C26.8302 18.6387 27.1877 17.2855 27.1887 17.103C27.1887 16.153 26.859 15.678 26.1995 15.678C25.512 15.9458 24.879 16.3364 24.3312 16.8307L23.0682 15.348L26.5827 12.1635C28.1567 10.7735 29.3287 10.0412 30.0987 9.96674C30.5981 9.87525 31.1131 9.927 31.5843 10.116C32.0555 10.305 32.4635 10.6235 32.7612 11.0347C33.356 11.9884 33.5809 13.1268 33.3935 14.235C32.917 16.46 32.4045 19.285 31.856 22.71C31.8185 24.2795 32.3857 25.0637 33.5577 25.0627C34.0702 25.0627 34.9855 24.5212 36.3035 23.4382C37.2681 22.6623 38.1683 21.8095 38.9952 20.8882L40.0362 22.2607Z" fill="#303030"/>
<path d="M74.3277 22.2582C73.2526 24.2584 71.8182 26.0434 70.0962 27.5239C67.6462 29.6454 65.195 30.7064 62.7425 30.7069C60.362 30.7069 59.2087 29.3897 59.2827 26.7552C59.3584 25.3268 59.5882 23.9108 59.9683 22.5319C60.3216 21.2764 60.5512 19.9892 60.6538 18.6889C60.6913 17.3004 60.2687 16.6054 59.3862 16.6039C58.4317 16.6039 57.2933 17.7387 55.9708 20.0082C54.668 22.0971 53.893 24.4716 53.7125 26.9269C53.5861 28.1545 53.7437 29.3947 54.173 30.5517C51.6195 30.6257 49.8315 30.2047 48.809 29.2887C47.894 28.4837 47.4742 27.1477 47.5497 25.2807C47.5851 24.0915 47.7662 22.9112 48.089 21.7662C48.386 20.7463 48.5664 19.6961 48.6267 18.6357C48.7017 17.2819 48.2052 16.6039 47.1425 16.6039C46.226 16.6039 45.2365 17.6474 44.174 19.7344C43.1269 21.7612 42.5269 23.9891 42.4145 26.2677C42.273 27.7074 42.4064 29.1609 42.8075 30.5509C40.2945 30.6249 38.5102 30.0954 37.4547 28.9624C36.5772 28.0124 36.1772 26.5704 36.2547 24.6364C36.3347 23.3037 36.5033 21.9777 36.7595 20.6674C37.0141 19.3563 37.1827 18.03 37.2642 16.6969C37.3392 16.0414 37.1697 15.7107 36.7707 15.7107C36.0866 15.9665 35.4538 16.3429 34.9025 16.8222L33.5847 15.3394C33.7687 15.1949 34.922 14.1334 37.0445 12.1549C38.579 10.7314 39.6212 10.0002 40.1712 9.96116C40.6279 9.9196 41.087 10.0083 41.4953 10.217C41.9036 10.4256 42.2444 10.7457 42.4782 11.1402C43.0708 12.0241 43.3776 13.0687 43.3572 14.1327C43.3614 14.4838 43.3244 14.8342 43.247 15.1767C43.7778 14.3548 44.4251 13.6144 45.1685 12.9784C46.7364 11.566 48.7196 10.6995 50.8212 10.5087C52.6152 10.3627 53.8967 10.7837 54.6657 11.7717C55.3457 12.7904 55.6555 14.0117 55.5432 15.2314C55.7997 15.0132 56.075 14.7739 56.3682 14.5174C57.0961 13.6368 57.9248 12.8447 58.8372 12.1572C60.062 11.2177 61.5284 10.6455 63.0657 10.5072C64.8237 10.3612 66.087 10.7804 66.8555 11.7649C67.5681 12.7635 67.8817 13.9925 67.7345 15.2104C67.62 16.716 67.3716 18.2084 66.992 19.6699C66.6961 20.7764 66.4672 21.8997 66.3065 23.0337C66.2316 23.5724 66.3071 24.1214 66.5247 24.6199C66.7085 24.9124 67.1457 25.0572 67.8425 25.0572C68.355 25.0572 69.2702 24.5152 70.5882 23.4312C71.5527 22.6567 72.4529 21.8054 73.28 20.8857L74.3277 22.2582Z" fill="#303030"/>
<path d="M82.4555 16.4684C82.49 15.4854 82.088 14.9937 81.2495 14.9932C80.1495 14.9932 79.0347 15.7489 77.9052 17.2604C76.8817 18.4898 76.2681 20.0084 76.1502 21.6037C76.123 21.8399 76.123 22.0785 76.1502 22.3147C77.9113 21.6789 79.5049 20.6513 80.8107 19.3094C81.8707 18.1444 82.419 17.1979 82.4555 16.4684ZM94.9205 22.2014C93.859 23.9579 91.7722 25.7127 88.6602 27.4657C85.0922 29.6074 81.0187 30.7614 76.8575 30.8092C73.8935 30.8092 71.7702 29.8212 70.4877 27.8452C69.5509 26.4138 69.0898 24.7232 69.17 23.0144C69.206 20.0504 70.5242 17.2322 73.1247 14.5597C74.4106 13.166 75.9728 12.0555 77.7117 11.2991C79.4506 10.5427 81.328 10.1568 83.2242 10.1662C86.8127 10.1662 88.7165 11.6269 88.9355 14.5484C89.0815 16.4104 88.0565 18.3277 85.8605 20.3002C83.387 22.5168 80.3095 23.9466 77.0202 24.4072C77.3604 24.8651 77.8099 25.2304 78.3277 25.4696C78.8455 25.7089 79.4151 25.8144 79.9842 25.7767C82.9661 25.6994 85.9008 25.0149 88.6092 23.7652C90.4882 23.0234 92.261 22.0369 93.8817 20.8312L94.9205 22.2014Z" fill="#303030"/>
<path d="M103.62 18.3148C103.667 17.3886 103.527 16.4626 103.209 15.5915C102.897 14.7665 102.447 14.3525 101.864 14.3525C99.996 14.3525 98.4587 15.3615 97.2522 17.3795C96.2454 18.9629 95.6761 20.7847 95.6022 22.6595C95.5475 23.4964 95.7179 24.3326 96.0957 25.0813C96.2258 25.4304 96.4577 25.7324 96.7614 25.9482C97.0651 26.164 97.4265 26.2837 97.799 26.2918C99.4455 26.2918 100.855 25.32 102.027 23.3765C102.986 21.8548 103.534 20.1111 103.619 18.3148H103.62ZM109.826 18.5218C109.72 21.7932 108.387 24.905 106.093 27.2398C104.978 28.4324 103.624 29.3762 102.119 30.0095C100.615 30.6428 98.9932 30.9513 97.361 30.9148C94.469 30.9148 92.2727 29.9823 90.7722 28.1173C89.6338 26.6166 88.9998 24.794 88.961 22.9108C88.7755 19.7658 89.9102 16.8778 92.3652 14.2468C93.5992 12.8323 95.1289 11.7062 96.8461 10.9482C98.5633 10.1902 100.426 9.81869 102.303 9.86004C104.864 9.86004 106.805 10.719 108.124 12.437C109.421 14.1865 110.027 16.3532 109.826 18.5218Z" fill="#303030"/>
</svg>
