<svg width="86" height="37" viewBox="0 0 86 37" fill="none" xmlns="http://www.w3.org/2000/svg">
<path d="M14.9528 29.3916C14.2864 29.1677 13.6943 28.765 13.2413 28.2276C12.0503 26.9368 11.9843 26.5513 11.9843 20.8191C11.9843 15.2953 12.069 14.7756 13.179 13.4788C14.7353 11.6608 18.333 11.7148 19.8698 13.5786C20.8905 14.8168 20.973 15.3681 20.973 20.9038C20.973 25.2853 20.9348 26.0158 20.6678 26.7823C20.4169 27.4079 20.0327 27.9712 19.5417 28.433C19.0508 28.8948 18.465 29.2439 17.8253 29.4561C16.8948 29.8042 15.8667 29.7811 14.9528 29.3916ZM17.0655 26.7343C17.7593 26.4681 17.8365 25.8853 17.8365 20.9203C17.8365 17.7518 17.7725 16.0286 17.6445 15.7506C17.5334 15.5375 17.3661 15.359 17.1607 15.2345C16.9553 15.1099 16.7196 15.0441 16.4794 15.0441C16.2392 15.0441 16.0035 15.1099 15.7981 15.2345C15.5927 15.359 15.4253 15.5375 15.3143 15.7506C15.1863 16.0311 15.1223 17.7543 15.1223 20.9203C15.1223 26.4606 15.1928 26.7816 16.4228 26.8266C16.6404 26.8316 16.8581 26.8004 17.0655 26.7343ZM24.5993 29.2986C24.2742 29.0734 24.0115 28.7694 23.8358 28.4151C23.5395 27.8196 23.5133 27.2106 23.466 20.0151L23.4158 12.2556H26.6543V19.3581C26.6543 25.4368 26.6903 26.4913 26.9063 26.6698C27.2813 26.9818 27.8925 26.7531 28.5833 26.0428L29.1983 25.4098V12.2541H32.4233V29.3841H29.1983V27.6591L28.3928 28.3746C27.984 28.7453 27.5305 29.0635 27.0428 29.3218C26.2538 29.6189 25.3824 29.6106 24.5993 29.2986ZM4.94402 24.6771V19.9708L2.84927 13.2718L0.749268 6.57205L2.45177 6.5233C3.05625 6.45267 3.66856 6.49308 4.25852 6.64255C4.31552 6.7348 4.85852 8.68405 5.45852 10.9731C6.05852 13.2621 6.59477 15.1356 6.64202 15.1363C6.68927 15.1371 7.13402 13.5913 7.63052 11.7028C8.12702 9.8143 8.64677 7.86805 8.78627 7.37755L9.03977 6.4873H10.827C12.2828 6.4873 12.597 6.5308 12.5235 6.7228C12.474 6.85255 11.5118 9.90205 10.3853 13.4998L8.33852 20.0398V29.3841H4.94927V24.6778L4.94402 24.6771Z" fill="#303030"/>
<path d="M49.0665 35.99C40.7805 35.7132 38.5365 35.1237 37.0118 32.8205C36.2281 31.3918 35.7102 29.8328 35.4833 28.2192C34.71 22.6452 34.8998 11.0217 35.8298 7.01522C36.672 3.38747 38.6513 1.60997 42.2633 1.24022C45.8108 0.876474 55.0598 0.678474 64.0553 0.772974C73.767 0.875724 78.3398 1.08347 79.9935 1.49747C83.2298 2.30672 84.7995 4.69097 85.347 9.62523C85.4505 10.5582 85.5773 13.8147 85.6298 16.862C85.839 29.162 84.9135 33.0777 81.3863 34.8057C80.0543 35.4582 79.1828 35.6082 75.4185 35.8332C71.3303 36.077 54.6435 36.1767 49.0673 35.9907L49.0665 35.99ZM53.1428 29.2842C53.5961 29.0108 54.0196 28.6908 54.4065 28.3295L55.1505 27.644V29.3832H58.3755V12.4235H55.1505V25.358L54.4095 26.099C53.6145 26.894 53.2928 26.9937 52.8728 26.5737C52.6388 26.3397 52.6065 25.4487 52.6065 19.3655V12.4227H49.3815V19.7727C49.3815 27.8772 49.4483 28.5185 50.3565 29.1995C50.7861 29.4172 51.2584 29.5377 51.7398 29.5523C52.2212 29.567 52.7007 29.4754 53.1428 29.2842ZM68.6528 29.2295C69.0496 28.9268 69.3692 28.5346 69.5858 28.085C69.984 27.2772 69.9915 27.1655 70.0478 21.6695C70.1085 15.6432 70.0118 14.555 69.3038 13.3332C69.0811 12.9807 68.7799 12.6845 68.4239 12.4676C68.0678 12.2507 67.6664 12.1191 67.251 12.083C66.3299 12.1862 65.4685 12.5906 64.8008 13.2335L63.9698 13.9835V6.65672H60.9165V29.3817H63.969V27.818L64.665 28.4472C65.0364 28.7858 65.4498 29.0751 65.895 29.3082C66.7879 29.6497 67.7798 29.6228 68.6528 29.2332V29.2295ZM64.6028 26.4627L63.9668 26.0937V15.6927L64.7168 15.2937C65.3273 14.9697 65.559 14.9262 65.9468 15.062C66.783 15.356 66.873 16.004 66.8153 21.2997L66.7628 26.0247L66.2865 26.4335C65.7083 26.9315 65.4225 26.9367 64.6043 26.4635L64.6028 26.4627ZM78.8918 29.1995C80.5305 28.4562 81.2693 27.2 81.3983 24.9327L81.483 23.447H78.2138V24.4535C78.2138 25.6865 78.0225 26.225 77.4525 26.5985C77.2965 26.6957 77.1209 26.7572 76.9382 26.7787C76.7556 26.8002 76.5705 26.781 76.3962 26.7226C76.2218 26.6642 76.0626 26.568 75.9297 26.4409C75.7969 26.3137 75.6938 26.1588 75.6278 25.9872C75.3953 25.526 75.3278 24.9635 75.3278 23.4042V21.4122H81.4335V18.9215C81.4335 15.7872 81.1883 14.7882 80.1315 13.613C79.712 13.1173 79.1799 12.7292 78.5796 12.4813C77.9794 12.2334 77.3286 12.1328 76.6815 12.188C75.5838 12.1527 74.5164 12.5509 73.71 13.2965C72.2715 14.5595 72.054 15.6845 72.1395 21.4115C72.1958 25.1322 72.2573 26.039 72.4988 26.6787C72.8843 27.7413 73.6658 28.6137 74.6798 29.1132C76.0187 29.6932 77.5317 29.7241 78.8933 29.1995H78.8918ZM75.33 17.5902C75.33 15.4805 75.8715 14.7612 77.2328 15.0597C77.9168 15.2097 78.213 15.9755 78.213 17.5902V18.8652H75.33V17.5902ZM46.155 19.631V9.88097H49.8915V6.65597H39.2063V9.88097H42.7665V29.3832H46.1588L46.155 19.631Z" fill="#303030"/>
</svg>
