<svg width="103" height="24" viewBox="0 0 103 24" fill="none" xmlns="http://www.w3.org/2000/svg">
<path fill-rule="evenodd" clip-rule="evenodd" d="M83.4075 7.65379C83.7787 8.36652 83.9715 9.15868 83.9693 9.96229L84.0247 11.1143V19.1678L84.0817 20.3205C84.117 21.2104 84.4867 22.0541 85.1169 22.6833C85.7472 23.3124 86.5916 23.6806 87.4815 23.7143L88.6283 23.7713V11.1135L88.6852 9.96154C88.6874 9.15418 88.8834 8.35915 89.2568 7.64329C89.6618 6.94523 90.2435 6.36604 90.9433 5.9639C91.643 5.56176 92.4363 5.35082 93.2434 5.35226C94.0505 5.3537 94.8429 5.56748 95.5413 5.97213C96.2396 6.37677 96.8192 6.95803 97.2217 7.65754C97.5882 8.37013 97.7805 9.15948 97.7827 9.96079L97.8398 11.109V19.1678L97.8968 20.3205C97.9294 21.2112 98.2982 22.0565 98.929 22.6862C99.5598 23.3159 100.406 23.6832 101.296 23.7143L102.443 23.7713V9.96229C102.444 8.09178 101.875 6.26547 100.811 4.7265C99.7483 3.18753 98.2415 2.00894 96.4918 1.34763C94.7421 0.686315 92.8325 0.57367 91.0172 1.02469C89.2019 1.47571 87.567 2.46899 86.3303 3.87229C84.8511 2.19196 82.8099 1.10865 80.5893 0.825345C78.3687 0.542037 76.1209 1.07817 74.2673 2.33329C73.1445 1.34366 71.7083 0.782404 70.212 0.748537V23.7735L71.364 23.7165C72.258 23.6976 73.1101 23.3341 73.7425 22.7018C74.3749 22.0696 74.7386 21.2175 74.7578 20.3235L74.8193 19.1708V11.1135L74.8763 9.96154C74.8764 9.15678 75.069 8.36373 75.438 7.64854C75.8431 6.95059 76.4246 6.37134 77.124 5.96882C77.8235 5.5663 78.6164 5.35463 79.4235 5.355C80.2305 5.35538 81.0232 5.5678 81.7223 5.97098C82.4214 6.37417 83.0023 6.95396 83.4068 7.65229L83.4075 7.65379ZM4.6035 23.7158L5.7555 23.7713H23.0205L22.9635 22.623C22.9233 21.7352 22.5528 20.8945 21.9246 20.2658C21.2965 19.6371 20.456 19.2658 19.5682 19.2248L18.4163 19.1678H8.05875L21.8685 5.35354L21.8115 4.20679C21.7908 3.31248 21.4265 2.46049 20.7943 1.82761C20.1621 1.19472 19.3105 0.829519 18.4163 0.807787L17.265 0.756037L0 0.748537L0.057 1.90279C0.0992307 2.78926 0.470198 3.6282 1.09753 4.25595C1.72486 4.8837 2.56356 5.25522 3.45 5.29804L4.60275 5.35504H14.9603L1.152 19.1693L1.20825 20.3235C1.23802 21.2144 1.60534 22.0607 2.23577 22.6908C2.86621 23.321 3.71261 23.6879 4.6035 23.7173V23.7158ZM65.6933 4.12354C67.5766 6.0078 68.7484 8.48675 69.0091 11.1381C69.2697 13.7894 68.6031 16.4491 67.1227 18.664C65.6423 20.879 63.4398 22.5121 60.8904 23.2853C58.341 24.0585 55.6023 23.9239 53.141 22.9044C50.6797 21.8849 48.648 20.0436 47.392 17.6941C46.136 15.3447 45.7334 12.6324 46.2528 10.0195C46.7722 7.40649 48.1815 5.05441 50.2406 3.36395C52.2997 1.67348 54.8811 0.749187 57.5452 0.748537C59.0586 0.747799 60.5572 1.04551 61.9553 1.62464C63.3535 2.20376 64.6237 3.05293 65.6933 4.12354ZM62.436 7.38004C63.4019 8.34598 64.0596 9.57665 64.3261 10.9164C64.5925 12.2562 64.4557 13.6449 63.933 14.9069C63.4102 16.1689 62.5249 17.2475 61.3891 18.0064C60.2533 18.7653 58.918 19.1704 57.552 19.1704C56.186 19.1704 54.8507 18.7653 53.7149 18.0064C52.5791 17.2475 51.6938 16.1689 51.1711 14.9069C50.6483 13.6449 50.5115 12.2562 50.7779 10.9164C51.0444 9.57665 51.7021 8.34598 52.668 7.38004C53.9637 6.08539 55.7204 5.35815 57.552 5.35815C59.3836 5.35815 61.1403 6.08539 62.436 7.38004ZM33.3877 0.748537C36.4425 0.750227 39.3715 1.96512 41.5306 4.12605C43.6898 6.28697 44.9022 9.21698 44.9014 12.2717C44.9005 15.3265 43.6864 18.2558 41.5261 20.4155C39.3658 22.5753 36.4361 23.7885 33.3814 23.7885C30.3266 23.7885 27.397 22.5753 25.2366 20.4155C23.0763 18.2558 21.8622 15.3265 21.8614 12.2717C21.8605 9.21698 23.073 6.28697 25.2321 4.12605C27.3913 1.96512 30.3203 0.750227 33.375 0.748537H33.3893H33.3877ZM38.2627 7.37629C39.2299 8.34169 39.889 9.57227 40.1566 10.9123C40.4242 12.2524 40.2884 13.6417 39.7662 14.9046C39.244 16.1674 38.359 17.247 37.2231 18.0067C36.0872 18.7664 34.7515 19.1722 33.385 19.1726C32.0185 19.173 30.6825 18.7681 29.5462 18.0091C28.4098 17.25 27.5241 16.171 27.0012 14.9085C26.4782 13.646 26.3415 12.2567 26.6083 10.9165C26.8751 9.57627 27.5334 8.34528 28.5 7.37929C29.7957 6.08464 31.5524 5.3574 33.384 5.3574C35.2156 5.3574 36.9723 6.08464 38.268 7.37929L38.2627 7.37629Z" fill="#303030"/>
</svg>
