<svg width="13" height="8" viewBox="0 0 13 8" fill="none" xmlns="http://www.w3.org/2000/svg">
<path d="M5.62598 7.63281C5.57067 7.57581 5.5237 7.51125 5.48682 7.44092L0.443848 2.26294C0.293346 2.10677 0.209473 1.89828 0.209473 1.6814C0.209473 1.46451 0.293346 1.25603 0.443848 1.09985C0.517171 1.02376 0.605387 0.963218 0.702637 0.921875C0.799887 0.880532 0.904092 0.859375 1.00977 0.859375C1.11544 0.859375 1.22013 0.880532 1.31738 0.921875C1.41463 0.963218 1.50285 1.02376 1.57617 1.09985L3.70898 3.29004L6.2168 5.86499L9.80908 2.17603L10.8569 1.09985C10.9303 1.02373 11.0184 0.96323 11.1157 0.921875C11.2131 0.88052 11.3176 0.859131 11.4233 0.859131C11.5291 0.859131 11.6341 0.88052 11.7314 0.921875C11.8288 0.96323 11.9168 1.02373 11.9902 1.09985C12.1405 1.25614 12.2241 1.46458 12.2241 1.6814C12.2241 1.89821 12.1405 2.10665 11.9902 2.26294L6.9458 7.44092C6.90908 7.51136 6.86258 7.57594 6.80713 7.63281C6.73099 7.71185 6.6392 7.77417 6.5376 7.81567C6.436 7.85717 6.3265 7.87715 6.2168 7.87402H6.19287C6.08703 7.87394 5.98217 7.85244 5.88477 7.81104C5.78736 7.76963 5.69949 7.70896 5.62598 7.63281Z" fill="#374D59"/>
</svg>
