<svg width="41" height="42" viewBox="0 0 41 42" fill="none" xmlns="http://www.w3.org/2000/svg">
<path d="M20.6425 41C24.5734 41 28.416 39.8343 31.6844 37.6504C34.9529 35.4665 37.5003 32.3625 39.0046 28.7308C40.5089 25.0991 40.9025 21.1029 40.1356 17.2475C39.3687 13.3922 37.4758 9.85084 34.6963 7.07127C31.9167 4.2917 28.3753 2.39882 24.5199 1.63194C20.6645 0.865057 16.6683 1.25851 13.0366 2.7628C9.40494 4.26709 6.3009 6.81456 4.117 10.083C1.93311 13.3514 0.767456 17.1941 0.767456 21.125C0.767456 26.3962 2.86146 31.4514 6.58875 35.1787C10.316 38.906 15.3713 41 20.6425 41Z" stroke="#303030" stroke-width="0.75"/>
<path d="M23.5225 21.1551L17.8824 26.8026C17.8054 26.8776 17.7443 26.9674 17.7031 27.0666C17.6618 27.1659 17.6411 27.2726 17.6424 27.3801C17.642 27.4886 17.663 27.5961 17.7042 27.6965C17.7454 27.7969 17.8059 27.8882 17.8824 27.9651L18.3775 28.4601C18.532 28.6135 18.7409 28.6996 18.9586 28.6996C19.1764 28.6996 19.3854 28.6135 19.5399 28.4601L26.26 21.7476C26.4138 21.5902 26.4999 21.3788 26.4999 21.1587C26.4999 20.9387 26.4138 20.7274 26.26 20.5701L19.5474 13.8651C19.4725 13.788 19.3827 13.7269 19.2834 13.6857C19.1841 13.6444 19.0774 13.6238 18.9699 13.6251C18.8614 13.6246 18.7539 13.6456 18.6535 13.6868C18.5531 13.7279 18.4619 13.7886 18.385 13.8651L17.8899 14.36C17.7362 14.5159 17.6501 14.7261 17.6501 14.9451C17.6501 15.164 17.7362 15.3742 17.8899 15.5301L23.5225 21.1551Z" fill="#303030"/>
</svg>
