<svg width="41" height="41" viewBox="0 0 41 41" fill="none" xmlns="http://www.w3.org/2000/svg">
<path d="M20.5175 40.25C24.4484 40.25 28.291 39.0843 31.5594 36.9004C34.8279 34.7165 37.3753 31.6125 38.8796 27.9808C40.3839 24.3491 40.7775 20.3529 40.0106 16.4975C39.2437 12.6421 37.3508 9.10081 34.5713 6.32124C31.7917 3.54167 28.2503 1.64879 24.3949 0.881908C20.5395 0.115026 16.5433 0.508475 12.9116 2.01277C9.27994 3.51706 6.1759 6.06453 3.992 9.33296C1.80811 12.6014 0.642456 16.444 0.642456 20.375C0.642456 25.6461 2.73646 30.7014 6.46375 34.4287C10.191 38.1559 15.2463 40.25 20.5175 40.25Z" fill="white"/>
<path d="M23.3975 20.4051L17.7574 26.0526C17.6804 26.1276 17.6193 26.2174 17.5781 26.3167C17.5368 26.4159 17.5161 26.5226 17.5174 26.6301C17.517 26.7386 17.538 26.8462 17.5792 26.9465C17.6204 27.0469 17.6809 27.1382 17.7574 27.2152L18.2525 27.7101C18.407 27.8635 18.6159 27.9496 18.8336 27.9496C19.0514 27.9496 19.2604 27.8635 19.4149 27.7101L26.135 20.9976C26.2888 20.8403 26.3749 20.6288 26.3749 20.4088C26.3749 20.1887 26.2888 19.9774 26.135 19.8201L19.4224 13.1151C19.3475 13.038 19.2577 12.9769 19.1584 12.9357C19.0591 12.8944 18.9524 12.8738 18.8449 12.8751C18.7364 12.8746 18.6289 12.8956 18.5285 12.9368C18.4281 12.978 18.3369 13.0386 18.26 13.1151L17.7649 13.6101C17.6112 13.766 17.5251 13.9761 17.5251 14.1951C17.5251 14.414 17.6112 14.6242 17.7649 14.7801L23.3975 20.4051Z" fill="#303030"/>
</svg>
