<svg width="41" height="41" viewBox="0 0 41 41" fill="none" xmlns="http://www.w3.org/2000/svg">
<path d="M20.6249 40.25C16.694 40.25 12.8514 39.0843 9.58298 36.9004C6.31455 34.7165 3.76708 31.6125 2.26279 27.9808C0.758497 24.3491 0.364957 20.3529 1.13184 16.4975C1.89872 12.6421 3.7916 9.10081 6.57117 6.32124C9.35074 3.54167 12.8922 1.64879 16.7475 0.881908C20.6029 0.115026 24.599 0.508475 28.2307 2.01277C31.8624 3.51706 34.9665 6.06453 37.1504 9.33296C39.3343 12.6014 40.4999 16.444 40.4999 20.375C40.4999 25.6461 38.406 30.7014 34.6787 34.4287C30.9514 38.1559 25.8961 40.25 20.6249 40.25Z" fill="white"/>
<path d="M17.745 20.4051L23.385 26.0526C23.4621 26.1276 23.5231 26.2174 23.5644 26.3167C23.6056 26.4159 23.6262 26.5226 23.625 26.6301C23.6254 26.7386 23.6045 26.8462 23.5633 26.9465C23.5221 27.0469 23.4615 27.1382 23.385 27.2152L22.89 27.7101C22.7355 27.8635 22.5265 27.9496 22.3087 27.9496C22.091 27.9496 21.882 27.8635 21.7275 27.7101L15.0075 20.9976C14.8537 20.8403 14.7675 20.6288 14.7675 20.4088C14.7675 20.1887 14.8537 19.9774 15.0075 19.8201L21.72 13.1151C21.7949 13.038 21.8848 12.9769 21.9841 12.9357C22.0834 12.8944 22.19 12.8738 22.2975 12.8751C22.406 12.8746 22.5135 12.8956 22.6139 12.9368C22.7143 12.978 22.8056 13.0386 22.8825 13.1151L23.3775 13.6101C23.5312 13.766 23.6174 13.9761 23.6174 14.1951C23.6174 14.414 23.5312 14.6242 23.3775 14.7801L17.745 20.4051Z" fill="#303030"/>
</svg>
