<svg width="41" height="42" viewBox="0 0 41 42" fill="none" xmlns="http://www.w3.org/2000/svg">
<path d="M17.7625 21.1552L23.4025 26.8027C23.5552 26.9563 23.6414 27.1637 23.6425 27.3802C23.6401 27.5987 23.5543 27.8081 23.4025 27.9653L22.9075 28.4602C22.8306 28.5367 22.7394 28.5972 22.639 28.6384C22.5386 28.6795 22.4311 28.7007 22.3226 28.7003C22.2151 28.7015 22.1084 28.6807 22.0091 28.6395C21.9098 28.5982 21.82 28.5373 21.7451 28.4602L15.025 21.7477C14.8712 21.5904 14.785 21.3789 14.785 21.1589C14.785 20.9388 14.8712 20.7276 15.025 20.5702L21.73 13.8652C21.8859 13.7113 22.0961 13.625 22.3151 13.625C22.5341 13.625 22.7442 13.7113 22.9 13.8652L23.395 14.3602C23.5487 14.5161 23.6349 14.7262 23.6349 14.9452C23.6349 15.1641 23.5487 15.3743 23.395 15.5302L17.7625 21.1552Z" fill="#303030"/>
<path d="M20.6425 41C24.5734 41 28.416 39.8343 31.6844 37.6504C34.9529 35.4665 37.5003 32.3625 39.0046 28.7308C40.5089 25.0991 40.9025 21.1029 40.1356 17.2475C39.3687 13.3922 37.4758 9.85084 34.6963 7.07127C31.9167 4.2917 28.3753 2.39882 24.5199 1.63194C20.6645 0.865057 16.6683 1.25851 13.0366 2.7628C9.40494 4.26709 6.3009 6.81456 4.117 10.083C1.93311 13.3514 0.767456 17.1941 0.767456 21.125C0.767456 26.3962 2.86146 31.4514 6.58875 35.1787C10.316 38.906 15.3713 41 20.6425 41Z" stroke="#303030" stroke-width="0.75"/>
</svg>
