<svg width="48" height="47" viewBox="0 0 48 47" fill="none" xmlns="http://www.w3.org/2000/svg">
<path d="M47.25 23.25C47.25 10.4094 36.8406 0 24 0C11.1594 0 0.75 10.4094 0.75 23.25C0.75 36.0906 11.1594 46.5 24 46.5C36.8406 46.5 47.25 36.0906 47.25 23.25Z" fill="black"/>
<path fill-rule="evenodd" clip-rule="evenodd" d="M16.122 13.6619C15.6555 13.8158 15.2322 14.0785 14.8871 14.4283C14.5421 14.778 14.2851 15.2048 14.1375 15.6734L13.9943 16.1129L14.0093 18.5444L14.0243 20.9759L14.181 20.9939C14.3724 20.9921 14.563 20.9695 14.7495 20.9264C15.0533 20.8694 15.36 20.8299 15.6683 20.8079C16.2503 20.7704 16.2983 20.7442 16.3433 20.4329C16.4004 20.1691 16.5145 19.921 16.6776 19.7059C16.8407 19.4908 17.0489 19.314 17.2875 19.1879C18.8269 18.8776 20.4109 18.8593 21.957 19.1339C22.2335 19.2572 22.4766 19.4446 22.666 19.6808C22.8554 19.9169 22.9857 20.1948 23.046 20.4914L23.121 20.7472H23.9933C24.9743 20.7472 24.8933 20.7839 25.0433 20.2627C25.1554 19.8688 25.4043 19.5279 25.7453 19.3012C26.2035 19.0012 26.3078 18.9854 28.3748 18.9854H30.2805L30.5955 19.1309C30.8719 19.2544 31.1148 19.4419 31.3042 19.678C31.4936 19.9141 31.624 20.1919 31.6845 20.4884L31.7595 20.7442L32.214 20.7877C32.4645 20.8117 32.8478 20.8627 33.066 20.8972C33.2822 20.9334 33.5003 20.957 33.7193 20.9677L33.975 20.9722L33.99 18.5407L34.005 16.1092L33.8595 15.6727C33.7107 15.2051 33.4536 14.7793 33.1089 14.43C32.7643 14.0807 32.3421 13.8178 31.8765 13.6627L31.419 13.5029H16.581L16.1235 13.6627M14.6775 21.7987C13.8843 22.0108 13.1614 22.4292 12.5823 23.0114C12.0032 23.5935 11.5885 24.3186 11.3805 25.1129C11.2055 27.7685 11.2055 30.4328 11.3805 33.0884C11.488 33.2643 11.6514 33.399 11.8444 33.471C12.0375 33.543 12.2492 33.5482 12.4455 33.4858C12.6419 33.4233 12.8117 33.2968 12.9277 33.1264C13.0436 32.9561 13.0991 32.7518 13.0853 32.5462C13.0853 32.0744 13.191 31.8284 13.4288 31.7459C13.7288 31.6409 34.335 31.6544 34.5878 31.7602C34.8195 31.8569 34.9065 32.0729 34.9065 32.5559C34.895 32.7607 34.9521 32.9635 35.0689 33.1321C35.1856 33.3008 35.3554 33.4256 35.5511 33.4869C35.7469 33.5481 35.9575 33.5422 36.1495 33.4702C36.3416 33.3981 36.5041 33.2641 36.6113 33.0892C36.7868 30.4336 36.7868 27.7693 36.6113 25.1137C36.4046 24.3144 35.9876 23.585 35.4038 23.0012C34.8199 22.4175 34.0904 22.0007 33.291 21.7942C32.601 21.6209 15.3548 21.6224 14.676 21.7942" fill="white"/>
</svg>
