<svg width="27" height="24" viewBox="0 0 27 24" fill="none" xmlns="http://www.w3.org/2000/svg">
<g opacity="0.2">
<path d="M12.4217 23.8249C10.6103 23.8248 8.8237 23.4026 7.20377 22.592C5.58383 21.7813 4.17505 20.6043 3.08911 19.1545C2.00317 17.7046 1.26997 16.0217 0.947603 14.2391C0.625232 12.4566 0.722617 10.6234 1.23197 8.88504C1.74131 7.14667 2.64866 5.55089 3.88205 4.22419C5.11544 2.89748 6.64087 1.87637 8.33756 1.24181C10.0342 0.607251 11.8555 0.3767 13.6568 0.568439C15.4581 0.760177 17.1899 1.36889 18.715 2.34639C18.8917 2.46158 19.0168 2.641 19.0637 2.84668C19.0966 3.00073 19.0833 3.16107 19.0252 3.30751C18.9672 3.45396 18.8671 3.57994 18.7376 3.6696C18.6081 3.75927 18.4549 3.80861 18.2974 3.81137C18.1399 3.81414 17.985 3.77023 17.8524 3.68517C15.9691 2.48058 13.7384 1.93719 11.5121 2.14072C9.28571 2.34425 7.19044 3.28309 5.55673 4.80921C3.92303 6.33532 2.84385 8.36186 2.48935 10.5692C2.13485 12.7765 2.52519 15.0391 3.59888 17C4.67257 18.9609 6.36847 20.5086 8.41913 21.399C10.4698 22.2894 12.7585 22.4719 14.9243 21.9176C17.0901 21.3633 19.0099 20.1038 20.3807 18.3377C21.7515 16.5717 22.4953 14.3995 22.495 12.1639C22.495 11.8324 22.4762 11.5024 22.4462 11.1807C22.438 11.0767 22.4484 10.972 22.477 10.8716C22.5082 10.7713 22.5593 10.6782 22.627 10.5979C22.6952 10.5174 22.7781 10.4507 22.8715 10.4014C22.9623 10.3524 23.062 10.3221 23.1647 10.3122C23.2697 10.302 23.3757 10.3125 23.4767 10.3429C23.5756 10.3745 23.6671 10.4254 23.746 10.4929C23.8278 10.5578 23.8946 10.6397 23.9417 10.7329C23.9906 10.8263 24.0217 10.9281 24.0333 11.0329C24.0698 11.4074 24.088 11.7866 24.088 12.1706C24.0846 15.2626 22.8546 18.227 20.668 20.413C18.4813 22.5991 15.5167 23.8283 12.4247 23.8309L12.4217 23.8249Z" fill="black"/>
<path d="M13.7485 14.8153C13.6435 14.8152 13.5395 14.7946 13.4424 14.7545C13.3467 14.7136 13.2595 14.6551 13.1853 14.582L8.41446 9.81129C8.34213 9.73649 8.28415 9.64904 8.24344 9.55329C8.20311 9.45697 8.18237 9.35358 8.18237 9.24915C8.18237 9.14473 8.20311 9.04134 8.24344 8.94502C8.28413 8.84926 8.34212 8.76181 8.41446 8.68702C8.48843 8.614 8.57546 8.5555 8.67099 8.51453C8.86676 8.4339 9.08642 8.4339 9.2822 8.51453C9.37881 8.55389 9.46637 8.61258 9.53946 8.68702L13.7478 12.8953L24.8477 1.79525C24.9212 1.72091 25.0089 1.66199 25.1054 1.62194C25.202 1.58189 25.3057 1.56153 25.4102 1.56202C25.5674 1.56224 25.721 1.60901 25.8516 1.69642C25.9822 1.78383 26.0841 1.90795 26.1443 2.05316C26.2045 2.19836 26.2202 2.35815 26.1897 2.51234C26.1592 2.66652 26.0837 2.80819 25.9727 2.91952L14.3155 14.5768C14.2401 14.6511 14.1505 14.7094 14.0522 14.7485C13.9573 14.7886 13.8553 14.809 13.7523 14.8085L13.7485 14.8153Z" fill="black"/>
</g>
</svg>
