<svg width="48" height="47" viewBox="0 0 48 47" fill="none" xmlns="http://www.w3.org/2000/svg">
<path d="M47.25 23.25C47.25 10.4094 36.8406 0 24 0C11.1594 0 0.75 10.4094 0.75 23.25C0.75 36.0906 11.1594 46.5 24 46.5C36.8406 46.5 47.25 36.0906 47.25 23.25Z" fill="black"/>
<path fill-rule="evenodd" clip-rule="evenodd" d="M19.7384 8.49229C19.3364 8.69479 19.2989 8.82454 19.2989 10.0343C19.2989 11.0093 19.3094 11.1248 19.4076 11.2868C19.4812 11.4113 19.5869 11.5138 19.7137 11.5833C19.8404 11.6529 19.9836 11.6871 20.1281 11.6823C20.2727 11.6774 20.4133 11.6338 20.5351 11.5559C20.6569 11.478 20.7556 11.3687 20.8206 11.2395C21.0002 10.4344 20.9932 9.59886 20.8004 8.7968C20.694 8.62168 20.5256 8.49303 20.3287 8.43647C20.1317 8.3799 19.9207 8.39957 19.7376 8.49155M19.0484 13.4633C14.0316 14.3475 11.7681 20.499 15.0974 24.2033L15.2946 24.4223L15.4446 24.2303C16.17 23.3064 17.1185 22.5821 18.2009 22.1258L18.4484 22.0343L18.5489 21.5843C18.903 20.1583 19.6505 18.8605 20.7063 17.8387C21.7621 16.8169 23.0836 16.1121 24.5204 15.8048C25.1444 15.6788 25.1451 15.675 24.6366 15.2003C23.8965 14.5082 23.0092 13.9926 22.0414 13.6925C21.0735 13.3923 20.0503 13.3152 19.0484 13.467M10.4339 13.857C10.3362 13.9089 10.25 13.9798 10.1803 14.0656C10.1106 14.1514 10.0589 14.2504 10.0281 14.3566C9.99743 14.4628 9.98837 14.5741 10.0015 14.6838C10.0147 14.7936 10.0497 14.8996 10.1046 14.9955C10.7038 15.5684 11.4356 15.9838 12.2346 16.2045C12.3513 16.2131 12.4685 16.1946 12.5769 16.1505C12.6853 16.1064 12.782 16.0379 12.8597 15.9503C12.9373 15.8627 12.9937 15.7584 13.0245 15.6455C13.0552 15.5326 13.0596 15.4142 13.0371 15.2993C12.9906 14.9535 12.8331 14.808 11.9481 14.2958C11.0219 13.7588 10.7691 13.686 10.4339 13.857ZM29.1186 13.8263C28.5226 14.1327 27.9464 14.4764 27.3936 14.8553C27.2773 14.9775 27.2019 15.133 27.1781 15.3C27.1543 15.4671 27.1832 15.6374 27.2608 15.7873C27.3384 15.9371 27.4609 16.059 27.611 16.136C27.7612 16.2129 27.9317 16.2411 28.0986 16.2165C28.8127 15.9218 29.4794 15.5232 30.0771 15.0338C30.1674 14.8905 30.211 14.7227 30.2018 14.5536C30.1925 14.3844 30.131 14.2224 30.0257 14.0897C29.9204 13.9571 29.7765 13.8604 29.6139 13.8131C29.4512 13.7657 29.2779 13.7701 29.1179 13.8255M25.0799 17.3625C23.7577 17.596 22.5473 18.253 21.6311 19.2344C20.715 20.2159 20.1428 21.4687 20.0009 22.8038L19.9259 23.3798L19.5696 23.4458C18.8615 23.5865 18.1968 23.8928 17.6298 24.3397C17.0627 24.7865 16.6095 25.3612 16.3071 26.0168C15.9981 26.671 15.8469 27.3886 15.8659 28.1119C15.8849 28.8351 16.0734 29.5438 16.4164 30.1809C16.7593 30.818 17.2471 31.3656 17.8404 31.7797C18.4336 32.1938 19.1159 32.4628 19.8321 32.565C20.7321 32.694 33.1139 32.6123 33.5991 32.4735C35.0233 32.1184 36.2637 31.2447 37.0776 30.0233C37.6379 29.1741 37.9623 28.1912 38.0177 27.1753C38.0731 26.1595 37.8574 25.1472 37.3928 24.2421C36.9282 23.337 36.2314 22.5717 35.3737 22.0245C34.516 21.4774 33.5282 21.1681 32.5116 21.1283L31.8366 21.0968L31.6259 20.6805C31.0291 19.5028 30.0721 18.5463 28.8941 17.95C27.7161 17.3538 26.3786 17.1491 25.0761 17.3655M11.8746 23.7668C10.0416 24.7523 9.73113 25.0973 10.1054 25.7333C10.3814 26.2028 10.7976 26.2583 11.4126 25.9163C12.9509 25.0553 12.9989 25.0163 13.0371 24.5663C13.049 24.4235 13.023 24.2802 12.9617 24.1507C12.9004 24.0213 12.8059 23.9103 12.6879 23.8291C12.5699 23.7479 12.4326 23.6992 12.2898 23.6882C12.1469 23.6771 12.0037 23.704 11.8746 23.766" fill="white"/>
</svg>
