<svg width="48" height="47" viewBox="0 0 48 47" fill="none" xmlns="http://www.w3.org/2000/svg">
<path d="M47.25 23.75C47.25 10.9094 36.8406 0.5 24 0.5C11.1594 0.5 0.75 10.9094 0.75 23.75C0.75 36.5906 11.1594 47 24 47C36.8406 47 47.25 36.5906 47.25 23.75Z" fill="black"/>
<path d="M34.4827 21.5622L25.4422 12.5202C25.253 12.3303 25.0282 12.1796 24.7806 12.0768C24.5331 11.974 24.2677 11.921 23.9996 11.921C23.7315 11.921 23.4661 11.974 23.2185 12.0768C22.971 12.1796 22.7461 12.3303 22.557 12.5202L13.521 21.5555L13.512 21.5645C13.2325 21.8444 13.0406 22.1997 12.9597 22.587C12.8789 22.9743 12.9126 23.3767 13.0567 23.7451C13.2009 24.1135 13.4492 24.4319 13.7714 24.6615C14.0936 24.891 14.4757 25.0218 14.871 25.0377H15.294V31.6895C15.2944 32.3227 15.5459 32.9299 15.9935 33.3779C16.441 33.8258 17.048 34.078 17.6812 34.079H21.2175C21.3901 34.0784 21.5554 34.0093 21.6771 33.887C21.7989 33.7647 21.8672 33.5991 21.867 33.4265V28.214C21.8674 27.9251 21.9823 27.6483 22.1866 27.4441C22.3909 27.2399 22.6679 27.1252 22.9567 27.125H25.0447C25.3334 27.1254 25.6102 27.2402 25.8143 27.4444C26.0185 27.6485 26.1333 27.9253 26.1337 28.214V33.4265C26.1336 33.512 26.1504 33.5968 26.183 33.6759C26.2157 33.755 26.2636 33.8269 26.3241 33.8875C26.3845 33.9481 26.4563 33.9962 26.5354 34.0291C26.6144 34.0619 26.6991 34.0789 26.7847 34.079H30.321C30.9533 34.0776 31.5593 33.8258 32.0064 33.3787C32.4535 32.9315 32.7053 32.3255 32.7067 31.6932V25.0467H33.0405C33.4437 25.0464 33.8378 24.9267 34.173 24.7026C34.5082 24.4785 34.7695 24.1602 34.924 23.7877C35.0785 23.4152 35.1191 23.0054 35.0408 22.6098C34.9626 22.2143 34.7689 21.8508 34.4842 21.5652L34.4827 21.5622Z" fill="white"/>
</svg>
