<svg width="48" height="47" viewBox="0 0 48 47" fill="none" xmlns="http://www.w3.org/2000/svg">
<path d="M47.25 23.5C47.25 10.6594 36.8406 0.25 24 0.25C11.1594 0.25 0.75 10.6594 0.75 23.5C0.75 36.3406 11.1594 46.75 24 46.75C36.8406 46.75 47.25 36.3406 47.25 23.5Z" fill="black"/>
<path d="M23.7277 36.4555C26.344 36.4555 28.9014 35.6797 31.0767 34.2262C33.252 32.7727 34.9474 30.7069 35.9486 28.2898C36.9498 25.8727 37.2117 23.2131 36.7013 20.6472C36.1909 18.0812 34.9311 15.7243 33.0812 13.8743C31.2312 12.0244 28.8743 10.7646 26.3084 10.2542C23.7424 9.74378 21.0828 10.0057 18.6657 11.0069C16.2487 12.0081 14.1828 13.7035 12.7293 15.8788C11.2758 18.0541 10.5 20.6116 10.5 23.2278C10.5 26.736 11.8936 30.1005 14.3743 32.5812C16.855 35.0619 20.2195 36.4555 23.7277 36.4555ZM34.125 20.8878C33.021 20.2443 33.3 20.98 33.3 20.98L34.0358 21.6235C34.7715 22.267 35.3228 22.543 35.0475 23.4408C34.7722 24.3385 34.3103 23.5488 33.3975 24.2875C32.4848 25.0263 34.5 25.207 34.5923 26.3125C34.6845 27.418 33.4897 26.8638 32.937 27.9678C32.3843 29.0718 32.8447 30.2695 32.574 31.2783C32.3032 32.287 30.0015 33.6693 29.1652 34.1283C28.329 34.5873 28.8975 33.1165 29.1652 32.1033C29.433 31.09 28.5292 29.989 28.5292 28.15C28.5292 26.311 27.978 26.863 26.3228 26.863C24.6675 26.863 23.9317 25.9435 23.748 24.1968C23.7754 23.4072 23.9795 22.6339 24.3454 21.9338C24.7113 21.2336 25.2297 20.6245 25.8622 20.1513C26.2158 19.7983 26.6657 19.5577 27.1556 19.4596C27.6454 19.3615 28.1533 19.4104 28.6155 19.6C29.6272 20.1513 29.994 20.704 31.098 20.704C32.202 20.704 32.2005 20.341 32.8447 19.879C33.489 19.417 31.9252 18.8673 31.0057 18.9633C30.0863 19.0593 30.27 18.4083 29.0753 17.9455C27.8805 17.4828 27.42 18.406 27.0502 18.589C26.6805 18.772 25.395 19.3248 25.2667 18.589C25.1385 17.8533 25.9462 17.764 26.7743 17.764C27.6022 17.764 26.8665 17.1205 26.5897 16.66C26.313 16.1995 25.7648 16.1995 25.3635 15.841C24.9623 15.4825 25.848 14.821 26.7728 15.04C27.6975 15.259 27.324 15.9235 28.3358 15.8328C29.3475 15.742 28.3358 14.821 28.3358 13.9308C28.3358 13.0405 29.4398 13.0743 30.1747 12.7188C30.9097 12.3633 31.8323 14.2728 32.4795 15.0438C32.6925 15.298 32.997 15.1855 33.3083 14.923C34.976 16.8376 36.0285 19.2101 36.3285 21.7315C35.0122 22.2183 35.1 21.4473 34.125 20.8878ZM23.7277 10.5393C24.2291 10.5403 24.73 10.5712 25.2277 10.6315C25.111 10.9447 24.9501 11.2397 24.75 11.5075C24.75 11.5075 24.3893 12.7 23.5568 12.7938C22.7242 12.8875 21.7178 12.7938 21.255 13.5295C20.7922 14.2653 20.892 15.5545 20.1525 14.8165C19.413 14.0785 20.0648 14.0253 19.3275 13.2678C18.5903 12.5103 18.408 12.5178 18.0405 12.5178C17.9325 12.5178 17.8088 12.3303 17.712 12.0573C19.5596 11.0584 21.6274 10.5367 23.7277 10.5393ZM16.0538 13.1298C16.0335 13.2618 16.1497 13.4545 16.7153 13.6893C17.8192 14.1498 18.075 15.0603 17.5635 15.025C17.052 14.9898 14.9895 15.2673 16.8885 15.8223C18.7875 16.3773 18.6308 17.0223 17.7885 17.2975C16.9463 17.5728 17.124 16.375 16.9395 17.575C16.755 18.775 16.575 18.676 15.9705 18.8605C15.366 19.045 14.274 19.9645 14.274 20.6073C14.274 21.25 13.911 21.6108 14.637 22.162C15.363 22.7133 14.4068 23.7228 14.0603 22.987C13.653 22.1118 13.3537 21.619 12.8948 21.5268C12.4358 21.4345 11.8448 22.1703 12.8948 22.9053C13.9448 23.6403 13.9995 24.1 13.9995 24.6535C13.9995 25.207 14.763 25.2048 15.3457 25.114C15.9285 25.0233 17.1292 26.5848 17.541 27.2283C18.0444 27.9964 18.8127 28.5526 19.6995 28.7913C20.7113 29.0673 21.078 29.7108 20.5245 30.1698C19.971 30.6288 19.881 31.7328 19.2375 32.0088C18.594 32.2848 18.5017 33.1113 18.1335 33.4795C17.8943 33.7228 17.6912 33.9991 17.5305 34.3C16.985 33.9922 16.4629 33.6448 15.9682 33.2605C15.9532 33.1788 15.9367 33.0955 15.9292 33.0183C15.837 32.0988 15.7448 30.9933 15.1935 30.5358C14.6386 30.0563 14.2518 29.4119 14.0895 28.6968C13.9065 27.961 14.3655 26.8578 13.9973 26.122C13.629 25.3863 13.6342 26.0763 12.8932 25.0428C12.4425 24.4554 12.0411 23.8318 11.6932 23.1783C11.4182 22.5821 11.245 21.944 11.181 21.2905C11.6877 18.0421 13.4344 15.1167 16.0538 13.1298Z" fill="white"/>
</svg>
