<svg width="59" height="60" viewBox="0 0 59 60" fill="none" xmlns="http://www.w3.org/2000/svg">
<path d="M29.5 59.2497C22.7519 59.2456 16.2126 56.909 10.99 52.6357C5.76735 48.3624 2.18245 42.4152 0.84258 35.8014C-0.497294 29.1877 0.490242 22.3141 3.6379 16.345C6.78555 10.376 11.8998 5.67856 18.1143 3.04844C25.2622 0.0287542 33.3169 -0.0277572 40.5065 2.89134C47.6961 5.81044 53.4316 11.466 56.4512 18.6139C59.4709 25.7619 59.5274 33.8166 56.6083 41.0062C53.6893 48.1957 48.0337 53.9312 40.8857 56.9509C37.2838 58.4754 33.4113 59.2573 29.5 59.2497ZM33.5732 36.2757L39.0362 41.7357C39.1741 41.8737 39.3377 41.9833 39.5179 42.058C39.6981 42.1328 39.8912 42.1713 40.0863 42.1714H40.093C40.3867 42.171 40.6736 42.0836 40.9177 41.9202C41.1617 41.7568 41.3519 41.5248 41.4642 41.2535C41.5766 40.9822 41.606 40.6836 41.5488 40.3956C41.4917 40.1075 41.3504 39.8428 41.143 39.6349L35.6792 34.1712C37.1608 32.1582 37.8271 29.6598 37.5447 27.1763C37.2623 24.6929 36.052 22.4079 34.1563 20.7789C32.2606 19.15 29.8194 18.2975 27.3217 18.3921C24.8241 18.4867 22.4544 19.5215 20.6874 21.2891C18.9203 23.0568 17.8864 25.4269 17.7926 27.9246C17.6989 30.4222 18.5523 32.8631 20.1819 34.7583C21.8116 36.6534 24.097 37.8629 26.5805 38.1444C29.0641 38.4259 31.5623 37.7587 33.5747 36.2764L33.5732 36.2757ZM27.7105 35.2362C26.8003 35.2362 25.8991 35.0569 25.0582 34.7086C24.2173 34.3603 23.4533 33.8498 22.8097 33.2062C22.1661 32.5626 21.6556 31.7986 21.3073 30.9577C20.959 30.1168 20.7797 29.2156 20.7797 28.3054C20.7797 27.3953 20.959 26.494 21.3073 25.6532C21.6556 24.8123 22.1661 24.0482 22.8097 23.4047C23.4533 22.7611 24.2173 22.2506 25.0582 21.9023C25.8991 21.554 26.8003 21.3747 27.7105 21.3747V21.3792C29.0668 21.3788 30.3934 21.7765 31.5257 22.5231C32.6581 23.2697 33.5463 24.3323 34.0803 25.579C34.6143 26.8258 34.7705 28.2019 34.5296 29.5367C34.2886 30.8714 33.6612 32.106 32.725 33.0874C32.6813 33.1221 32.6397 33.1594 32.6005 33.1992C32.5608 33.238 32.5238 33.2793 32.4895 33.3229C31.2031 34.5531 29.4912 35.2386 27.7113 35.2362H27.7105Z" fill="#303030"/>
</svg>
