<svg width="48" height="47" viewBox="0 0 48 47" fill="none" xmlns="http://www.w3.org/2000/svg">
<path d="M47.25 23.4814C47.25 10.6408 36.8406 0.231445 24 0.231445C11.1594 0.231445 0.75 10.6408 0.75 23.4814C0.75 36.3221 11.1594 46.7314 24 46.7314C36.8406 46.7314 47.25 36.3221 47.25 23.4814Z" fill="black"/>
<path d="M23.9459 36.122H23.9361C20.7884 36.1214 17.7535 34.9496 15.4221 32.8347C13.0871 30.7218 11.6222 27.8153 11.3129 24.6815C10.9992 21.5493 11.8622 18.4126 13.7339 15.8817C15.6022 13.3483 18.3466 11.6011 21.4326 10.9805C22.2628 10.814 23.1075 10.7306 23.9541 10.7315C26.6467 10.7277 29.2697 11.5861 31.4391 13.181C33.6492 14.7888 35.2763 17.0719 36.0749 19.6857C37.005 22.6929 36.7823 25.9387 35.4501 28.7907C34.122 31.6445 31.7795 33.9019 28.8786 35.1237C27.318 35.7839 25.6404 36.1234 23.9459 36.122ZM21.0074 25.547C20.8692 25.5479 20.7345 25.5907 20.6211 25.6697C20.5077 25.7487 20.4209 25.8602 20.3721 25.9895C20.2796 26.4965 20.3196 27.0189 20.4882 27.5059C20.6568 27.993 20.9482 28.4283 21.3344 28.7697L21.3584 28.7937C21.7589 29.195 21.7589 29.195 22.7931 29.6877L22.8726 29.7252C22.9904 29.7815 22.9979 29.8092 23.0264 30.311C23.0699 31.0782 23.2979 31.391 23.8139 31.391C24.3299 31.391 24.5511 31.091 24.5984 30.3155C24.6299 29.8137 24.6389 29.7807 24.7551 29.7245L24.8301 29.6885C25.8689 29.195 25.8689 29.195 26.2664 28.7952L26.2934 28.7675C26.773 28.3153 27.1113 27.7339 27.2674 27.0936C27.4235 26.4532 27.3908 25.7813 27.1731 25.1592C26.9099 24.4881 26.4618 23.9054 25.8807 23.4787C25.2996 23.0521 24.6095 22.7989 23.8904 22.7487H23.8311C23.2933 22.7487 22.7775 22.5357 22.3964 22.1562C22.114 21.8568 21.9259 21.4809 21.8553 21.0754C21.7848 20.6699 21.835 20.2527 21.9996 19.8755C22.1658 19.5394 22.4221 19.2562 22.74 19.0575C23.0579 18.8589 23.4248 18.7525 23.7996 18.7505C23.9163 18.7506 24.0327 18.7609 24.1476 18.7812C24.5759 18.8579 24.9679 19.0709 25.2652 19.3885C25.5626 19.7061 25.7493 20.1113 25.7976 20.5437C25.8794 21.194 26.1216 21.4842 26.5836 21.4842H26.6151C26.7532 21.4826 26.8876 21.4396 27.0008 21.3607C27.1141 21.2818 27.2011 21.1707 27.2504 21.0417C27.3425 20.5347 27.3023 20.0125 27.1336 19.5256C26.9649 19.0387 26.6734 18.6035 26.2874 18.2622L26.2634 18.2382C25.8636 17.837 25.8636 17.837 24.8286 17.3442L24.7491 17.3067C24.6321 17.2505 24.6246 17.2227 24.5954 16.7202C24.5646 16.1555 24.4949 15.962 24.2541 15.7797C24.1188 15.6697 23.9514 15.6066 23.7771 15.5997C23.3609 15.5997 23.0646 16.037 23.0234 16.7142C22.9919 17.216 22.9829 17.249 22.8666 17.3045L22.7864 17.342C21.7521 17.8332 21.7521 17.8332 21.3546 18.2337L21.3291 18.2592C20.8494 18.7112 20.511 19.2926 20.3548 19.933C20.1987 20.5734 20.2315 21.2453 20.4494 21.8675C20.7126 22.5383 21.1605 23.1208 21.7413 23.5474C22.322 23.9741 23.0118 24.2274 23.7306 24.278H23.7989C24.1791 24.2792 24.5514 24.3867 24.8738 24.5883C25.1962 24.7898 25.4559 25.0774 25.6236 25.4187C25.8436 25.9758 25.8436 26.5956 25.6236 27.1527C25.4576 27.4888 25.2012 27.772 24.8833 27.9707C24.5654 28.1694 24.1985 28.2757 23.8236 28.2777C23.7047 28.2777 23.586 28.2671 23.4689 28.2462C23.0403 28.1685 22.6485 27.9541 22.3521 27.635C22.0557 27.3159 21.8708 26.9093 21.8249 26.4762C21.7461 25.8342 21.5046 25.5485 21.0434 25.5485L21.0074 25.547Z" fill="white"/>
</svg>
