<svg width="48" height="47" viewBox="0 0 48 47" fill="none" xmlns="http://www.w3.org/2000/svg">
<path d="M47.25 23.7314C47.25 10.8908 36.8406 0.481445 24 0.481445C11.1594 0.481445 0.75 10.8908 0.75 23.7314C0.75 36.5721 11.1594 46.9814 24 46.9814C36.8406 46.9814 47.25 36.5721 47.25 23.7314Z" fill="black"/>
<path fill-rule="evenodd" clip-rule="evenodd" d="M22.5014 11.0647C19.6657 11.3891 17.0221 12.6598 14.9974 14.6715C12.9727 16.6832 11.685 19.3185 11.3423 22.1521C10.9996 24.9856 11.6219 27.852 13.1086 30.2884C14.5954 32.7247 16.8599 34.589 19.5365 35.5801C22.213 36.5712 25.1455 36.6313 27.8605 35.7507C30.5755 34.8701 32.9144 33.1003 34.4998 30.7269C36.0851 28.3535 36.8243 25.515 36.5981 22.6698C36.3718 19.8246 35.1932 17.1387 33.2526 15.0457C31.8985 13.5852 30.2198 12.4639 28.3521 11.7723C26.4844 11.0807 24.4801 10.8383 22.5014 11.0647ZM30.1979 19.3897C30.396 19.533 30.5383 19.7406 30.6005 19.977C30.6628 20.2135 30.6411 20.4642 30.5391 20.6864C30.3891 20.9632 23.3871 27.9412 23.1584 28.0364C22.9109 28.134 22.6356 28.134 22.3881 28.0364C20.993 26.7937 19.6682 25.4741 18.4199 24.0839C18.3398 23.9059 18.3123 23.7087 18.3407 23.5156C18.369 23.3225 18.4519 23.1415 18.5797 22.9939C18.7074 22.8464 18.8747 22.7384 19.0618 22.6828C19.2489 22.6271 19.448 22.6262 19.6356 22.6799C19.8006 22.7249 20.0744 22.9724 21.3029 24.2017L22.7736 25.6709L25.9236 22.5209C27.8804 20.5642 29.1419 19.3424 29.2476 19.2959C29.4027 19.2382 29.5691 19.2173 29.7336 19.2349C29.8981 19.2525 30.0563 19.308 30.1956 19.3972" fill="white"/>
</svg>
