<svg width="48" height="48" viewBox="0 0 48 48" fill="none" xmlns="http://www.w3.org/2000/svg">
<path d="M47.25 24.2031C47.25 11.3625 36.8406 0.953125 24 0.953125C11.1594 0.953125 0.75 11.3625 0.75 24.2031C0.75 37.0437 11.1594 47.4531 24 47.4531C36.8406 47.4531 47.25 37.0437 47.25 24.2031Z" fill="black"/>
<path d="M23.9062 38.2641C20.8049 38.2643 17.7995 37.1892 15.402 35.2219C13.0046 33.2546 11.3634 30.5169 10.7582 27.4752C10.153 24.4335 10.6212 21.2761 12.083 18.5409C13.5448 15.8058 15.9098 13.6621 18.775 12.4752C21.6402 11.2882 24.8283 11.1315 27.796 12.0317C30.7638 12.9318 33.3277 14.8332 35.0507 17.4118C36.7738 19.9904 37.5494 23.0866 37.2455 26.173C36.9416 29.2594 35.5769 32.1449 33.3839 34.3378C30.8703 36.8515 27.4611 38.2638 23.9062 38.2641ZM31.1062 17.5858L21.2272 22.1803L16.6327 32.0616L26.5132 27.4656L31.1062 17.5858ZM23.8702 26.4156C23.5553 26.4156 23.2474 26.3222 22.9856 26.1473C22.7237 25.9723 22.5197 25.7236 22.3991 25.4327C22.2786 25.1417 22.2471 24.8216 22.3085 24.5127C22.37 24.2038 22.5216 23.9201 22.7443 23.6975C22.967 23.4748 23.2507 23.3231 23.5596 23.2617C23.8684 23.2003 24.1886 23.2318 24.4795 23.3523C24.7705 23.4728 25.0191 23.6769 25.1941 23.9387C25.3691 24.2006 25.4624 24.5084 25.4624 24.8233C25.4624 25.2456 25.2947 25.6506 24.9961 25.9492C24.6975 26.2478 24.2925 26.4156 23.8702 26.4156Z" fill="white"/>
</svg>
