<svg width="48" height="47" viewBox="0 0 48 47" fill="none" xmlns="http://www.w3.org/2000/svg">
<path d="M47.25 23.25C47.25 10.4094 36.8406 0 24 0C11.1594 0 0.75 10.4094 0.75 23.25C0.75 36.0906 11.1594 46.5 24 46.5C36.8406 46.5 47.25 36.0906 47.25 23.25Z" fill="black"/>
<path fill-rule="evenodd" clip-rule="evenodd" d="M14.61 11.9328C14.0991 12.1051 13.6418 12.4073 13.2831 12.8099C12.9244 13.2124 12.6765 13.7013 12.564 14.2286C12.4477 14.7813 12.4477 32.4086 12.564 32.9628C12.6805 33.4953 12.9337 33.9883 13.2986 34.3932C13.6636 34.7981 14.1277 35.101 14.6452 35.2721L15.0607 35.4041H32.3752L32.7907 35.2728C33.3096 35.1032 33.7751 34.8007 34.1409 34.3955C34.5066 33.9902 34.76 33.4963 34.8757 32.9628C34.992 32.4101 34.992 14.7828 34.8757 14.2286C34.7595 13.6948 34.5056 13.2008 34.1391 12.7956C33.7726 12.3905 33.3065 12.0884 32.787 11.9193L32.3752 11.7881H15.0322L14.6115 11.9336M23.1285 17.5586C23.862 17.8353 23.988 19.6541 23.3047 20.1146C23.1805 20.1901 23.0382 20.2311 22.8928 20.2332C22.7474 20.2353 22.604 20.1985 22.4776 20.1266C22.3512 20.0547 22.2462 19.9503 22.1737 19.8242C22.1012 19.6982 22.0636 19.555 22.065 19.4096L22.0305 19.1306H20.6197L20.6332 21.3978L20.6467 23.6651L20.8305 23.7116C21.01 23.757 21.1681 23.8636 21.2777 24.0129C21.3872 24.1622 21.4414 24.345 21.4308 24.5299C21.4203 24.7148 21.3457 24.8903 21.2198 25.0262C21.094 25.162 20.9248 25.2499 20.7412 25.2746C20.0069 25.3885 19.2569 25.3492 18.5385 25.1591C18.4043 25.0751 18.2982 24.9531 18.2337 24.8086C18.1691 24.664 18.149 24.5036 18.176 24.3476C18.2029 24.1917 18.2757 24.0472 18.385 23.9328C18.4943 23.8183 18.6352 23.7389 18.7897 23.7048L18.9675 23.6688L18.981 21.4008L18.9945 19.1328H17.5245V19.3818C17.5341 19.5388 17.4976 19.6951 17.4193 19.8315C17.341 19.9678 17.2244 20.0782 17.084 20.149C16.9436 20.2198 16.7855 20.2479 16.6293 20.2298C16.4732 20.2117 16.3257 20.1482 16.2052 20.0471C15.6667 19.5408 15.7747 17.9216 16.3672 17.6223L16.6012 17.5046H19.7902C21.9105 17.5046 23.0272 17.5233 23.1255 17.5601M31.0717 17.6223C31.2029 17.6825 31.3147 17.7778 31.3948 17.8978C31.475 18.0177 31.5202 18.1575 31.5256 18.3017C31.531 18.4458 31.4962 18.5886 31.4252 18.7142C31.3542 18.8397 31.2498 18.9431 31.1235 19.0128C29.554 19.1987 27.968 19.1987 26.3985 19.0128C26.2722 18.9431 26.1678 18.8397 26.0968 18.7142C26.0258 18.5886 25.991 18.4458 25.9964 18.3017C26.0018 18.1575 26.047 18.0177 26.1272 17.8978C26.2073 17.7778 26.3191 17.6825 26.4502 17.6223C26.6812 17.5061 26.7097 17.5046 28.7617 17.5046C30.8137 17.5046 30.8422 17.5046 31.0732 17.6223M31.0732 20.6801C31.2068 20.7459 31.3192 20.8477 31.3978 20.9741C31.4764 21.1005 31.5181 21.2464 31.5181 21.3952C31.5181 21.5441 31.4764 21.6899 31.3978 21.8163C31.3192 21.9427 31.2068 22.0445 31.0732 22.1103C30.8422 22.2266 30.8137 22.2281 28.7617 22.2281C26.7097 22.2281 26.6812 22.2281 26.4502 22.1103C26.3191 22.0502 26.2073 21.9549 26.1272 21.8349C26.047 21.715 26.0018 21.5752 25.9964 21.431C25.991 21.2869 26.0258 21.1441 26.0968 21.0185C26.1678 20.8929 26.2722 20.7895 26.3985 20.7198C27.9515 20.5549 29.5176 20.5416 31.0732 20.6801ZM30.8887 23.7041C31.0685 23.7444 31.2289 23.8456 31.3426 23.9906C31.4563 24.1355 31.5164 24.3154 31.5127 24.4996C31.509 24.6838 31.4417 24.8611 31.3223 25.0014C31.2028 25.1416 31.0385 25.2363 30.8572 25.2693C29.462 25.3446 28.0637 25.3446 26.6685 25.2693C26.4895 25.2362 26.3272 25.143 26.2082 25.0052C26.0892 24.8674 26.0207 24.6933 26.014 24.5113C26.0073 24.3294 26.0627 24.1506 26.1712 24.0045C26.2797 23.8583 26.4347 23.7534 26.6107 23.7071C28.0348 23.6342 29.4617 23.6342 30.8857 23.7071M30.8857 27.0671C31.066 27.107 31.2268 27.2081 31.3409 27.3532C31.455 27.4983 31.5153 27.6784 31.5116 27.863C31.5079 28.0475 31.4403 28.2251 31.3205 28.3655C31.2007 28.5059 31.0359 28.6004 30.8542 28.6331C30.4875 28.7081 16.9522 28.7081 16.5862 28.6331C16.4067 28.6001 16.2438 28.5067 16.1245 28.3685C16.0053 28.2302 15.9368 28.0554 15.9305 27.8729C15.9242 27.6905 15.9804 27.5113 16.0899 27.3652C16.1993 27.219 16.3554 27.1146 16.5322 27.0693C16.8 26.9943 30.612 26.9906 30.8895 27.0693M30.8895 30.4293C31.0697 30.4693 31.2305 30.5704 31.3446 30.7155C31.4587 30.8606 31.519 31.0407 31.5153 31.2252C31.5116 31.4098 31.4441 31.5873 31.3243 31.7277C31.2044 31.8681 31.0397 31.9627 30.858 31.9953C30.4912 32.0703 16.956 32.0703 16.59 31.9953C16.411 31.9622 16.2487 31.869 16.1297 31.7312C16.0107 31.5934 15.9422 31.4193 15.9355 31.2373C15.9288 31.0554 15.9842 30.8766 16.0927 30.7305C16.2012 30.5843 16.3562 30.4794 16.5322 30.4331C16.8 30.3581 30.612 30.3543 30.8895 30.4331" fill="white"/>
</svg>
