<svg width="21" height="18" viewBox="0 0 21 18" fill="none" xmlns="http://www.w3.org/2000/svg">
<path d="M1.575 7.94072H18.0653L11.751 1.92722C11.6722 1.85237 11.6089 1.76273 11.5648 1.66342C11.5206 1.56411 11.4965 1.45708 11.4937 1.34843C11.4909 1.23979 11.5095 1.13166 11.5485 1.03022C11.5875 0.928779 11.6461 0.836014 11.721 0.757221C11.7959 0.678428 11.8855 0.615149 11.9848 0.570999C12.0841 0.526849 12.1911 0.502691 12.2998 0.499906C12.4084 0.49712 12.5166 0.515761 12.618 0.554764C12.7194 0.593766 12.8122 0.652368 12.891 0.727221L20.1 7.59872C20.2553 7.75323 20.3783 7.93713 20.4618 8.13968C20.5453 8.34223 20.5876 8.55938 20.5863 8.77846C20.5849 8.99754 20.54 9.21416 20.4541 9.41568C20.3681 9.61721 20.2429 9.7996 20.0857 9.95222L12.8857 16.8065C12.807 16.8813 12.7142 16.9399 12.6128 16.9789C12.5113 17.0179 12.4032 17.0366 12.2945 17.0338C12.1859 17.031 12.0789 17.0068 11.9796 16.9627C11.8802 16.9185 11.7906 16.8553 11.7157 16.7765C11.6409 16.6977 11.5823 16.6049 11.5433 16.5035C11.5043 16.402 11.4856 16.2939 11.4884 16.1853C11.4912 16.0766 11.5154 15.9696 11.5595 15.8703C11.6037 15.771 11.667 15.6813 11.7457 15.6065L18.0863 9.59222H1.575C1.3562 9.59222 1.14635 9.5053 0.991637 9.35058C0.836919 9.19587 0.75 8.98602 0.75 8.76722C0.75 8.54842 0.836919 8.33857 0.991637 8.18386C1.14635 8.02914 1.3562 7.94222 1.575 7.94222V7.94072Z" fill="black"/>
</svg>
