<svg width="38" height="38" viewBox="0 0 38 38" fill="none" xmlns="http://www.w3.org/2000/svg">
<path d="M37.5 19.126C37.5 8.77064 29.1053 0.375977 18.75 0.375977C8.39466 0.375977 0 8.77064 0 19.126C0 29.4813 8.39466 37.876 18.75 37.876C29.1053 37.876 37.5 29.4813 37.5 19.126Z" fill="black"/>
<path fill-rule="evenodd" clip-rule="evenodd" d="M24.4673 11.3386C23.4083 11.5636 22.9358 11.8763 21.4193 13.3786L20.2808 14.5088L19.7881 14.4008C19.5173 14.3416 19.2518 14.2823 19.1978 14.2696C19.1063 14.2478 19.1041 14.2388 19.1641 14.1233C19.2084 14.0166 19.229 13.9016 19.2245 13.7862C19.2201 13.6707 19.1906 13.5576 19.1382 13.4547C19.0858 13.3517 19.0117 13.2614 18.921 13.1898C18.8303 13.1183 18.7252 13.0673 18.6128 13.0403C18.2858 12.9526 18.1021 13.0343 17.6588 13.4686L17.2733 13.8436L16.6283 13.7071C15.7928 13.5308 15.8416 13.5571 15.9751 13.3943C16.076 13.2814 16.1419 13.1415 16.1647 12.9917C16.1874 12.8419 16.1661 12.6888 16.1033 12.5509C16.0404 12.4131 15.9388 12.2965 15.8108 12.2155C15.6829 12.1345 15.534 12.0924 15.3826 12.0946C15.0901 12.0946 14.9746 12.1696 14.4773 12.6608L14.0018 13.1333L12.5401 12.8153C10.6028 12.3938 10.7356 12.3856 10.1476 12.9616C9.62782 13.4693 9.53782 13.7116 9.71932 14.0911C9.81007 14.2823 9.62182 14.1721 13.5758 16.3523C15.3796 17.3468 16.8503 18.1748 16.8443 18.1913C16.8383 18.2078 16.0606 19.0673 15.1193 20.1008L13.4033 21.9758L13.0373 22.0028C12.8363 22.0178 12.0368 22.0621 11.2613 22.1018L9.85057 22.1768L9.55057 22.4708C8.79307 23.2133 8.87557 23.3033 11.0993 24.1516C11.6896 24.3606 12.2689 24.5997 12.8348 24.8678C12.8566 24.9061 13.1566 25.6793 13.5023 26.5853C14.3273 28.7543 14.4248 28.8406 15.1666 28.0853L15.4613 27.7853L15.5363 26.3746C15.5761 25.5991 15.6211 24.7996 15.6361 24.5971L15.6638 24.2296L17.5388 22.5151C18.5723 21.5723 19.4303 20.7953 19.4468 20.7901C19.4633 20.7848 20.3326 22.3321 21.3788 24.2296C23.2403 27.6046 23.3971 27.8663 23.6093 27.9473C23.9618 28.0816 24.1906 27.9826 24.6758 27.4861C25.2511 26.8981 25.2421 27.0428 24.8213 25.1048L24.5018 23.6333L24.9721 23.1571C25.5143 22.6081 25.5421 22.5646 25.5421 22.2571C25.5467 22.1045 25.5064 21.954 25.4262 21.8242C25.3459 21.6944 25.2292 21.5911 25.0907 21.5271C24.9521 21.4632 24.7978 21.4414 24.6469 21.4645C24.4961 21.4876 24.3554 21.5546 24.2423 21.6571C24.0841 21.7906 24.1088 21.8423 23.9281 21.0061L23.7893 20.3633L24.1688 19.9756C24.3577 19.8215 24.5056 19.6231 24.5993 19.3981C24.6355 19.2576 24.6322 19.1098 24.5897 18.9711C24.5473 18.8323 24.4674 18.708 24.3588 18.6117C24.2503 18.5155 24.1172 18.4511 23.9744 18.4256C23.8316 18.4001 23.6845 18.4146 23.5493 18.4673C23.3993 18.5296 23.3933 18.5281 23.3708 18.4336C23.3581 18.3796 23.2958 18.1133 23.2403 17.8426L23.1331 17.3498L24.2851 16.1858C25.7041 14.7518 25.9838 14.3513 26.2471 13.3786C26.3553 13.1186 26.389 12.8335 26.3442 12.5555C26.2994 12.2774 26.178 12.0173 25.9937 11.8044C25.8093 11.5915 25.5692 11.4342 25.3004 11.3502C25.0315 11.2662 24.7446 11.2588 24.4718 11.3288" fill="white"/>
</svg>
