<svg width="44" height="44" viewBox="0 0 44 44" fill="none" xmlns="http://www.w3.org/2000/svg">
<path d="M2.256 18.217C2.91 17.706 3.564 17.192 4.22 16.685C5.66533 15.5677 7.11267 14.4517 8.562 13.337C8.987 13.011 9.08 12.997 9.515 13.332C11.165 14.599 12.8 15.886 14.458 17.144C16.875 18.982 19.309 20.798 21.726 22.635C21.934 22.794 22.044 22.749 22.216 22.618C24.508 20.852 26.8007 19.0887 29.094 17.328C30.857 15.968 32.609 14.593 34.37 13.228C34.785 12.907 35.028 12.912 35.509 13.279C36.903 14.343 38.288 15.419 39.678 16.488C40.05 16.775 40.426 17.057 40.863 17.388C40.253 17.514 39.72 17.639 39.181 17.733C36.4543 18.2673 33.787 19.0695 31.218 20.128C28.597 21.1649 26.0345 22.344 23.542 23.66C23.4127 23.701 23.2729 23.6932 23.149 23.638C21.106 22.856 19.087 22.008 17.022 21.289C15.1094 20.6455 13.1254 20.2378 11.114 20.075C7.57431 19.8054 4.0173 20.2768 0.67 21.459C0.47 21.526 0.26 21.587 0 21.667C0.026 21.112 0.043 20.596 0.075 20.084C0.210352 18.1882 0.618906 16.322 1.288 14.543C2.06407 12.4129 3.16436 10.4154 4.55 8.62103C7.29416 5.00691 11.0954 2.3367 15.426 0.981027C17.8935 0.189512 20.4886 -0.127408 23.074 0.047027C27.6476 0.325342 32.0075 2.07982 35.499 5.04703C38.4747 7.53673 40.755 10.7545 42.118 14.387C42.1483 14.4513 42.1724 14.5182 42.19 14.587C42.216 14.758 42.29 15.057 42.24 15.081C42.0282 15.2084 41.7808 15.2635 41.535 15.238C41.1921 15.136 40.8731 14.9662 40.5971 14.7386C40.321 14.5109 40.0935 14.2302 39.928 13.913C39.371 12.913 38.847 11.879 38.215 10.924C35.6708 6.99247 31.8342 4.07219 27.367 2.66703C25.0816 1.93342 22.6743 1.65617 20.282 1.85103C17.2917 2.08618 14.4018 3.03691 11.856 4.62303C7.49631 7.20121 4.2454 11.3021 2.73 16.135C2.518 16.798 2.354 17.476 2.168 18.147L2.262 18.217H2.256Z" fill="#303030"/>
<path d="M43.33 23.4038C43.1981 25.5671 42.7535 27.7 42.01 29.7358C40.898 29.6928 39.825 29.5928 38.756 29.6228C35.6557 29.7477 32.5894 30.3172 29.651 31.3138C26.359 32.4524 23.1385 33.7881 20.007 35.3138C17.023 36.6978 14.018 38.0348 11.017 39.3858C10.599 39.5738 10.16 39.7138 9.726 39.8658C9.68489 39.8833 9.64068 39.8923 9.596 39.8923C9.55133 39.8923 9.50711 39.8833 9.466 39.8658C8.911 39.4848 8.366 39.0908 7.883 38.7488C10.7577 37.1621 13.6273 35.5771 16.492 33.9938C19.092 32.5558 21.686 31.0938 24.306 29.6828C27.7707 27.826 31.3781 26.249 35.094 24.9668C37.1369 24.2638 39.2488 23.7804 41.394 23.5248C42.014 23.4478 42.643 23.4518 43.338 23.4158L43.33 23.4038Z" fill="#303030"/>
<path d="M28.265 11.1949C28.2851 12.0646 28.1248 12.929 27.7943 13.7337C27.4638 14.5384 26.9702 15.266 26.3446 15.8705C25.719 16.475 24.975 16.9435 24.1595 17.2463C23.3439 17.549 22.4745 17.6797 21.606 17.6299C20.7558 17.628 19.9144 17.4568 19.131 17.1262C18.3477 16.7956 17.6381 16.3122 17.0437 15.7043C16.4492 15.0963 15.9819 14.376 15.669 13.5855C15.356 12.7949 15.2037 11.9499 15.221 11.0999C15.2329 9.37733 15.9281 7.72996 17.1538 6.51963C18.3795 5.30931 20.0355 4.63501 21.758 4.64485C22.6196 4.63115 23.4751 4.79158 24.2732 5.11654C25.0713 5.44149 25.7956 5.92427 26.4026 6.53593C27.0096 7.14759 27.4868 7.87553 27.8056 8.67609C28.1244 9.47666 28.2783 10.3334 28.258 11.1949H28.265ZM22.487 12.2219C22.656 13.2999 22.805 14.2609 22.957 15.2219C23.013 15.5769 23.247 15.8099 23.514 15.7769C23.801 15.7429 23.968 15.5039 23.956 15.1349C23.929 14.2279 23.947 13.3159 23.856 12.4139C23.7713 12.0573 23.8048 11.6829 23.9515 11.347C24.0981 11.0112 24.3499 10.7321 24.669 10.5519C24.9144 10.3951 25.1306 10.1968 25.308 9.96585C25.5167 9.73386 25.6857 9.46896 25.808 9.18185C25.8389 9.0929 25.8437 8.99698 25.8218 8.90539C25.8 8.8138 25.7524 8.73036 25.6848 8.66489C25.6171 8.59943 25.5321 8.55466 25.4399 8.53588C25.3476 8.51709 25.2519 8.52506 25.164 8.55885C24.991 8.61407 24.8282 8.69716 24.682 8.80485C24.164 9.20485 23.667 9.62485 23.143 10.0139C22.9802 10.1437 22.7818 10.2211 22.574 10.2359C21.341 10.2049 20.108 10.1359 18.874 10.0929C18.574 10.0809 18.274 10.0859 17.969 10.0979C17.908 10.092 17.8464 10.0992 17.7884 10.1189C17.7303 10.1386 17.6771 10.1704 17.6322 10.2122C17.5874 10.2539 17.5518 10.3047 17.528 10.3612C17.5042 10.4177 17.4926 10.4786 17.494 10.5399C17.487 10.8299 17.67 10.9599 17.947 11.0059C18.791 11.1459 19.631 11.2959 20.473 11.4449C20.733 11.4909 20.991 11.5449 21.303 11.5989C20.603 12.1679 19.971 12.6889 19.325 13.1989C19.2298 13.2569 19.1165 13.2776 19.007 13.2569C18.592 13.1839 18.184 13.0569 17.767 13.0179C17.6672 13.0131 17.5677 13.031 17.4759 13.0703C17.384 13.1096 17.3024 13.1693 17.237 13.2449C17.102 13.4759 17.23 13.7109 17.49 13.8329C17.7716 13.939 18.0444 14.067 18.306 14.2159C18.496 14.3474 18.6476 14.5272 18.745 14.7369C18.882 15.0369 18.936 15.3829 19.045 15.7019C19.0614 15.7577 19.0887 15.8097 19.1252 15.855C19.1617 15.9003 19.2068 15.9379 19.2579 15.9658C19.3089 15.9936 19.365 16.0111 19.4228 16.0173C19.4807 16.0235 19.5392 16.0183 19.595 16.0019C19.6522 15.9931 19.707 15.9729 19.7561 15.9423C19.8053 15.9118 19.8477 15.8716 19.8809 15.8243C19.9141 15.7769 19.9373 15.7232 19.9492 15.6666C19.9611 15.61 19.9613 15.5516 19.95 15.4949C19.931 15.1949 19.914 14.8949 19.918 14.5899C19.9168 14.4855 19.9554 14.3847 20.026 14.3079C20.813 13.6319 21.609 12.9649 22.484 12.2279L22.487 12.2219Z" fill="#303030"/>
<path d="M12.091 41.3621C13.242 40.8461 14.329 40.3781 15.4 39.8741C17.75 38.7651 20.087 37.6281 22.439 36.5231C25.3986 35.0912 28.4592 33.878 31.596 32.8931C33.2453 32.3879 34.9379 32.0364 36.652 31.8431C37.9801 31.673 39.3247 31.6761 40.652 31.8521C40.765 31.8691 40.876 31.9021 41.077 31.9461C40.588 32.7521 40.105 33.4881 39.688 34.2601C39.6008 34.4805 39.4319 34.6587 39.2166 34.7576C39.0012 34.8565 38.756 34.8685 38.532 34.7911C36.9043 34.5266 35.245 34.5226 33.616 34.7791C31.0893 35.1167 28.6194 35.7928 26.273 36.7891C22.999 38.2341 19.773 39.7781 16.52 41.2781C15.862 41.5781 15.203 41.8861 14.539 42.1781C14.421 42.2276 14.2894 42.2343 14.167 42.1971C13.491 41.9371 12.824 41.6591 12.088 41.3601L12.091 41.3621Z" fill="#303030"/>
<path d="M37.412 36.8642C32.846 42.3132 24 44.6732 17.848 43.1642C18.301 42.9152 18.695 42.6812 19.105 42.4712C22.8297 40.4423 26.7432 38.7812 30.79 37.5112C32.5559 36.9632 34.3984 36.7026 36.247 36.7392C36.623 36.7542 36.995 36.8162 37.412 36.8622V36.8642Z" fill="#303030"/>
<path d="M5.727 36.5891C7.061 35.8371 8.393 35.1231 9.69 34.3461C13.007 32.3531 16.302 30.3231 19.614 28.3231C22.4205 26.5823 25.3254 25.0054 28.314 23.6001C30.9901 22.337 33.7663 21.2978 36.614 20.4931C38.226 20.0611 39.87 19.7411 41.506 19.3981C42.034 19.2891 42.58 19.2721 43.185 19.2051C43.243 19.8851 43.2987 20.5371 43.352 21.1611C42.39 21.2611 41.5 21.3081 40.621 21.4451C37.9298 21.8764 35.2887 22.5762 32.737 23.5341C28.743 25.0469 24.8659 26.8518 21.137 28.9341C16.9063 31.2567 12.6753 33.5804 8.444 35.9051C7.831 36.2411 7.183 36.5201 6.551 36.8211C6.08 37.0431 6.051 37.0331 5.728 36.5851L5.727 36.5891Z" fill="#303030"/>
<path d="M20.651 25.2862C20.072 25.6282 19.57 25.9402 19.051 26.2202C18.9802 26.2529 18.9036 26.2712 18.8257 26.2741C18.7478 26.277 18.67 26.2645 18.597 26.2372C16.8423 25.4225 15.0004 24.8105 13.107 24.4132C11.0299 23.9984 8.90132 23.9056 6.796 24.1382C4.56829 24.4184 2.39121 25.0112 0.329 25.8992C0.264 25.4672 0.18 25.0472 0.141 24.6212C0.0829997 23.9792 0.0929998 23.9702 0.711 23.7452C2.80536 22.9336 5.00302 22.4193 7.24 22.2172C8.56617 22.1076 9.89922 22.11 11.225 22.2242C13.4516 22.4355 15.6317 22.9921 17.687 23.8742C18.487 24.2212 19.27 24.5912 20.06 24.9592C20.244 25.0442 20.415 25.1592 20.649 25.2872L20.651 25.2862Z" fill="#303030"/>
<path d="M1.532 29.924C1.303 29.314 1.093 28.754 0.878 28.177C3.2722 26.9558 5.90961 26.2867 8.5964 26.2187C11.2832 26.1506 13.9511 26.6855 16.404 27.784C15.775 28.172 15.224 28.524 14.655 28.852C14.5332 28.8914 14.4015 28.8865 14.283 28.838C10.0537 27.5232 5.47804 27.9129 1.532 29.924Z" fill="#303030"/>
<path d="M11.846 30.6812L4.165 34.8612C3.555 33.8942 2.986 32.9922 2.406 32.0732C5.2361 30.4203 8.57853 29.8756 11.787 30.5442C11.806 30.5902 11.827 30.6352 11.846 30.6812Z" fill="#303030"/>
</svg>
