<svg width="220" height="57" viewBox="0 0 220 57" fill="none" xmlns="http://www.w3.org/2000/svg">
<path d="M75.2559 11.9639V11.3069H85.1559V11.9639H75.2559ZM75.2559 13.2771V12.6201H85.1559V13.2771H75.2559ZM75.2559 14.6061V13.9491H85.1559V14.6061H82.5136V26.4741H81.8559V14.6069H81.1989V26.4749H80.5419V14.6069H79.8849V26.4749H79.2309V14.6069H78.5739V26.4749H77.9169V14.6069L75.2559 14.6061Z" fill="#303030"/>
<path d="M93.1905 22.0176L93.456 21.3606H95.706L95.9715 22.0176H93.1905ZM92.6745 23.3466L92.925 22.6896H96.2085L96.4898 23.3466H92.6745ZM92.1743 24.6599L92.424 24.0029H96.7553L97.0365 24.6599H92.1743ZM86.811 26.4734H86.0918L92.0963 11.3069H92.8155L98.8043 26.4741H98.1008L92.4563 12.1986L86.8118 26.4741L86.811 26.4734ZM92.5335 13.7616L92.9085 14.6061L88.218 26.4741H87.5168L92.5335 13.7616ZM93.2685 15.4971L93.6128 16.4039L89.6378 26.4734H88.9185L93.2685 15.4971ZM93.9563 17.3106L94.3005 18.2331L91.0635 26.4734H90.36L93.96 17.3106H93.9563ZM103.057 26.4734H102.338L96.3488 11.3069H97.0523L103.057 26.4734ZM95.6453 11.3069L101.65 26.4741H100.946L94.9418 11.3069H95.6453ZM94.2203 11.3069L100.225 26.4741H99.5055L93.5168 11.3069H94.2203Z" fill="#303030"/>
<path d="M108.827 26.4741H108.17V11.3069H108.827V26.4741ZM107.513 26.4741H106.856V11.3069H107.513V26.4741ZM106.2 26.4741H105.543V11.3069H106.2V26.4741ZM104.871 26.4741H104.214V11.3069H104.871V26.4741ZM113.659 18.8909L117.536 11.3069H118.271L114.394 18.8901L118.271 26.4734H117.536L113.659 18.8909ZM112.174 18.8909L116.051 11.3069H116.786L112.908 18.8901L116.786 26.4734H116.051L112.174 18.8909ZM110.704 18.8909L114.581 11.3069H115.316L111.438 18.8901L115.316 26.4734H114.581L110.704 18.8909ZM109.219 18.8909L113.096 11.3069H113.831L109.953 18.8901L113.831 26.4734H113.096L109.219 18.8909Z" fill="#303030"/>
<path d="M125.588 20.2033H124.538C123.494 20.2678 122.458 19.9937 121.583 19.4218C121.249 19.1719 120.982 18.8452 120.802 18.4695C120.622 18.0938 120.536 17.6802 120.551 17.264C120.555 16.8348 120.669 16.4138 120.883 16.0415C121.096 15.6691 121.402 15.3579 121.77 15.1378C122.795 14.5043 123.992 14.2038 125.195 14.2775C126.122 14.273 127.045 14.4101 127.931 14.684C128.707 14.9103 129.427 15.2995 130.041 15.8255L129.525 16.232C128.962 15.7946 128.319 15.4706 127.633 15.278C126.842 15.0424 126.02 14.9264 125.194 14.9338C124.167 14.8731 123.143 15.1006 122.239 15.5908C121.947 15.7554 121.701 15.991 121.523 16.2757C121.346 16.5605 121.244 16.8853 121.225 17.2202C121.206 17.5551 121.272 17.8893 121.417 18.192C121.561 18.4947 121.779 18.7561 122.051 18.9523C122.807 19.3964 123.679 19.6034 124.553 19.5463H125.57C126.623 19.48 127.67 19.7539 128.556 20.3278C128.897 20.5716 129.172 20.8966 129.355 21.2734C129.538 21.6502 129.625 22.0669 129.606 22.4855C129.6 22.9165 129.486 23.339 129.272 23.7136C129.059 24.0882 128.754 24.4026 128.387 24.6275C127.357 25.2481 126.163 25.5425 124.962 25.472C124.035 25.4765 123.112 25.3394 122.226 25.0655C121.449 24.8392 120.73 24.45 120.115 23.924L120.631 23.5175C121.194 23.9549 121.837 24.2789 122.523 24.4715C123.316 24.7006 124.137 24.8165 124.962 24.8158C125.989 24.8764 127.013 24.6489 127.917 24.1588C128.213 23.9975 128.463 23.7632 128.644 23.4782C128.824 23.1932 128.928 22.8669 128.947 22.5302C128.966 22.1935 128.898 21.8576 128.751 21.5544C128.603 21.2511 128.381 20.9905 128.105 20.7973C127.345 20.3481 126.468 20.1409 125.588 20.2033ZM125.588 21.5165H124.538C123.134 21.6057 121.744 21.1958 120.613 20.3593C120.161 19.9801 119.802 19.5025 119.564 18.9631C119.325 18.4237 119.213 17.8368 119.237 17.2475C119.232 16.6666 119.366 16.093 119.627 15.5743C119.898 15.0439 120.282 14.5795 120.752 14.2138C121.32 13.7876 121.962 13.4695 122.645 13.2755C123.473 13.0345 124.332 12.9184 125.195 12.9313C126.323 12.9183 127.445 13.1036 128.51 13.4788C129.463 13.787 130.338 14.2988 131.074 14.9788L130.542 15.3695C129.866 14.7771 129.072 14.3349 128.213 14.072C127.245 13.7548 126.231 13.5965 125.213 13.6033C123.841 13.5241 122.48 13.8925 121.335 14.6533C120.903 14.9381 120.548 15.3258 120.302 15.7816C120.057 16.2374 119.928 16.747 119.928 17.2648C119.909 17.7661 120.007 18.265 120.217 18.721C120.426 19.1771 120.739 19.5774 121.132 19.8898C122.136 20.5923 123.349 20.9341 124.572 20.8595H125.588C127.402 20.8595 128.294 21.407 128.294 22.4855C128.281 22.7428 128.197 22.9916 128.051 23.2041C127.906 23.4166 127.704 23.5846 127.469 23.6893C126.692 24.0497 125.837 24.2109 124.982 24.158C124.255 24.1623 123.53 24.0731 122.825 23.8925C122.23 23.7475 121.671 23.4815 121.183 23.111L121.699 22.7045C122.69 23.2889 123.834 23.5612 124.982 23.486C125.667 23.5232 126.351 23.4277 126.999 23.2048C127.421 23.0173 127.64 22.7668 127.64 22.4698C127.647 22.3145 127.608 22.1607 127.528 22.0274C127.448 21.8941 127.331 21.7872 127.19 21.7198C126.678 21.5429 126.135 21.4737 125.595 21.5165H125.588ZM125.588 18.8743H124.538C122.755 18.8743 121.864 18.3268 121.864 17.2483C121.877 16.991 121.961 16.7423 122.106 16.5298C122.252 16.3173 122.454 16.1493 122.689 16.0445C123.465 15.6795 124.319 15.5131 125.175 15.56C125.904 15.5529 126.63 15.6476 127.333 15.8413C127.927 15.9814 128.486 16.2423 128.975 16.6078L128.459 17.0143C127.468 16.4299 126.323 16.1576 125.175 16.2328C124.491 16.1955 123.806 16.291 123.158 16.514C122.735 16.7015 122.516 16.952 122.516 17.249C122.51 17.4043 122.549 17.5581 122.629 17.6914C122.709 17.8247 122.826 17.9316 122.966 17.999C123.466 18.1836 123.999 18.2583 124.53 18.218H125.58C126.984 18.1289 128.374 18.5388 129.505 19.3753C129.958 19.7502 130.317 20.2247 130.556 20.7618C130.795 21.2989 130.906 21.884 130.881 22.4713C130.886 23.0521 130.752 23.6257 130.49 24.1445C130.215 24.6809 129.825 25.1507 129.349 25.5208C128.789 25.9498 128.153 26.2682 127.474 26.459C126.644 26.6924 125.786 26.8083 124.924 26.8033C123.797 26.8137 122.676 26.6339 121.609 26.2715C120.658 25.957 119.785 25.446 119.045 24.7715L119.576 24.3808C120.255 24.9726 121.048 25.4194 121.906 25.694C122.877 25.9974 123.889 26.1492 124.906 26.144C126.278 26.2232 127.639 25.8547 128.783 25.094C129.216 24.8092 129.571 24.4215 129.816 23.9657C130.062 23.5099 130.19 23.0002 130.19 22.4825C130.21 21.9812 130.111 21.4823 129.902 21.0262C129.693 20.5702 129.379 20.1698 128.987 19.8575C127.997 19.1474 126.794 18.7997 125.578 18.8728L125.588 18.8743Z" fill="#303030"/>
<path d="M133.859 13.2771H134.579L139.442 25.5823L144.305 13.2771H145.008L139.784 26.4771H139.065L133.859 13.2771ZM135.266 13.2771H135.97L139.879 23.1771L139.504 24.0216L135.266 13.2771ZM136.691 13.2771H137.411L140.6 21.3606L140.256 22.2673L136.689 13.2771H136.691ZM138.116 13.2771H138.82L141.29 19.5313L140.946 20.4538L138.116 13.2771ZM148.546 13.2771H149.265L144.043 26.4771H143.339L148.546 13.2771ZM147.139 13.2771H147.842L142.62 26.4771H141.917L147.139 13.2771ZM145.714 13.2771H146.433L141.195 26.4771H140.492L145.714 13.2771Z" fill="#303030"/>
<path d="M153.717 26.4741H153.06V13.2741H153.717V26.4741ZM152.404 26.4741H151.747V13.2741H152.404V26.4741ZM151.091 26.4741H150.434V13.2741H151.091V26.4741ZM155.047 23.1741H161.364V23.8311H155.047V24.4881H161.364V25.1451H155.047V25.8021H161.364V26.4591H154.389V13.2614H161.364V13.9184H155.047V14.5754H161.364V15.2324H155.047V15.8864H161.364V16.5434H155.047V18.1851H160.988V18.8421H155.047V19.4991H160.988V20.1561H155.047V20.8131H160.988V21.4701H155.047V23.1741Z" fill="#303030"/>
<path d="M167.931 20.1726H171.906C172.401 20.1817 172.882 20.003 173.251 19.6723C173.439 19.4954 173.586 19.2788 173.681 19.0382C173.775 18.7976 173.816 18.5391 173.798 18.2811C173.794 18.053 173.74 17.8287 173.64 17.6235C173.54 17.4184 173.397 17.2374 173.22 17.0931C172.866 16.7573 172.395 16.5723 171.907 16.5771H166.243V26.4771H165.587V15.9193H171.904C172.57 15.914 173.211 16.1726 173.686 16.6386C173.925 16.844 174.117 17.0983 174.25 17.3842C174.382 17.6701 174.451 17.9811 174.453 18.2961C174.469 18.6419 174.41 18.987 174.28 19.308C174.151 19.6291 173.954 19.9186 173.703 20.1568C173.214 20.6097 172.569 20.8561 171.903 20.8446H167.928V20.1696L167.931 20.1726ZM167.931 21.4858H171.906C172.749 21.4976 173.564 21.1776 174.173 20.5948C174.486 20.2989 174.732 19.9391 174.894 19.5399C175.056 19.1408 175.13 18.7115 175.112 18.2811C175.108 17.8809 175.019 17.486 174.852 17.1223C174.685 16.7586 174.443 16.4343 174.142 16.1706C173.846 15.8763 173.495 15.6433 173.109 15.485C172.723 15.3267 172.309 15.2462 171.892 15.2481H164.902V26.4771H164.245V14.6061H171.892C172.394 14.6031 172.891 14.6996 173.356 14.8901C173.82 15.0807 174.242 15.3614 174.597 15.7161C174.96 16.041 175.251 16.4385 175.45 16.883C175.649 17.3275 175.753 17.809 175.754 18.2961C175.768 18.8092 175.673 19.3194 175.476 19.7934C175.28 20.2675 174.985 20.6949 174.613 21.0478C174.257 21.4063 173.833 21.6893 173.366 21.88C172.898 22.0708 172.397 22.1652 171.893 22.1578H167.917V21.4828L167.931 21.4858ZM167.931 22.8148H171.906C172.696 22.8257 173.474 22.6203 174.156 22.2208C174.835 21.8255 175.405 21.2665 175.814 20.5948C176.234 19.8973 176.451 19.0957 176.439 18.2811C176.44 17.5241 176.229 16.7821 175.829 16.1391C175.422 15.4691 174.845 14.9189 174.156 14.5446C173.471 14.1522 172.695 13.9473 171.906 13.9506H163.604V26.4756H162.947V13.2771H171.906C172.589 13.2775 173.264 13.4157 173.892 13.6836C174.508 13.9348 175.071 14.3011 175.549 14.7628C176.019 15.2208 176.401 15.7613 176.674 16.3573C176.958 16.9528 177.103 17.605 177.097 18.2646C177.116 19.2477 176.862 20.2169 176.362 21.0636C175.891 21.8431 175.207 22.4722 174.392 22.8771L175.768 26.4576H175.064L173.751 23.1576C173.579 23.2198 173.392 23.2671 173.173 23.3293L174.408 26.4718H173.705L172.501 23.4388C172.313 23.4546 172.11 23.4703 171.907 23.4703L173.064 26.4703H172.376L171.219 23.4703H170.625L171.735 26.4703H171.047L169.922 23.4703H167.936V22.8133L167.931 22.8148ZM167.556 26.4734H166.899V17.2521H171.903C172.223 17.2481 172.533 17.3591 172.778 17.5648C172.889 17.6532 172.978 17.7649 173.04 17.892C173.103 18.0191 173.136 18.1584 173.138 18.2998C173.162 18.4663 173.147 18.636 173.094 18.7957C173.042 18.9554 172.953 19.1008 172.835 19.2204C172.716 19.3401 172.572 19.4308 172.413 19.4853C172.254 19.5399 172.085 19.557 171.918 19.5351H167.943V18.8781H171.918C171.995 18.8891 172.073 18.8822 172.146 18.8578C172.219 18.8334 172.286 18.7922 172.341 18.7376C172.395 18.6829 172.437 18.6162 172.461 18.5428C172.485 18.4694 172.492 18.3914 172.481 18.3148C172.478 18.2596 172.46 18.2063 172.43 18.1598C172.4 18.1134 172.358 18.0754 172.31 18.0493C172.196 17.9664 172.059 17.9225 171.919 17.9241H167.569L167.553 26.4741L167.556 26.4734Z" fill="#303030"/>
<path d="M182.504 22.5179V17.2326H186.162C186.49 17.2276 186.814 17.2935 187.114 17.4258C187.413 17.5581 187.681 17.7537 187.898 17.9991C188.377 18.4927 188.641 19.1561 188.633 19.8442C188.647 20.5443 188.389 21.2228 187.913 21.7364C187.693 21.9821 187.423 22.1776 187.121 22.3097C186.819 22.4418 186.492 22.5075 186.162 22.5021L182.504 22.5179ZM183.16 21.8609H186.16C186.401 21.8651 186.64 21.8153 186.859 21.7153C187.078 21.6152 187.272 21.4674 187.427 21.2826C187.784 20.8956 187.975 20.3839 187.958 19.8576C187.966 19.6021 187.923 19.3476 187.832 19.1088C187.74 18.87 187.603 18.6517 187.427 18.4664C187.272 18.2816 187.078 18.1338 186.859 18.0338C186.64 17.9337 186.401 17.884 186.16 17.8881H183.16V21.8632V21.8609ZM181.847 23.1772H186.163C186.579 23.1812 186.991 23.0985 187.374 22.9342C187.756 22.77 188.1 22.5278 188.383 22.2231C188.991 21.5891 189.322 20.7402 189.305 19.8622C189.314 19.4329 189.236 19.0062 189.075 18.6083C188.913 18.2104 188.673 17.8495 188.367 17.5477C188.085 17.2414 187.741 16.9981 187.359 16.8338C186.976 16.6694 186.563 16.5876 186.147 16.5937H181.832V23.1772H181.847ZM181.19 23.8341V15.9194H186.163C186.667 15.9152 187.166 16.0159 187.629 16.2151C188.092 16.4143 188.509 16.7077 188.852 17.0766C189.22 17.4398 189.511 17.8735 189.707 18.3517C189.903 18.83 190.001 19.343 189.994 19.8599C190.003 20.3825 189.908 20.9016 189.715 21.3873C189.521 21.873 189.234 22.3156 188.869 22.6896C188.522 23.0589 188.103 23.3523 187.637 23.5515C187.172 23.7506 186.67 23.8512 186.164 23.8469L181.191 23.8311L181.19 23.8341ZM180.515 24.5092H186.144C186.935 24.5125 187.713 24.3018 188.394 23.8994C189.083 23.4891 189.654 22.9071 190.052 22.2104C190.451 21.5046 190.661 20.7074 190.661 19.8963C190.661 19.0852 190.451 18.2879 190.052 17.5821C189.654 16.8899 189.083 16.3132 188.394 15.9089C187.722 15.4945 186.948 15.2777 186.158 15.2834H180.53V24.5084L180.515 24.5092ZM179.858 25.1661V14.6061H186.144C187.052 14.6021 187.944 14.8453 188.724 15.3096C189.518 15.7722 190.175 16.4354 190.631 17.2326C191.096 18.0292 191.339 18.9356 191.335 19.8576C191.337 20.7949 191.095 21.7166 190.631 22.5314C190.175 23.3286 189.518 23.9919 188.724 24.4544C187.944 24.9188 187.052 25.1619 186.144 25.1579L179.858 25.1661ZM179.202 25.8232H186.16C187.182 25.8276 188.186 25.5577 189.068 25.0416C189.959 24.5153 190.698 23.7656 191.21 22.8666C191.746 21.9576 192.026 20.9215 192.023 19.8666C192.036 18.8247 191.754 17.8004 191.21 16.9116C190.7 16.0102 189.954 15.2643 189.053 14.7539C188.175 14.226 187.168 13.9502 186.144 13.9566H179.186V25.8172L179.202 25.8232ZM186.16 26.4801H178.547V13.2772H186.162C187.302 13.2725 188.421 13.5806 189.398 14.1681C190.394 14.7465 191.219 15.5772 191.791 16.5764C192.51 17.8379 192.797 19.3002 192.608 20.7401C192.418 22.18 191.763 23.5182 190.741 24.5504C190.137 25.1467 189.426 25.6241 188.645 25.9574C187.863 26.3045 187.015 26.4804 186.159 26.4734L186.16 26.4801Z" fill="#303030"/>
<path d="M197.467 26.4741H196.811V13.2741H197.467V26.4741ZM196.154 26.4741H195.497V13.2741H196.154V26.4741ZM194.84 26.4741H194.183V13.2741H194.84V26.4741ZM198.797 23.1741H205.113V23.8311H198.797V24.4881H205.113V25.1451H198.797V25.8021H205.113V26.4591H198.138V13.2614H205.113V13.9184H198.797V14.5754H205.113V15.2324H198.797V15.8864H205.113V16.5434H198.797V18.1851H204.738V18.8421H198.797V19.4991H204.738V20.1561H198.797V20.8131H204.738V21.4701H198.797V23.1741Z" fill="#303030"/>
<path d="M217.09 21.1573L216.434 19.9536V13.2786H217.09V21.1588V21.1573ZM218.419 23.4403L217.762 22.3303V13.2928H218.419V23.4403ZM209.334 18.6088L209.991 19.8126V26.4771H209.334V18.6088ZM208.005 16.2321L208.662 17.4358V26.4771H208.005V16.2321ZM208.24 13.2771H209.006L216.653 26.4771H215.886L208.24 13.2771ZM209.788 13.2771H210.569L218.2 26.4771H217.417L209.788 13.2771ZM211.336 13.2771H212.102L219.06 25.3326V13.2771H219.717V26.4771H218.936L211.336 13.2771ZM207.349 14.4186V26.4771H206.692V13.2771H207.473L215.088 26.4771H214.322L207.349 14.4186Z" fill="#303030"/>
<path d="M65.3115 9.97681H66.093V47.5661H65.3115V9.97681Z" fill="#303030"/>
<path d="M2.8613 24.0493C3.7058 23.3923 4.5503 22.7203 5.39405 22.0633C7.25455 20.6248 9.12555 19.181 11.0071 17.732C11.5546 17.3098 11.6821 17.294 12.2423 17.7163C14.3686 19.358 16.4798 21.0163 18.6218 22.6415C21.7493 25.0183 24.8918 27.3665 28.0193 29.7403C28.2848 29.9435 28.4258 29.8963 28.6606 29.7245C31.6156 27.4415 34.5856 25.1743 37.5571 22.8913C39.8401 21.14 42.1073 19.3573 44.3746 17.591C44.9063 17.1688 45.2191 17.1845 45.8446 17.6533C47.6446 19.0295 49.4446 20.4208 51.2393 21.797C51.7238 22.172 52.2091 22.532 52.7716 22.9543C51.9901 23.126 51.2858 23.2828 50.5965 23.4043C47.0741 24.0975 43.6281 25.1345 40.3081 26.5003C36.9227 27.8401 33.6132 29.3644 30.3946 31.0663C30.2296 31.118 30.0514 31.1068 29.8943 31.0348C27.2521 30.0185 24.6443 28.9243 21.9826 28.001C19.5127 27.1693 16.95 26.6441 14.3521 26.4373C9.77899 26.0857 5.18291 26.6929 0.858055 28.22C0.592555 28.3138 0.326303 28.3918 -0.00219727 28.4855C0.0293027 27.7663 0.0450527 27.0943 0.0915527 26.4373C0.265481 23.9875 0.792168 21.5756 1.65531 19.2763C3.16964 15.1594 5.60308 11.4423 8.77046 8.40757C11.9378 5.37288 15.7557 3.10066 19.9336 1.76379C23.1202 0.733795 26.4749 0.325152 29.8156 0.560042C35.7301 0.916577 41.3677 3.18911 45.8761 7.03404C49.7208 10.2518 52.6664 14.4106 54.4261 19.1053C54.4642 19.1912 54.4955 19.28 54.5198 19.3708C54.5513 19.5898 54.6451 19.9805 54.5821 20.012C54.3087 20.1734 53.9914 20.2445 53.6753 20.2153C53.2317 20.0813 52.8193 19.8602 52.4622 19.5649C52.1051 19.2696 51.8105 18.9061 51.5956 18.4955C50.8763 17.198 50.2043 15.8705 49.3756 14.6338C46.0929 9.55228 41.1387 5.77667 35.3685 3.95904C32.4146 3.00268 29.2995 2.64571 26.2058 2.90904C22.343 3.20919 18.6097 4.43749 15.3233 6.48954C9.6882 9.82289 5.48809 15.126 3.53406 21.3748C3.25281 22.235 3.04955 23.1103 2.79905 23.9705L2.8613 24.0455V24.0493Z" fill="#303030"/>
<path d="M55.9463 30.7572C55.7828 33.5511 55.2086 36.3057 54.2423 38.9322C52.8038 38.87 51.4126 38.7447 50.0363 38.7912C46.026 38.9471 42.0597 39.6846 38.2613 40.9805C34.0067 42.4466 29.8451 44.1698 25.7993 46.1405C21.9376 47.9232 18.0593 49.6587 14.1818 51.3905C13.6501 51.641 13.0718 51.8127 12.5086 52.016C12.4026 52.0551 12.2861 52.0551 12.1801 52.016C11.4608 51.5315 10.7551 51.0155 10.1318 50.5775C13.8533 48.5292 17.5433 46.481 21.2648 44.4327C24.6263 42.572 27.9728 40.6827 31.3658 38.8662C35.8459 36.465 40.5108 34.4257 45.3158 32.768C47.9524 31.8611 50.678 31.2373 53.4466 30.9072C54.2281 30.7977 55.0411 30.7977 55.9486 30.7512L55.9463 30.7572Z" fill="#303030"/>
<path d="M36.4786 14.9841C36.5036 16.1074 36.2961 17.2237 35.8691 18.2629C35.442 19.3021 34.8047 20.2418 33.9971 21.023C33.1896 21.8041 32.2292 22.4099 31.1764 22.8021C30.1235 23.1944 29.0009 23.3647 27.8791 23.3024C26.7796 23.3006 25.6914 23.0796 24.6782 22.6524C23.6651 22.2251 22.7473 21.6 21.9786 20.8138C21.2098 20.0276 20.6056 19.0961 20.2011 18.0736C19.7967 17.0511 19.6002 15.9582 19.6231 14.8589C19.6414 12.6338 20.5398 10.5064 22.122 8.94175C23.7042 7.37712 25.8415 6.50252 28.0666 6.50913C29.1816 6.49115 30.2887 6.69855 31.3216 7.11889C32.3545 7.53924 33.2918 8.16387 34.0774 8.95531C34.8629 9.74676 35.4806 10.6887 35.8932 11.7247C36.3058 12.7607 36.5049 13.8693 36.4786 14.9841ZM29.0049 16.3131C29.2239 17.7044 29.4114 18.9554 29.6146 20.1906C29.6896 20.6406 29.9896 20.9571 30.3339 20.9099C30.7089 20.8626 30.9279 20.5506 30.9121 20.0849C30.8806 18.9119 30.8964 17.7396 30.7869 16.5666C30.6773 16.1057 30.7204 15.6215 30.9098 15.1872C31.0992 14.7529 31.4245 14.3918 31.8369 14.1584C32.1549 13.9535 32.4342 13.694 32.6619 13.3919C32.9329 13.0928 33.1498 12.749 33.3031 12.3756C33.3416 12.2612 33.3472 12.1382 33.3192 12.0207C33.2912 11.9033 33.2307 11.796 33.1447 11.7113C33.0587 11.6265 32.9506 11.5676 32.8328 11.5414C32.7149 11.5151 32.592 11.5224 32.4781 11.5626C32.2552 11.635 32.0443 11.7404 31.8526 11.8754C31.1776 12.3914 30.5394 12.9389 29.8666 13.4391C29.6602 13.6128 29.4013 13.7119 29.1316 13.7204C27.5364 13.6889 25.9419 13.5951 24.3466 13.5329C23.9556 13.5174 23.5646 13.5174 23.1736 13.5329C22.8144 13.5486 22.5639 13.7204 22.5639 14.0961C22.5639 14.4719 22.7829 14.6436 23.1421 14.7059C24.2364 14.8776 25.3171 15.0809 26.4099 15.2691C26.7384 15.3314 27.0849 15.3944 27.4891 15.4724C26.5824 16.2074 25.7694 16.8794 24.9249 17.5364C24.8025 17.6087 24.6585 17.6353 24.5184 17.6114C23.9866 17.5176 23.4549 17.3609 22.9239 17.2986C22.7945 17.2967 22.6662 17.3225 22.5475 17.3742C22.4289 17.426 22.3228 17.5025 22.2361 17.5986C22.1987 17.6693 22.1775 17.7475 22.1742 17.8274C22.1709 17.9073 22.1855 17.9869 22.217 18.0605C22.2485 18.134 22.2961 18.1995 22.3563 18.2522C22.4164 18.305 22.4876 18.3435 22.5646 18.3651C22.9306 18.5064 23.286 18.6736 23.6281 18.8654C23.8761 19.0324 24.0715 19.2665 24.1914 19.5404C24.3631 19.9311 24.4419 20.3654 24.5821 20.7914C24.6023 20.8634 24.6366 20.9308 24.683 20.9895C24.7294 21.0482 24.787 21.0971 24.8524 21.1335C24.9178 21.1698 24.9898 21.1928 25.0641 21.2012C25.1385 21.2095 25.2138 21.203 25.2856 21.1821C25.3597 21.1715 25.4308 21.1456 25.4944 21.1061C25.5579 21.0665 25.6126 21.0142 25.6549 20.9524C25.6972 20.8907 25.7262 20.8208 25.7401 20.7473C25.754 20.6737 25.7525 20.5981 25.7356 20.5251C25.7041 20.1341 25.6884 19.7431 25.6884 19.3521C25.6865 19.2857 25.6981 19.2196 25.7223 19.1578C25.7465 19.0959 25.7829 19.0396 25.8294 18.9921C26.8456 18.1319 27.8776 17.2724 29.0034 16.3184L29.0049 16.3131Z" fill="#303030"/>
<path d="M15.5737 53.9615C17.0595 53.2865 18.4665 52.6947 19.842 52.0385C22.8757 50.6 25.893 49.13 28.9425 47.7072C32.7706 45.8624 36.7263 44.2948 40.779 43.0167C42.9121 42.3675 45.0995 41.9122 47.3145 41.6562C49.0327 41.4348 50.7726 41.4401 52.4895 41.672C52.6743 41.703 52.8571 41.7448 53.037 41.7972C52.4115 42.8472 51.786 43.7832 51.237 44.7837C51.1242 45.0699 50.905 45.3013 50.6254 45.4295C50.3458 45.5577 50.0274 45.5727 49.737 45.4715C47.6352 45.1302 45.4925 45.1248 43.389 45.4557C40.1233 45.8924 36.9311 46.7655 33.8977 48.0515C29.6602 49.9122 25.4857 51.9132 21.2977 53.8527C20.4532 54.2435 19.5937 54.6342 18.7335 55.01C18.5801 55.0747 18.4094 55.0858 18.249 55.0415C17.3887 54.713 16.5292 54.3537 15.5752 53.963L15.5737 53.9615Z" fill="#303030"/>
<path d="M48.2994 48.161C42.4044 55.1975 30.9744 58.2463 23.0161 56.3075C23.5944 55.979 24.1104 55.682 24.6421 55.4165C29.5171 52.9145 34.4461 50.5228 39.7464 49.0055C42.0281 48.2989 44.4081 47.9611 46.7964 48.005C47.2651 48.0208 47.7504 48.0988 48.2964 48.1618L48.2994 48.161Z" fill="#303030"/>
<path d="M7.34937 47.801C9.06912 46.8312 10.7896 45.9087 12.4779 44.9082C16.7619 42.3282 21.0279 39.7167 25.3029 37.1217C28.9288 34.8724 32.6826 32.8362 36.5454 31.0235C40.0032 29.3899 43.5904 28.0458 47.2704 27.005C49.3501 26.4417 51.4764 26.0352 53.5876 25.58C54.2754 25.439 54.9789 25.4082 55.7626 25.3295C55.8376 26.2047 55.9036 27.0492 55.9816 27.8622C54.7464 27.9875 53.5891 28.0497 52.4476 28.2222C48.9671 28.779 45.5515 29.6853 42.2529 30.9275C37.0903 32.8814 32.0785 35.2127 27.2581 37.9025C21.7831 40.9025 16.3284 43.922 10.8556 46.9085C10.0584 47.3465 9.22962 47.7057 8.41662 48.0965C7.80687 48.3965 7.77536 48.3777 7.35311 47.7965L7.34937 47.801Z" fill="#303030"/>
<path d="M26.626 33.1968C25.876 33.6348 25.2348 34.0413 24.562 34.4006C24.3738 34.4839 24.1603 34.4896 23.968 34.4163C21.6983 33.3644 19.3169 32.5724 16.8693 32.0553C14.1835 31.5139 11.4299 31.3927 8.707 31.6961C5.83168 32.059 3.02123 32.8221 0.357254 33.9633C0.282254 33.4001 0.169755 32.8691 0.106755 32.3216C0.0317547 31.4966 0.0445015 31.4771 0.841752 31.1966C3.54957 30.146 6.39209 29.4827 9.28525 29.2263C10.9972 29.0831 12.7184 29.0883 14.4295 29.2421C17.3056 29.5166 20.1221 30.2338 22.7793 31.3684C23.8113 31.8184 24.8275 32.2908 25.8438 32.7753C26.1135 32.8982 26.3746 33.0393 26.6253 33.1976L26.626 33.1968Z" fill="#303030"/>
<path d="M1.92385 39.1857C1.62385 38.4042 1.3606 37.6692 1.07935 36.9357C7.6936 33.8397 14.3071 33.449 21.1403 36.4355C20.3273 36.9357 19.6081 37.3895 18.8903 37.8117C18.7316 37.8609 18.561 37.8553 18.4058 37.796C16.4427 37.1726 14.3986 36.8408 12.3391 36.8112C8.72401 36.7231 5.14425 37.5402 1.92535 39.188L1.92385 39.1857Z" fill="#303030"/>
<path d="M15.2602 40.1714C11.9767 41.9541 8.6932 43.7361 5.3317 45.5661C4.53445 44.3151 3.8152 43.1579 3.06445 41.9661C6.7181 39.8252 11.0385 39.1227 15.1822 39.9959C15.2037 40.0546 15.2287 40.112 15.2572 40.1676L15.2602 40.1714Z" fill="#303030"/>
<path d="M75.1936 40.0144C75.1857 39.3295 75.2275 38.645 75.3188 37.9662C75.3645 37.5204 75.5264 37.0945 75.7883 36.7309C76.0266 36.4344 76.3566 36.2254 76.7266 36.1369C77.2485 36.0117 77.7844 35.9539 78.3211 35.9652C78.8528 35.9537 79.3837 36.0115 79.9006 36.1369C80.2791 36.2248 80.6158 36.4401 80.8545 36.7467C81.1032 37.1172 81.2635 37.5398 81.3233 37.9819C81.49 39.3423 81.49 40.718 81.3233 42.0784C81.281 42.52 81.1189 42.9417 80.8545 43.2979C80.61 43.5949 80.275 43.8035 79.9006 43.8919C79.3836 44.0164 78.8527 44.0741 78.3211 44.0637C77.7845 44.073 77.2489 44.0153 76.7266 43.8919C76.3566 43.8034 76.0266 43.5944 75.7883 43.2979C75.5393 42.9334 75.3785 42.5158 75.3188 42.0784C75.2281 41.3943 75.1863 40.7045 75.1936 40.0144ZM76.5225 43.0009H79.0726C79.3628 43.0306 79.6543 42.9588 79.8975 42.7977C79.9852 42.7043 80.0516 42.5931 80.0921 42.4717C80.1326 42.3502 80.1463 42.2214 80.1323 42.0942V37.0144H77.5823C77.2956 36.9809 77.0065 37.0532 76.7693 37.2177C76.6804 37.3101 76.6132 37.4213 76.5726 37.543C76.532 37.6646 76.519 37.7938 76.5345 37.9212V43.0032L76.5225 43.0009Z" fill="#303030"/>
<path d="M83.356 46.0497V37.6842H83.9192L84.5942 38.9195V45.8945L83.356 46.0497ZM86.311 44.048C85.8751 44.0546 85.4399 44.0126 85.0134 43.9227C84.7125 43.8571 84.4425 43.692 84.2469 43.454C84.0471 43.1607 83.9237 42.8223 83.8877 42.4692C83.8173 41.9144 83.786 41.3553 83.7939 40.796C83.7859 40.242 83.8172 39.6881 83.8877 39.1385C83.9233 38.79 84.0469 38.4563 84.2469 38.1687C84.4468 37.9358 84.715 37.7718 85.0134 37.7C85.4398 37.6093 85.8751 37.5673 86.311 37.5747C86.686 37.5639 87.0605 37.6115 87.4209 37.7157C87.6957 37.802 87.9334 37.9782 88.0959 38.216C88.2787 38.5109 88.3962 38.8416 88.4402 39.1858C88.5099 39.7145 88.5413 40.2477 88.534 40.781C88.5401 41.3245 88.5088 41.8678 88.4402 42.407C88.3983 42.7613 88.2808 43.1024 88.0959 43.4075C87.9334 43.6453 87.6957 43.8215 87.4209 43.9077C87.06 44.0098 86.6859 44.0566 86.311 44.048ZM84.5912 43.0475H86.6709C86.8237 43.0606 86.9775 43.0394 87.1209 42.9852C87.163 42.9592 87.197 42.922 87.2192 42.8778C87.2413 42.8336 87.2506 42.784 87.2462 42.7347V38.591H85.1665C85.0176 38.5769 84.8675 38.5982 84.7284 38.6532C84.6901 38.6668 84.6572 38.6924 84.6346 38.7262C84.6121 38.76 84.601 38.8002 84.6032 38.8407V43.0497L84.5912 43.0475Z" fill="#303030"/>
<path d="M90.3916 46.0497V37.6842H90.9541L91.6291 38.9195V45.8945L90.3916 46.0497ZM93.3466 44.048C92.9108 44.0546 92.4756 44.0126 92.0491 43.9227C91.7481 43.8572 91.4781 43.692 91.2826 43.454C91.0828 43.1607 90.9593 42.8223 90.9233 42.4692C90.853 41.9144 90.8217 41.3553 90.8296 40.796C90.8216 40.242 90.853 39.6881 90.9233 39.1385C90.9589 38.79 91.0825 38.4563 91.2826 38.1687C91.4824 37.9358 91.7506 37.7718 92.0491 37.7C92.4755 37.6093 92.9108 37.5673 93.3466 37.5747C93.7217 37.5639 94.0961 37.6115 94.4566 37.7157C94.7313 37.802 94.9691 37.9782 95.1316 38.216C95.3144 38.5109 95.4319 38.8416 95.4758 39.1858C95.5456 39.7145 95.5769 40.2477 95.5696 40.781C95.5757 41.3245 95.5444 41.8678 95.4758 42.407C95.434 42.7613 95.3165 43.1025 95.1316 43.4075C94.9691 43.6453 94.7313 43.8215 94.4566 43.9077C94.0955 44.0088 93.7215 44.0555 93.3466 44.048ZM91.6268 43.0475H93.7066C93.8594 43.0606 94.0131 43.0394 94.1566 42.9852C94.1987 42.9592 94.2327 42.922 94.2548 42.8778C94.2769 42.8336 94.2863 42.784 94.2818 42.7347V38.591H92.2021C92.0532 38.5769 91.9031 38.5982 91.7641 38.6532C91.7257 38.6668 91.6928 38.6924 91.6703 38.7262C91.6477 38.76 91.6367 38.8002 91.6388 38.8407V43.0497L91.6268 43.0475Z" fill="#303030"/>
<path d="M98.5855 42.9537C98.6746 42.9583 98.7633 42.9688 98.851 42.9852C98.9605 43.001 99.0542 43.001 99.1509 43.0167L99.076 43.8612C98.92 43.9085 98.7632 43.9362 98.638 43.9707C98.5137 43.989 98.3885 43.9995 98.263 44.0022C98.1384 44.0121 98.0131 43.9963 97.8948 43.9559C97.7766 43.9156 97.6678 43.8514 97.5752 43.7675C97.4911 43.6718 97.4271 43.5603 97.3868 43.4394C97.3465 43.3186 97.3307 43.191 97.3404 43.064V35.8392L98.5757 35.6517L98.5915 42.9537H98.5855Z" fill="#303030"/>
<path d="M102.791 43.9847C102.394 43.9974 101.998 43.9444 101.618 43.828C101.325 43.7467 101.067 43.5708 100.883 43.3277C100.687 43.0313 100.559 42.695 100.508 42.343C100.425 41.8208 100.388 41.2922 100.399 40.7635C100.377 40.1142 100.457 39.4655 100.634 38.8405C100.696 38.628 100.8 38.4302 100.94 38.2589C101.08 38.0875 101.253 37.9461 101.449 37.843C101.941 37.6279 102.476 37.5254 103.013 37.543C103.523 37.524 104.033 37.5765 104.529 37.699C104.686 37.737 104.833 37.8064 104.962 37.9031C105.091 37.9998 105.199 38.1217 105.279 38.2615C105.434 38.6153 105.504 39.0007 105.482 39.3865C105.489 39.7346 105.447 40.0821 105.357 40.4185C105.315 40.5469 105.248 40.6656 105.159 40.7676C105.071 40.8696 104.962 40.9528 104.841 41.0125C104.483 41.1791 104.094 41.2695 103.7 41.278C103.199 41.3252 102.542 41.3402 101.698 41.3402H101.323V40.543H103.324C103.604 40.5733 103.888 40.519 104.137 40.387C104.216 40.3176 104.277 40.2302 104.315 40.1321C104.353 40.0341 104.367 39.9283 104.356 39.8237V38.5412H102.714C102.434 38.515 102.152 38.569 101.901 38.6972C101.821 38.7655 101.759 38.8528 101.72 38.9511C101.682 39.0495 101.669 39.1558 101.682 39.2605V42.841C101.87 42.8882 102.057 42.916 102.26 42.9505C102.464 42.9662 102.71 42.982 102.995 42.982C103.32 42.9851 103.644 42.9643 103.965 42.9197C104.278 42.8725 104.669 42.7945 105.122 42.685L105.278 43.5917C104.913 43.7163 104.536 43.8053 104.153 43.8572C103.708 43.963 103.25 44.0051 102.793 43.9825L102.791 43.9847Z" fill="#303030"/>
<path d="M106.403 37.7002H107.623L109.109 42.8287H109.234L110.72 37.7002H111.939L110.11 43.8765H108.235L106.403 37.7002Z" fill="#303030"/>
<path d="M116.222 43.8605V37.6842H116.785L117.113 38.3097C117.401 38.0664 117.729 37.8757 118.083 37.7464C118.472 37.6205 118.879 37.5624 119.287 37.5747C119.74 37.5498 120.192 37.6412 120.6 37.8402C120.739 37.9162 120.854 38.0298 120.931 38.168C121.009 38.3062 121.046 38.4634 121.038 38.6217V43.8717H119.803V38.5864H118.49C118.204 38.5587 117.917 38.6128 117.661 38.7424C117.505 38.8362 117.442 39.0237 117.442 39.3057V43.8747L116.222 43.8589V43.8605ZM119.803 43.8605V37.6842L120.694 38.3097C120.982 38.0664 121.31 37.8757 121.664 37.7464C122.052 37.6205 122.459 37.5624 122.867 37.5747C123.321 37.5498 123.773 37.6412 124.181 37.8402C124.32 37.9162 124.435 38.0298 124.512 38.168C124.589 38.3062 124.626 38.4634 124.619 38.6217V43.8717H123.383V38.5864H122.072C121.788 38.5594 121.502 38.6135 121.247 38.7424C121.091 38.8362 121.028 39.0237 121.028 39.3057V43.8747L119.809 43.8589L119.803 43.8605Z" fill="#303030"/>
<path d="M128.81 43.9847C128.413 43.9974 128.016 43.9444 127.637 43.828C127.343 43.7466 127.085 43.5708 126.902 43.3277C126.705 43.0313 126.577 42.6949 126.527 42.343C126.443 41.8208 126.407 41.2922 126.417 40.7635C126.396 40.1142 126.475 39.4655 126.652 38.8405C126.714 38.628 126.818 38.4302 126.958 38.2588C127.098 38.0875 127.271 37.9461 127.467 37.843C127.957 37.6205 128.493 37.5176 129.031 37.5429C129.541 37.524 130.052 37.5765 130.547 37.699C130.704 37.7369 130.851 37.8063 130.98 37.903C131.109 37.9998 131.217 38.1217 131.297 38.2615C131.453 38.6152 131.522 39.0007 131.501 39.3865C131.507 39.7346 131.465 40.082 131.375 40.4185C131.333 40.5469 131.266 40.6656 131.177 40.7676C131.089 40.8696 130.981 40.9529 130.859 41.0125C130.501 41.1791 130.113 41.2695 129.718 41.278C129.218 41.3252 128.561 41.3402 127.717 41.3402H127.342V40.5429H129.342C129.623 40.5733 129.906 40.519 130.155 40.387C130.234 40.3176 130.295 40.2302 130.334 40.1322C130.372 40.0341 130.386 39.9283 130.374 39.8237V38.5412H128.732C128.452 38.5149 128.17 38.569 127.919 38.6972C127.839 38.7655 127.777 38.8528 127.738 38.9511C127.7 39.0495 127.687 39.1558 127.7 39.2605V42.841C127.888 42.8882 128.075 42.916 128.279 42.9505C128.482 42.9662 128.729 42.982 129.014 42.982C129.338 42.9851 129.662 42.9643 129.983 42.9197C130.295 42.8725 130.686 42.7945 131.14 42.685L131.296 43.5917C130.93 43.7163 130.553 43.8052 130.171 43.8572C129.726 43.9636 129.267 44.0058 128.81 43.9824L128.81 43.9847Z" fill="#303030"/>
<path d="M134.047 37.7002L134.485 38.6699C134.782 38.389 135.101 38.1326 135.439 37.9034C135.669 37.7466 135.915 37.6156 136.174 37.5127L136.299 38.7164C136.113 38.773 135.93 38.8409 135.752 38.9197C135.557 38.9977 135.369 39.0917 135.189 39.201C135.022 39.2887 134.865 39.3935 134.72 39.5137V43.8764H133.484V37.7002H134.047Z" fill="#303030"/>
<path d="M143.288 37.7015V38.5618H140.192V37.7015H143.288ZM142.288 43.862H141.053V37.7638C141.065 37.31 141.128 36.8589 141.24 36.419C141.308 36.1454 141.467 35.9029 141.69 35.7313C141.948 35.589 142.24 35.5188 142.535 35.528C142.722 35.528 142.91 35.5438 143.098 35.5595C143.288 35.5755 143.476 35.6068 143.661 35.6533L143.586 36.5443L142.257 36.4348L142.289 43.8598L142.288 43.862Z" fill="#303030"/>
<path d="M147.104 43.9848C146.656 43.9938 146.21 43.9464 145.774 43.8438C145.457 43.7673 145.173 43.5922 144.961 43.3435C144.742 43.0549 144.597 42.7167 144.539 42.3588C144.45 41.8321 144.408 41.2985 144.414 40.7643C144.4 40.2299 144.442 39.6954 144.539 39.1698C144.597 38.8118 144.742 38.4737 144.961 38.185C145.18 37.9447 145.462 37.7713 145.774 37.6848C146.21 37.5812 146.656 37.5338 147.104 37.5438C147.556 37.5348 148.008 37.5822 148.448 37.6848C148.767 37.7573 149.053 37.9332 149.261 38.185C149.473 38.471 149.612 38.8036 149.668 39.1548C149.758 39.6816 149.8 40.2156 149.793 40.75C149.807 41.2847 149.765 41.8194 149.668 42.3453C149.617 42.7052 149.471 43.0451 149.246 43.33C149.027 43.5703 148.745 43.7438 148.433 43.8303C148 43.9485 147.552 44.0011 147.104 43.9863V43.9848ZM145.712 42.9843H147.917C148.076 42.9989 148.236 42.9776 148.386 42.922C148.428 42.896 148.462 42.8588 148.484 42.8146C148.506 42.7703 148.516 42.7208 148.511 42.6715V38.593H146.306C146.147 38.5784 145.987 38.5996 145.837 38.6553C145.795 38.6813 145.761 38.7185 145.739 38.7627C145.717 38.807 145.708 38.8565 145.712 38.9058V42.9843Z" fill="#303030"/>
<path d="M152.217 37.7002L152.655 38.6699C152.952 38.389 153.271 38.1326 153.609 37.9034C153.839 37.7466 154.085 37.6156 154.344 37.5127L154.469 38.7164C154.297 38.7637 154.11 38.8417 153.906 38.9197C153.709 38.9945 153.521 39.0887 153.343 39.201C153.176 39.2887 153.019 39.3935 152.874 39.5137V43.8764H151.638V37.7002H152.217Z" fill="#303030"/>
<path d="M158.862 43.8604V37.6842H159.425L159.754 38.3097C160.041 38.0664 160.369 37.8757 160.723 37.7464C161.111 37.6205 161.518 37.5623 161.927 37.5747C162.38 37.5498 162.832 37.6412 163.24 37.8402C163.379 37.9163 163.494 38.0299 163.571 38.1681C163.648 38.3063 163.685 38.4634 163.678 38.6217V43.8717H162.443V38.5864H161.129C160.844 38.5587 160.556 38.6128 160.301 38.7424C160.22 38.8108 160.158 38.898 160.12 38.9963C160.081 39.0947 160.068 39.201 160.082 39.3057V43.8747L158.862 43.8589V43.8604ZM162.462 43.8604V37.6842L163.353 38.3097C163.641 38.0664 163.969 37.8757 164.323 37.7464C164.711 37.6205 165.118 37.5623 165.527 37.5747C165.98 37.5498 166.432 37.6412 166.84 37.8402C166.979 37.9163 167.093 38.0299 167.171 38.1681C167.248 38.3063 167.285 38.4634 167.278 38.6217V43.8717H166.043V38.5864H164.729C164.445 38.5594 164.159 38.6135 163.904 38.7424C163.824 38.8108 163.762 38.898 163.724 38.9963C163.685 39.0947 163.672 39.201 163.685 39.3057V43.8747L162.466 43.8589L162.462 43.8604Z" fill="#303030"/>
<path d="M170.057 36.6209C169.842 36.6472 169.624 36.5915 169.447 36.4649C169.32 36.2947 169.264 36.0817 169.291 35.8709C169.26 35.7645 169.258 35.6517 169.285 35.5443C169.313 35.437 169.368 35.339 169.447 35.2606C169.525 35.1822 169.623 35.1264 169.731 35.0989C169.838 35.0714 169.951 35.0733 170.057 35.1044C170.268 35.0775 170.481 35.1334 170.651 35.2604C170.778 35.4369 170.833 35.6545 170.807 35.8701C170.83 36.0783 170.78 36.288 170.667 36.4641C170.49 36.5909 170.273 36.6469 170.057 36.6209ZM169.432 37.7781L170.667 37.5906V43.8606H169.432V37.7781Z" fill="#303030"/>
<path d="M172.887 43.8604V37.6842H173.45L173.779 38.3097C174.087 38.062 174.436 37.8713 174.811 37.7464C175.221 37.6217 175.649 37.5637 176.078 37.5747C176.531 37.5498 176.983 37.6412 177.391 37.8402C177.53 37.9163 177.645 38.0299 177.722 38.1681C177.799 38.3063 177.836 38.4635 177.828 38.6217V43.8717H176.593V38.5864H175.154C174.87 38.5594 174.584 38.6135 174.329 38.7424C174.249 38.8108 174.187 38.898 174.149 38.9963C174.11 39.0947 174.097 39.201 174.11 39.3057V43.8747L172.891 43.8589L172.887 43.8604Z" fill="#303030"/>
<path d="M181.862 37.5748C182.298 37.5673 182.734 37.6093 183.16 37.7C183.462 37.7633 183.732 37.9289 183.926 38.1687C184.13 38.4541 184.254 38.7889 184.286 39.1385C184.356 39.6828 184.387 40.2315 184.379 40.7802C184.386 41.3447 184.355 41.909 184.286 42.4693C184.249 42.8272 184.126 43.1707 183.926 43.4697C183.735 43.7126 183.463 43.879 183.16 43.9385C182.734 44.0291 182.298 44.0712 181.862 44.0638C181.486 44.0784 181.11 44.0256 180.752 43.9078C180.481 43.8158 180.245 43.6408 180.077 43.4075C179.89 43.1036 179.772 42.7619 179.733 42.407C179.664 41.8678 179.633 41.3245 179.639 40.781C179.632 40.2477 179.664 39.7146 179.733 39.1858C179.775 38.8364 179.892 38.5003 180.077 38.201C180.248 37.971 180.483 37.7969 180.752 37.7008C181.111 37.5873 181.488 37.5448 181.862 37.5755V37.5748ZM183.567 38.5752H181.487C181.335 38.5622 181.181 38.5834 181.037 38.6375C180.995 38.6635 180.961 38.7007 180.939 38.745C180.917 38.7892 180.908 38.8387 180.912 38.888V43.0475H182.991C183.144 43.0606 183.298 43.0393 183.441 42.9852C183.483 42.9592 183.517 42.922 183.539 42.8777C183.561 42.8335 183.571 42.784 183.566 42.7348L183.567 38.5752ZM184.802 35.5107V43.8763H184.239L183.564 42.641V35.666L184.802 35.5107Z" fill="#303030"/>
<path d="M187.616 37.7002L188.054 38.6699C188.351 38.3889 188.67 38.1326 189.008 37.9034C189.238 37.7466 189.485 37.6156 189.743 37.5127L189.869 38.7164C189.697 38.7637 189.509 38.8417 189.305 38.9197C189.109 38.9945 188.92 39.0887 188.743 39.201C188.576 39.2887 188.419 39.3935 188.274 39.5137V43.8764H187.038V37.7002H187.616Z" fill="#303030"/>
<path d="M193.183 43.9848C192.786 43.9975 192.389 43.9445 192.01 43.828C191.719 43.7408 191.463 43.5661 191.275 43.3278C191.078 43.0313 190.95 42.695 190.9 42.3431C190.816 41.8209 190.78 41.2922 190.79 40.7635C190.769 40.1143 190.848 39.4656 191.025 38.8405C191.086 38.6277 191.19 38.4295 191.33 38.2576C191.469 38.0857 191.642 37.9437 191.838 37.8401C192.33 37.6234 192.865 37.5208 193.402 37.54C193.912 37.5211 194.423 37.5736 194.918 37.696C195.075 37.734 195.222 37.8034 195.351 37.9001C195.48 37.9968 195.588 38.1188 195.668 38.2585C195.824 38.6123 195.893 38.9978 195.872 39.3835C195.878 39.7317 195.836 40.0791 195.746 40.4155C195.656 40.672 195.472 40.8844 195.23 41.0095C194.872 41.1762 194.484 41.2666 194.089 41.275C193.589 41.3223 192.932 41.3373 192.087 41.3373H191.712V40.543H193.714C193.994 40.5734 194.277 40.5191 194.527 40.3871C194.606 40.3177 194.667 40.2303 194.705 40.1322C194.743 40.0342 194.757 39.9284 194.746 39.8238V38.5413H193.104C192.824 38.515 192.542 38.5691 192.291 38.6973C192.211 38.7656 192.149 38.8529 192.11 38.9512C192.072 39.0495 192.059 39.1559 192.072 39.2605V42.8411C192.26 42.8883 192.447 42.9161 192.65 42.9506C192.854 42.9663 193.1 42.982 193.385 42.982C193.709 42.9852 194.033 42.9643 194.354 42.9198C194.667 42.8725 195.058 42.7945 195.512 42.685L195.668 43.5918C195.303 43.7182 194.926 43.8071 194.543 43.8573C194.098 43.963 193.64 44.0051 193.183 43.9825V43.9848Z" fill="#303030"/>
</svg>
