<svg width="44" height="44" viewBox="0 0 44 44" fill="none" xmlns="http://www.w3.org/2000/svg">
<path d="M2.256 18.411C2.91 17.9 3.564 17.386 4.22 16.879C5.66533 15.7617 7.11267 14.6457 8.562 13.531C8.987 13.205 9.08 13.191 9.515 13.526C11.165 14.793 12.8 16.08 14.458 17.338C16.875 19.176 19.309 20.992 21.726 22.829C21.934 22.988 22.044 22.943 22.216 22.812C24.508 21.046 26.8007 19.2827 29.094 17.522C30.857 16.162 32.609 14.787 34.37 13.422C34.785 13.101 35.028 13.106 35.509 13.473C36.903 14.537 38.288 15.613 39.678 16.682C40.05 16.969 40.426 17.251 40.863 17.582C40.253 17.708 39.72 17.833 39.181 17.927C36.4543 18.4613 33.787 19.2635 31.218 20.322C28.597 21.3589 26.0345 22.538 23.542 23.854C23.4127 23.895 23.2729 23.8872 23.149 23.832C21.106 23.05 19.087 22.202 17.022 21.483C15.1094 20.8395 13.1254 20.4318 11.114 20.269C7.57431 19.9994 4.0173 20.4708 0.67 21.653C0.47 21.72 0.26 21.781 0 21.861C0.026 21.306 0.043 20.79 0.075 20.278C0.210352 18.3822 0.618906 16.5159 1.288 14.737C2.06407 12.6069 3.16436 10.6093 4.55 8.815C7.29416 5.20088 11.0954 2.53067 15.426 1.175C17.8935 0.383482 20.4886 0.0665613 23.074 0.240997C27.6476 0.519311 32.0075 2.27379 35.499 5.241C38.4747 7.7307 40.755 10.9485 42.118 14.581C42.1483 14.6452 42.1724 14.7122 42.19 14.781C42.216 14.952 42.29 15.251 42.24 15.275C42.0282 15.4024 41.7808 15.4575 41.535 15.432C41.1921 15.33 40.8731 15.1601 40.5971 14.9325C40.321 14.7049 40.0935 14.4242 39.928 14.107C39.371 13.107 38.847 12.073 38.215 11.118C35.6708 7.18644 31.8342 4.26616 27.367 2.861C25.0816 2.12739 22.6743 1.85014 20.282 2.045C17.2917 2.28015 14.4018 3.23088 11.856 4.817C7.49631 7.39518 4.2454 11.496 2.73 16.329C2.518 16.992 2.354 17.67 2.168 18.341L2.262 18.411H2.256Z" fill="white"/>
<path d="M43.3301 23.598C43.1981 25.7613 42.7535 27.8941 42.0101 29.93C40.8981 29.887 39.8251 29.787 38.7561 29.817C35.6558 29.9419 32.5895 30.5113 29.6511 31.508C26.359 32.6465 23.1385 33.9823 20.0071 35.508C17.0231 36.892 14.0181 38.229 11.0171 39.58C10.5991 39.768 10.1601 39.908 9.72606 40.06C9.68495 40.0775 9.64073 40.0865 9.59606 40.0865C9.55138 40.0865 9.50717 40.0775 9.46606 40.06C8.91106 39.679 8.36606 39.285 7.88306 38.943C10.7577 37.3563 13.6274 35.7713 16.4921 34.188C19.0921 32.75 21.6861 31.288 24.3061 29.877C27.7707 28.0202 31.3782 26.4432 35.0941 25.161C37.1369 24.458 39.2488 23.9746 41.3941 23.719C42.0141 23.642 42.6431 23.646 43.3381 23.61L43.3301 23.598Z" fill="white"/>
<path d="M28.265 11.389C28.2851 12.2587 28.1248 13.1232 27.7943 13.9279C27.4638 14.7326 26.9702 15.4601 26.3447 16.0647C25.7191 16.6692 24.9751 17.1376 24.1595 17.4404C23.344 17.7432 22.4746 17.8738 21.606 17.824C20.7558 17.8222 19.9144 17.651 19.1311 17.3204C18.3478 16.9897 17.6382 16.5063 17.0437 15.8984C16.4493 15.2905 15.982 14.5702 15.669 13.7796C15.3561 12.9891 15.2038 12.1441 15.221 11.294C15.2329 9.57148 15.9281 7.92411 17.1538 6.71379C18.3795 5.50346 20.0355 4.82916 21.758 4.83901C22.6197 4.8253 23.4752 4.98574 24.2733 5.31069C25.0714 5.63565 25.7956 6.11843 26.4026 6.73008C27.0096 7.34174 27.4868 8.06968 27.8056 8.87025C28.1245 9.67081 28.2784 10.5275 28.258 11.389H28.265ZM22.487 12.416C22.656 13.494 22.805 14.455 22.957 15.416C23.013 15.771 23.247 16.004 23.514 15.971C23.801 15.937 23.968 15.698 23.956 15.329C23.929 14.422 23.947 13.51 23.856 12.608C23.7714 12.2515 23.8049 11.877 23.9515 11.5412C24.0981 11.2053 24.35 10.9263 24.6691 10.746C24.9145 10.5893 25.1307 10.391 25.3081 10.16C25.5168 9.92802 25.6857 9.66311 25.8081 9.37601C25.8389 9.28705 25.8437 9.19113 25.8219 9.09954C25.8 9.00795 25.7525 8.92451 25.6848 8.85905C25.6171 8.79358 25.5322 8.74882 25.4399 8.73003C25.3476 8.71124 25.2519 8.71921 25.164 8.753C24.9911 8.80822 24.8283 8.89132 24.682 8.999C24.164 9.399 23.6671 9.819 23.1431 10.208C22.9802 10.3379 22.7818 10.4153 22.5741 10.43C21.3411 10.399 20.108 10.33 18.874 10.287C18.574 10.275 18.274 10.28 17.969 10.292C17.908 10.2862 17.8465 10.2934 17.7884 10.3131C17.7304 10.3328 17.6772 10.3646 17.6323 10.4063C17.5874 10.4481 17.5519 10.4989 17.5281 10.5554C17.5042 10.6118 17.4926 10.6727 17.4941 10.734C17.4871 11.024 17.6701 11.154 17.9471 11.2C18.7911 11.34 19.631 11.49 20.473 11.639C20.733 11.685 20.991 11.739 21.303 11.793C20.603 12.362 19.9711 12.883 19.3251 13.393C19.2299 13.4511 19.1166 13.4717 19.0071 13.451C18.5921 13.378 18.1841 13.251 17.7671 13.212C17.6673 13.2072 17.5677 13.2251 17.4759 13.2645C17.3841 13.3038 17.3024 13.3635 17.237 13.439C17.102 13.67 17.2301 13.905 17.4901 14.027C17.7717 14.1331 18.0445 14.2612 18.306 14.41C18.4961 14.5416 18.6476 14.7214 18.745 14.931C18.882 15.231 18.9361 15.577 19.0451 15.896C19.0615 15.9518 19.0887 16.0038 19.1252 16.0491C19.1618 16.0944 19.2068 16.1321 19.2579 16.1599C19.309 16.1878 19.365 16.2053 19.4229 16.2115C19.4807 16.2177 19.5392 16.2124 19.595 16.196C19.6522 16.1873 19.7071 16.167 19.7562 16.1365C19.8053 16.106 19.8478 16.0658 19.881 16.0184C19.9141 15.971 19.9374 15.9174 19.9492 15.8608C19.9611 15.8042 19.9614 15.7457 19.9501 15.689C19.9311 15.389 19.914 15.089 19.918 14.784C19.9169 14.6797 19.9555 14.5788 20.026 14.502C20.813 13.826 21.609 13.159 22.484 12.422L22.487 12.416Z" fill="white"/>
<path d="M12.0909 41.556C13.2419 41.04 14.3289 40.572 15.3999 40.068C17.7499 38.959 20.0869 37.822 22.4389 36.717C25.3985 35.2851 28.459 34.0719 31.5959 33.087C33.2452 32.5818 34.9378 32.2303 36.6519 32.037C37.98 31.8669 39.3246 31.87 40.6519 32.046C40.7649 32.063 40.8759 32.096 41.0769 32.14C40.5879 32.946 40.1049 33.682 39.6879 34.454C39.6007 34.6744 39.4318 34.8526 39.2165 34.9515C39.0011 35.0504 38.7559 35.0624 38.5319 34.985C36.9042 34.7205 35.2448 34.7165 33.6159 34.973C31.0891 35.3106 28.6193 35.9867 26.2729 36.983C22.9989 38.428 19.7729 39.972 16.5199 41.472C15.8619 41.772 15.2029 42.08 14.5389 42.372C14.4209 42.4215 14.2893 42.4282 14.1669 42.391C13.4909 42.131 12.8239 41.853 12.0879 41.554L12.0909 41.556Z" fill="white"/>
<path d="M37.4119 37.058C32.8459 42.507 23.9999 44.867 17.8479 43.358C18.3009 43.109 18.6949 42.875 19.1049 42.665C22.8296 40.6361 26.7431 38.9749 30.7899 37.705C32.5558 37.157 34.3983 36.8963 36.2469 36.933C36.6229 36.948 36.9949 37.01 37.4119 37.056V37.058Z" fill="white"/>
<path d="M5.72705 36.783C7.06105 36.031 8.39305 35.317 9.69005 34.54C13.007 32.547 16.302 30.517 19.614 28.517C22.4206 26.7762 25.3254 25.1993 28.314 23.794C30.9902 22.5309 33.7663 21.4917 36.6141 20.687C38.2261 20.255 39.87 19.935 41.5061 19.592C42.034 19.483 42.5801 19.466 43.1851 19.399C43.243 20.079 43.2987 20.731 43.3521 21.355C42.39 21.455 41.5 21.502 40.621 21.639C37.9299 22.0703 35.2887 22.7701 32.737 23.728C28.7431 25.2408 24.8659 27.0457 21.1371 29.128C16.9064 31.4507 12.6754 33.7743 8.44405 36.099C7.83105 36.435 7.18305 36.714 6.55105 37.015C6.08005 37.237 6.05105 37.227 5.72805 36.779L5.72705 36.783Z" fill="white"/>
<path d="M20.6511 25.48C20.0721 25.822 19.5701 26.134 19.0511 26.414C18.9803 26.4467 18.9037 26.465 18.8258 26.4679C18.7479 26.4709 18.6701 26.4583 18.5971 26.431C16.8423 25.6163 15.0005 25.0044 13.1071 24.607C11.03 24.1922 8.9014 24.0994 6.79608 24.332C4.56837 24.6122 2.39129 25.205 0.32908 26.093C0.26408 25.661 0.18008 25.241 0.14108 24.815C0.0830798 24.173 0.0930799 24.164 0.71108 23.939C2.80544 23.1274 5.0031 22.6131 7.24008 22.411C8.56625 22.3014 9.8993 22.3038 11.2251 22.418C13.4517 22.6293 15.6318 23.186 17.6871 24.068C18.4871 24.415 19.2701 24.785 20.0601 25.153C20.2441 25.238 20.4151 25.353 20.6491 25.481L20.6511 25.48Z" fill="white"/>
<path d="M1.53193 30.118C1.30293 29.508 1.09293 28.948 0.87793 28.371C3.27213 27.1498 5.90954 26.4806 8.59633 26.4126C11.2831 26.3446 13.951 26.8795 16.4039 27.978C15.7749 28.366 15.2239 28.718 14.6549 29.046C14.5332 29.0854 14.4014 29.0804 14.2829 29.032C10.0536 27.7172 5.47797 28.1069 1.53193 30.118Z" fill="white"/>
<path d="M11.846 30.875L4.16501 35.055C3.55501 34.088 2.98601 33.186 2.40601 32.267C5.23611 30.6142 8.57853 30.0694 11.787 30.738C11.806 30.784 11.827 30.829 11.846 30.875Z" fill="white"/>
</svg>
