<svg width="18" height="19" viewBox="0 0 18 19" fill="none" xmlns="http://www.w3.org/2000/svg">
<path opacity="0.4" fill-rule="evenodd" clip-rule="evenodd" d="M8.30975 0.154044C6.3903 0.335185 4.59348 1.17781 3.2268 2.5377C1.86012 3.89759 1.00857 5.6902 0.817878 7.60873C0.627187 9.52725 1.10921 11.4524 2.18146 13.0547C3.25371 14.657 4.84952 15.8369 6.69576 16.3923L7.32425 16.582L8.08851 17.6073C8.50851 18.1705 8.90226 18.6925 8.96226 18.7675L9.07176 18.9033L9.14676 18.8065C9.19026 18.7533 9.59076 18.2283 10.037 17.6388C10.7953 16.6383 10.862 16.5648 11.0345 16.5198C12.4294 16.1819 13.7133 15.489 14.7614 14.5086C15.8096 13.5281 16.5865 12.2933 17.0167 10.9241C17.4469 9.55478 17.5157 8.09755 17.2166 6.6938C16.9175 5.29006 16.2605 3.98749 15.3095 2.91254C14.4328 1.94642 13.3455 1.19508 12.1318 0.716724C10.9181 0.238367 9.61059 0.0458355 8.31051 0.154044M10.1105 2.44154C15.0238 3.18404 16.8515 9.68579 13.0595 12.9288C12.2927 13.6005 11.3683 14.0671 10.3725 14.285C9.37661 14.5029 8.34179 14.465 7.36456 14.1748C6.38733 13.8846 5.49952 13.3516 4.78396 12.6256C4.06841 11.8995 3.54842 11.004 3.27251 10.0227C2.99661 9.04133 2.97377 8.00607 3.20614 7.01351C3.43851 6.02094 3.91851 5.1034 4.60136 4.3465C5.28421 3.5896 6.14766 3.01799 7.11115 2.68501C8.07464 2.35203 9.10677 2.26853 10.1113 2.44229M8.6375 3.41729C7.60293 3.50973 6.62287 3.92221 5.83354 4.59737C5.04422 5.27254 4.48485 6.17685 4.23321 7.1846C3.98156 8.19235 4.05014 9.25346 4.42941 10.2204C4.80868 11.1874 5.47979 12.0122 6.34946 12.5801C7.21913 13.1481 8.24414 13.431 9.282 13.3895C10.3199 13.348 11.319 12.9841 12.1406 12.3486C12.9621 11.713 13.5652 10.8373 13.8661 9.8431C14.1669 8.84893 14.1506 7.78573 13.8193 6.80129C13.4598 5.7381 12.7535 4.82651 11.8138 4.21284C10.8741 3.59916 9.75551 3.31899 8.6375 3.41729Z" fill="white"/>
</svg>
