<svg width="21" height="22" viewBox="0 0 21 22" fill="none" xmlns="http://www.w3.org/2000/svg">
<path opacity="0.4" d="M17.4507 21.1501H5.83925C5.81879 21.152 5.79818 21.152 5.77773 21.1501H3.25087C2.39591 21.149 1.57649 20.8084 0.971939 20.2039C0.367392 19.5993 0.0272067 18.7803 0.0260162 17.9253V5.33862C0.0277997 4.48385 0.368253 3.66448 0.972672 3.06006C1.57709 2.45564 2.39609 2.11555 3.25087 2.11377H4.25978V1.30591C4.26018 1.09193 4.34512 0.886727 4.49635 0.735352C4.64759 0.583976 4.85293 0.498641 5.06691 0.498047C5.28095 0.498245 5.48605 0.583342 5.63747 0.734619C5.78888 0.885897 5.87401 1.09114 5.8744 1.30518V2.11377H9.50392V1.30591C9.50432 1.09194 9.58942 0.88651 9.74086 0.735352C9.8923 0.584193 10.0974 0.499511 10.3114 0.499512C10.5253 0.499511 10.7306 0.584355 10.882 0.735352C11.0334 0.886348 11.1187 1.09134 11.1193 1.30518V2.11377H14.7891V1.30591C14.7895 1.0922 14.8745 0.887199 15.0257 0.736084C15.1768 0.584969 15.3814 0.499908 15.5951 0.499512C15.8091 0.499511 16.0145 0.584215 16.166 0.735352C16.3176 0.886488 16.4031 1.09187 16.4037 1.30591V2.11377H17.4536C18.3085 2.11516 19.1281 2.45555 19.7326 3.06006C20.3371 3.66456 20.6775 4.48373 20.6788 5.33862V17.9268C20.6773 18.7826 20.3361 19.6029 19.7304 20.2075C19.1246 20.8122 18.3036 21.1516 17.4478 21.1516L17.4507 21.1501ZM15.7694 15.2461C15.5634 15.2463 15.3658 15.3282 15.2201 15.4739C15.0744 15.6195 14.9925 15.8172 14.9923 16.0232C14.9931 16.2287 15.0752 16.4254 15.2208 16.5703C15.3665 16.7153 15.5639 16.7968 15.7694 16.7966C15.9745 16.7964 16.1711 16.7145 16.3162 16.5696C16.4613 16.4246 16.5428 16.2283 16.5432 16.0232C16.5462 15.9193 16.5282 15.8154 16.4905 15.7185C16.4527 15.6216 16.396 15.5337 16.3235 15.4592C16.2511 15.385 16.1646 15.3258 16.069 15.2856C15.9734 15.2455 15.8705 15.2247 15.7669 15.2249L15.7694 15.2461ZM12.2736 15.2461C12.0681 15.2467 11.8712 15.3284 11.7261 15.4739C11.581 15.6194 11.4994 15.817 11.4994 16.0225C11.4987 16.1243 11.5183 16.2248 11.5569 16.3191C11.5955 16.4133 11.6526 16.499 11.7246 16.571C11.7965 16.6428 11.8819 16.7002 11.9758 16.7388C12.0698 16.7774 12.1705 16.7971 12.2721 16.7966C12.3741 16.7967 12.4752 16.7763 12.5695 16.7373C12.6637 16.6983 12.7493 16.6417 12.8214 16.5696C12.8936 16.4975 12.9508 16.4119 12.9899 16.3176C13.0289 16.2234 13.0488 16.1223 13.0488 16.0203C13.0519 15.9162 13.034 15.8126 12.9961 15.7156C12.9582 15.6186 12.9011 15.5301 12.8284 15.4556C12.7556 15.3812 12.6687 15.3222 12.5728 15.282C12.4768 15.2418 12.374 15.2209 12.2699 15.2212L12.2736 15.2461ZM8.4756 15.2461C8.26966 15.2463 8.0722 15.3282 7.92665 15.4739C7.7811 15.6196 7.69923 15.8173 7.69923 16.0232C7.69983 16.2287 7.78187 16.4252 7.92738 16.5703C8.07289 16.7154 8.27012 16.7974 8.4756 16.7974C8.68089 16.797 8.87763 16.7148 9.02272 16.5696C9.16781 16.4244 9.24921 16.2277 9.2494 16.0225C9.2525 15.9187 9.23466 15.8153 9.19704 15.7185C9.15942 15.6217 9.10279 15.5337 9.03041 15.4592C8.95808 15.3849 8.8715 15.3258 8.77589 15.2856C8.68029 15.2454 8.57785 15.2245 8.47414 15.2249L8.4756 15.2461ZM4.97975 15.2461C4.77374 15.2465 4.57633 15.3288 4.4308 15.4746C4.28527 15.6204 4.20338 15.8179 4.20338 16.0239C4.20398 16.2293 4.286 16.4261 4.43153 16.571C4.57707 16.716 4.77434 16.7976 4.97975 16.7974C5.08165 16.7976 5.18254 16.7776 5.27675 16.7388C5.37096 16.6999 5.45654 16.643 5.5287 16.571C5.60086 16.4991 5.65841 16.4132 5.69753 16.3191C5.73664 16.225 5.75675 16.1244 5.75685 16.0225C5.7596 15.9189 5.74149 15.8157 5.70375 15.7192C5.66601 15.6228 5.60942 15.5349 5.53712 15.4607C5.46496 15.3863 5.37844 15.3268 5.28297 15.2864C5.18751 15.2459 5.0849 15.2249 4.98122 15.2249L4.97975 15.2461ZM15.7694 11.7546C15.564 11.7542 15.3665 11.8354 15.2208 11.9802C15.0752 12.1251 14.9931 12.3219 14.9923 12.5273C14.9925 12.7335 15.0746 12.931 15.2205 13.0767C15.3663 13.2224 15.564 13.3044 15.7702 13.3044C15.8719 13.3043 15.9725 13.2842 16.0664 13.2451C16.1603 13.2061 16.2455 13.1487 16.3173 13.0767C16.3891 13.0046 16.4462 12.9195 16.485 12.8254C16.5238 12.7314 16.5434 12.6305 16.5432 12.5288C16.5502 12.423 16.5353 12.3166 16.4993 12.2168C16.4633 12.117 16.4071 12.0257 16.3341 11.9487C16.2612 11.8715 16.1729 11.8104 16.0752 11.7686C15.9775 11.7268 15.8724 11.7058 15.7661 11.7063L15.7694 11.7546ZM12.2736 11.7546C12.172 11.7545 12.0715 11.7745 11.9777 11.8132C11.8838 11.852 11.7983 11.9092 11.7265 11.981C11.6546 12.0527 11.5977 12.1377 11.5587 12.2314C11.5198 12.3252 11.4995 12.4258 11.4994 12.5273C11.499 12.6292 11.5187 12.7298 11.5573 12.824C11.5959 12.9182 11.6529 13.0044 11.7246 13.0767C11.7967 13.1484 11.8821 13.205 11.9762 13.2437C12.0703 13.2823 12.1711 13.302 12.2728 13.3015C12.4789 13.3011 12.6763 13.2188 12.8218 13.073C12.9673 12.9272 13.0488 12.7297 13.0488 12.5237C13.0554 12.418 13.0401 12.3119 13.0038 12.2124C12.9675 12.1129 12.9113 12.0218 12.8383 11.9451C12.7654 11.8678 12.6774 11.8067 12.5797 11.7649C12.4821 11.7231 12.3769 11.702 12.2706 11.7026L12.2736 11.7546ZM8.4756 11.7546C8.27018 11.7542 8.07306 11.8354 7.92738 11.9802C7.78171 12.1251 7.6993 12.3219 7.6985 12.5273C7.6987 12.7334 7.78061 12.931 7.92628 13.0767C8.07196 13.2223 8.26959 13.3042 8.4756 13.3044C8.57747 13.3043 8.67817 13.2842 8.77223 13.2451C8.86629 13.206 8.95193 13.1488 9.02382 13.0767C9.09571 13.0045 9.15242 12.9182 9.19118 12.824C9.22993 12.7298 9.2497 12.6292 9.2494 12.5273C9.25607 12.4218 9.24109 12.3163 9.20509 12.2168C9.16909 12.1173 9.11298 12.0256 9.0403 11.9487C8.96759 11.872 8.87995 11.8111 8.78285 11.7693C8.68576 11.7275 8.5813 11.7063 8.4756 11.7063V11.7546ZM4.97975 11.7546C4.77434 11.7542 4.57721 11.8354 4.43153 11.9802C4.28586 12.1251 4.20345 12.3219 4.20265 12.5273C4.20285 12.7334 4.28476 12.931 4.43044 13.0767C4.57611 13.2223 4.77374 13.3042 4.97975 13.3044C5.18533 13.3051 5.38271 13.2243 5.5287 13.0796C5.67323 12.9335 5.75433 12.7358 5.75392 12.5303C5.76039 12.4245 5.74486 12.3187 5.70888 12.219C5.67289 12.1193 5.61699 12.0282 5.54445 11.9509C5.47151 11.8741 5.38362 11.8125 5.28627 11.7708C5.18892 11.729 5.08423 11.7077 4.97829 11.7078L4.97975 11.7546ZM15.7687 8.25952C15.5629 8.25952 15.3653 8.34116 15.2197 8.48657C15.0742 8.63199 14.9925 8.82941 14.9923 9.03516C14.9919 9.13708 15.0116 9.23819 15.0502 9.33252C15.0888 9.42685 15.1454 9.51285 15.2172 9.58521C15.3632 9.72987 15.5606 9.81063 15.7661 9.81006C15.9718 9.80926 16.1689 9.72733 16.314 9.58154C16.4591 9.43575 16.5405 9.23791 16.5403 9.03223C16.5414 8.92943 16.5222 8.8272 16.4835 8.73193C16.4449 8.63667 16.3878 8.55008 16.3154 8.47705C16.2429 8.40339 16.1564 8.34546 16.0609 8.30566C15.9655 8.26587 15.8629 8.24531 15.7595 8.24561L15.7687 8.25952ZM12.2736 8.25952C12.1718 8.25962 12.0709 8.27982 11.9769 8.31885C11.883 8.35787 11.7976 8.41529 11.7257 8.4873C11.6539 8.55932 11.5972 8.64449 11.5584 8.73853C11.5195 8.83256 11.4993 8.93341 11.4994 9.03516C11.4992 9.2407 11.5806 9.43819 11.7257 9.58374C11.8709 9.72929 12.068 9.81113 12.2736 9.81152C12.3755 9.81199 12.4766 9.79227 12.5709 9.75366C12.6653 9.71505 12.7509 9.65846 12.8233 9.58667C12.895 9.51432 12.952 9.42832 12.9906 9.33398C13.0292 9.23965 13.0486 9.13855 13.0481 9.03662C13.0496 8.93332 13.0307 8.83068 12.9921 8.73486C12.9534 8.63905 12.896 8.55187 12.8233 8.47852C12.7504 8.4051 12.6636 8.34739 12.568 8.30786C12.4725 8.26833 12.37 8.24803 12.2666 8.24854L12.2736 8.25952ZM8.4756 8.25952C8.26986 8.25952 8.07257 8.34116 7.92702 8.48657C7.78146 8.63199 7.69943 8.82941 7.69923 9.03516C7.69877 9.13708 7.71849 9.23819 7.7571 9.33252C7.7957 9.42685 7.8523 9.51285 7.92409 9.58521C8.07012 9.72987 8.26785 9.81063 8.4734 9.81006C8.67922 9.80946 8.87637 9.72736 9.02162 9.58154C9.16687 9.43573 9.24814 9.23804 9.24794 9.03223C9.24914 8.92941 9.22981 8.82722 9.19118 8.73193C9.15255 8.63665 9.09554 8.55 9.02309 8.47705C8.95123 8.4034 8.86519 8.34498 8.7704 8.30493C8.67561 8.26488 8.57374 8.24433 8.47084 8.24414L8.4756 8.25952ZM4.98048 8.25952C4.77467 8.25952 4.57721 8.34118 4.43153 8.48657C4.28586 8.63196 4.20378 8.82934 4.20338 9.03516C4.20338 9.2413 4.28547 9.43937 4.43117 9.58521C4.57686 9.73104 4.77434 9.81279 4.98048 9.81299C5.18604 9.81356 5.3834 9.7328 5.52943 9.58813C5.67436 9.44196 5.75551 9.24392 5.75465 9.03809C5.75595 8.93515 5.73652 8.83321 5.69789 8.73779C5.65926 8.64237 5.60198 8.55595 5.52943 8.48291C5.45726 8.40932 5.37105 8.35071 5.27602 8.31079C5.18098 8.27087 5.07917 8.25002 4.97609 8.25L4.98048 8.25952Z" fill="white"/>
</svg>
