<svg width="220" height="57" viewBox="0 0 220 57" fill="none" xmlns="http://www.w3.org/2000/svg">
<path d="M75.2559 11.9627V11.3057H85.1559V11.9627H75.2559ZM75.2559 13.2759V12.6189H85.1559V13.2759H75.2559ZM75.2559 14.6049V13.9479H85.1559V14.6049H82.5136V26.4729H81.8559V14.6057H81.1989V26.4737H80.5419V14.6057H79.8849V26.4737H79.2309V14.6057H78.5739V26.4737H77.9169V14.6057L75.2559 14.6049Z" fill="#303030"/>
<path d="M93.1906 22.0164L93.4561 21.3594H95.7061L95.9716 22.0164H93.1906ZM92.6747 23.3454L92.9251 22.6884H96.2086L96.4899 23.3454H92.6747ZM92.1744 24.6587L92.4242 24.0017H96.7554L97.0366 24.6587H92.1744ZM86.8112 26.4722H86.0919L92.0964 11.3057H92.8156L98.8044 26.4729H98.1009L92.4564 12.1974L86.8119 26.4729L86.8112 26.4722ZM92.5337 13.7604L92.9087 14.6049L88.2181 26.4729H87.5169L92.5337 13.7604ZM93.2686 15.4959L93.6129 16.4027L89.6379 26.4722H88.9187L93.2686 15.4959ZM93.9564 17.3094L94.3006 18.2319L91.0636 26.4722H90.3602L93.9601 17.3094H93.9564ZM103.057 26.4722H102.338L96.3489 11.3057H97.0524L103.057 26.4722ZM95.6454 11.3057L101.65 26.4729H100.946L94.9419 11.3057H95.6454ZM94.2204 11.3057L100.225 26.4729H99.5056L93.5169 11.3057H94.2204Z" fill="#303030"/>
<path d="M108.827 26.4729H108.17V11.3057H108.827V26.4729ZM107.513 26.4729H106.856V11.3057H107.513V26.4729ZM106.2 26.4729H105.543V11.3057H106.2V26.4729ZM104.871 26.4729H104.214V11.3057H104.871V26.4729ZM113.659 18.8897L117.536 11.3057H118.271L114.394 18.8889L118.271 26.4722H117.536L113.659 18.8897ZM112.174 18.8897L116.051 11.3057H116.786L112.908 18.8889L116.786 26.4722H116.051L112.174 18.8897ZM110.704 18.8897L114.581 11.3057H115.316L111.438 18.8889L115.316 26.4722H114.581L110.704 18.8897ZM109.219 18.8897L113.096 11.3057H113.831L109.953 18.8889L113.831 26.4722H113.096L109.219 18.8897Z" fill="#303030"/>
<path d="M125.588 20.2026H124.538C123.494 20.2672 122.458 19.9931 121.583 19.4211C121.249 19.1713 120.982 18.8446 120.802 18.4689C120.622 18.0932 120.536 17.6796 120.551 17.2634C120.555 16.8342 120.669 16.4132 120.883 16.0409C121.096 15.6685 121.402 15.3573 121.77 15.1371C122.795 14.5037 123.992 14.2032 125.195 14.2769C126.122 14.2724 127.045 14.4095 127.931 14.6834C128.707 14.9097 129.427 15.2988 130.041 15.8249L129.525 16.2314C128.962 15.794 128.319 15.47 127.633 15.2774C126.842 15.0418 126.02 14.9258 125.194 14.9331C124.167 14.8725 123.143 15.1 122.239 15.5901C121.947 15.7548 121.701 15.9904 121.523 16.2751C121.346 16.5599 121.244 16.8847 121.225 17.2196C121.206 17.5544 121.272 17.8887 121.417 18.1914C121.561 18.4941 121.779 18.7555 122.051 18.9516C122.807 19.3958 123.679 19.6028 124.553 19.5456H125.57C126.623 19.4794 127.67 19.7533 128.556 20.3271C128.897 20.571 129.172 20.896 129.355 21.2728C129.538 21.6496 129.625 22.0663 129.606 22.4849C129.6 22.9159 129.486 23.3384 129.272 23.713C129.059 24.0876 128.754 24.402 128.387 24.6269C127.357 25.2475 126.163 25.5419 124.962 25.4714C124.035 25.4759 123.112 25.3388 122.226 25.0649C121.449 24.8385 120.73 24.4494 120.115 23.9234L120.631 23.5169C121.194 23.9543 121.837 24.2783 122.523 24.4709C123.316 24.7 124.137 24.8159 124.962 24.8151C125.989 24.8758 127.013 24.6483 127.917 24.1581C128.213 23.9969 128.463 23.7626 128.644 23.4776C128.824 23.1926 128.928 22.8663 128.947 22.5296C128.966 22.1929 128.898 21.857 128.751 21.5538C128.603 21.2505 128.381 20.9899 128.105 20.7966C127.345 20.3475 126.468 20.1403 125.588 20.2026ZM125.588 21.5159H124.538C123.134 21.605 121.744 21.1952 120.613 20.3586C120.161 19.9795 119.802 19.5019 119.564 18.9625C119.325 18.4231 119.213 17.8362 119.237 17.2469C119.232 16.666 119.366 16.0924 119.627 15.5736C119.898 15.0433 120.282 14.5789 120.752 14.2131C121.32 13.787 121.962 13.4689 122.645 13.2749C123.473 13.0339 124.332 12.9178 125.195 12.9306C126.323 12.9177 127.445 13.103 128.51 13.4782C129.463 13.7864 130.338 14.2982 131.074 14.9782L130.542 15.3689C129.866 14.7765 129.072 14.3343 128.213 14.0714C127.245 13.7542 126.231 13.5959 125.213 13.6027C123.841 13.5235 122.48 13.8919 121.335 14.6526C120.903 14.9375 120.548 15.3252 120.302 15.781C120.057 16.2368 119.928 16.7464 119.928 17.2641C119.909 17.7655 120.007 18.2644 120.217 18.7204C120.426 19.1765 120.739 19.5768 121.132 19.8891C122.136 20.5916 123.349 20.9334 124.572 20.8589H125.588C127.402 20.8589 128.294 21.4064 128.294 22.4849C128.281 22.7422 128.197 22.991 128.051 23.2035C127.906 23.416 127.704 23.5839 127.469 23.6886C126.692 24.0491 125.837 24.2102 124.982 24.1574C124.255 24.1617 123.53 24.0724 122.825 23.8919C122.23 23.7469 121.671 23.4809 121.183 23.1104L121.699 22.7039C122.69 23.2882 123.834 23.5606 124.982 23.4854C125.667 23.5226 126.351 23.4271 126.999 23.2041C127.421 23.0166 127.64 22.7661 127.64 22.4691C127.647 22.3138 127.608 22.1601 127.528 22.0268C127.448 21.8935 127.331 21.7865 127.19 21.7191C126.678 21.5423 126.135 21.4731 125.595 21.5159H125.588ZM125.588 18.8737H124.538C122.755 18.8737 121.864 18.3262 121.864 17.2477C121.877 16.9904 121.961 16.7416 122.106 16.5291C122.252 16.3166 122.454 16.1487 122.689 16.0439C123.465 15.6789 124.319 15.5124 125.175 15.5594C125.904 15.5523 126.63 15.647 127.333 15.8406C127.927 15.9808 128.486 16.2417 128.975 16.6071L128.459 17.0136C127.468 16.4293 126.323 16.157 125.175 16.2321C124.491 16.1949 123.806 16.2904 123.158 16.5134C122.735 16.7009 122.516 16.9514 122.516 17.2484C122.51 17.4037 122.549 17.5575 122.629 17.6908C122.709 17.824 122.826 17.931 122.966 17.9984C123.466 18.183 123.999 18.2577 124.53 18.2174H125.58C126.984 18.1283 128.374 18.5381 129.505 19.3747C129.958 19.7495 130.317 20.2241 130.556 20.7612C130.795 21.2983 130.906 21.8834 130.881 22.4706C130.886 23.0515 130.752 23.6251 130.49 24.1439C130.215 24.6803 129.825 25.15 129.349 25.5201C128.789 25.9492 128.153 26.2676 127.474 26.4584C126.644 26.6918 125.786 26.8077 124.924 26.8026C123.797 26.8131 122.676 26.6333 121.609 26.2709C120.658 25.9564 119.785 25.4453 119.045 24.7709L119.576 24.3801C120.255 24.9719 121.048 25.4188 121.906 25.6934C122.877 25.9968 123.889 26.1485 124.906 26.1434C126.278 26.2226 127.639 25.8541 128.783 25.0934C129.216 24.8086 129.571 24.4209 129.816 23.9651C130.062 23.5093 130.19 22.9996 130.19 22.4819C130.21 21.9806 130.111 21.4817 129.902 21.0256C129.693 20.5696 129.379 20.1692 128.987 19.8569C127.997 19.1468 126.794 18.799 125.578 18.8722L125.588 18.8737Z" fill="#303030"/>
<path d="M133.859 13.2759H134.579L139.442 25.5811L144.305 13.2759H145.008L139.784 26.4759H139.065L133.859 13.2759ZM135.266 13.2759H135.97L139.879 23.1759L139.504 24.0204L135.266 13.2759ZM136.691 13.2759H137.411L140.6 21.3594L140.256 22.2661L136.689 13.2759H136.691ZM138.116 13.2759H138.82L141.29 19.5301L140.946 20.4526L138.116 13.2759ZM148.546 13.2759H149.265L144.043 26.4759H143.339L148.546 13.2759ZM147.139 13.2759H147.842L142.62 26.4759H141.917L147.139 13.2759ZM145.714 13.2759H146.433L141.195 26.4759H140.492L145.714 13.2759Z" fill="#303030"/>
<path d="M153.717 26.4735H153.06V13.2735H153.717V26.4735ZM152.404 26.4735H151.747V13.2735H152.404V26.4735ZM151.091 26.4735H150.434V13.2735H151.091V26.4735ZM155.047 23.1735H161.364V23.8305H155.047V24.4875H161.364V25.1445H155.047V25.8015H161.364V26.4585H154.389V13.2607H161.364V13.9177H155.047V14.5747H161.364V15.2317H155.047V15.8857H161.364V16.5427H155.047V18.1845H160.988V18.8415H155.047V19.4985H160.988V20.1555H155.047V20.8125H160.988V21.4695H155.047V23.1735Z" fill="#303030"/>
<path d="M167.931 20.1714H171.906C172.401 20.1805 172.882 20.0017 173.251 19.6711C173.439 19.4941 173.586 19.2776 173.681 19.037C173.776 18.7964 173.816 18.5378 173.798 18.2799C173.794 18.0518 173.74 17.8274 173.64 17.6223C173.54 17.4172 173.397 17.2362 173.22 17.0919C172.866 16.7561 172.395 16.5711 171.907 16.5759H166.243V26.4759H165.587V15.9181H171.904C172.57 15.9128 173.211 16.1714 173.687 16.6374C173.925 16.8428 174.117 17.0971 174.25 17.383C174.382 17.6689 174.451 17.9799 174.453 18.2949C174.469 18.6407 174.41 18.9858 174.281 19.3068C174.151 19.6279 173.954 19.9173 173.703 20.1556C173.214 20.6085 172.569 20.8549 171.903 20.8434H167.928V20.1684L167.931 20.1714ZM167.931 21.4846H171.906C172.749 21.4963 173.564 21.1764 174.173 20.5936C174.486 20.2976 174.732 19.9379 174.894 19.5387C175.056 19.1395 175.13 18.7102 175.112 18.2799C175.108 17.8797 175.019 17.4848 174.852 17.1211C174.685 16.7574 174.443 16.4331 174.142 16.1694C173.846 15.8751 173.495 15.6421 173.109 15.4838C172.723 15.3255 172.309 15.245 171.892 15.2469H164.903V26.4759H164.246V14.6049H171.892C172.394 14.6018 172.891 14.6984 173.356 14.8889C173.82 15.0794 174.242 15.3602 174.597 15.7149C174.96 16.0397 175.251 16.4373 175.45 16.8818C175.649 17.3263 175.753 17.8077 175.754 18.2949C175.768 18.808 175.673 19.3181 175.476 19.7922C175.28 20.2663 174.986 20.6937 174.613 21.0466C174.257 21.405 173.833 21.6881 173.366 21.8788C172.899 22.0695 172.397 22.164 171.893 22.1566H167.918V21.4816L167.931 21.4846ZM167.931 22.8136H171.906C172.696 22.8245 173.474 22.6191 174.156 22.2196C174.835 21.8243 175.405 21.2653 175.814 20.5936C176.234 19.896 176.451 19.0944 176.439 18.2799C176.44 17.5229 176.229 16.7809 175.829 16.1379C175.422 15.4678 174.845 14.9177 174.156 14.5434C173.471 14.151 172.695 13.9461 171.906 13.9494H163.604V26.4744H162.947V13.2759H171.906C172.589 13.2763 173.264 13.4145 173.892 13.6824C174.508 13.9336 175.071 14.2999 175.55 14.7616C176.019 15.2195 176.401 15.7601 176.675 16.3561C176.958 16.9516 177.103 17.6038 177.097 18.2634C177.116 19.2465 176.862 20.2156 176.362 21.0624C175.891 21.8419 175.207 22.471 174.392 22.8759L175.768 26.4564H175.064L173.751 23.1564C173.579 23.2186 173.392 23.2659 173.173 23.3281L174.408 26.4706H173.705L172.501 23.4376C172.313 23.4534 172.11 23.4691 171.907 23.4691L173.064 26.4691H172.376L171.219 23.4691H170.625L171.735 26.4691H171.047L169.922 23.4691H167.936V22.8121L167.931 22.8136ZM167.556 26.4721H166.899V17.2509H171.903C172.223 17.2468 172.534 17.3578 172.778 17.5636C172.889 17.6519 172.978 17.7637 173.041 17.8908C173.103 18.0179 173.136 18.1572 173.138 18.2986C173.162 18.465 173.147 18.6348 173.094 18.7945C173.042 18.9542 172.953 19.0996 172.835 19.2192C172.717 19.3389 172.572 19.4295 172.413 19.4841C172.254 19.5387 172.085 19.5557 171.918 19.5339H167.943V18.8769H171.918C171.995 18.8879 172.073 18.881 172.146 18.8566C172.22 18.8322 172.286 18.791 172.341 18.7363C172.396 18.6817 172.437 18.615 172.461 18.5416C172.485 18.4682 172.492 18.3902 172.481 18.3136C172.478 18.2584 172.46 18.2051 172.43 18.1586C172.4 18.1122 172.358 18.0741 172.31 18.0481C172.196 17.9652 172.059 17.9213 171.919 17.9229H167.569L167.553 26.4729L167.556 26.4721Z" fill="#303030"/>
<path d="M182.504 22.5167V17.2314H186.162C186.49 17.2264 186.814 17.2922 187.114 17.4246C187.413 17.5569 187.681 17.7525 187.898 17.9979C188.377 18.4915 188.641 19.1549 188.633 19.8429C188.647 20.5431 188.389 21.2216 187.913 21.7352C187.693 21.9809 187.423 22.1764 187.121 22.3085C186.819 22.4406 186.492 22.5062 186.162 22.5009L182.504 22.5167ZM183.16 21.8597H186.16C186.401 21.8639 186.64 21.8141 186.859 21.714C187.078 21.614 187.272 21.4662 187.427 21.2814C187.784 20.8944 187.975 20.3827 187.958 19.8564C187.966 19.6009 187.923 19.3464 187.832 19.1076C187.74 18.8688 187.603 18.6505 187.427 18.4652C187.272 18.2804 187.078 18.1326 186.859 18.0326C186.64 17.9325 186.401 17.8827 186.16 17.8869H183.16V21.8619V21.8597ZM181.847 23.1759H186.163C186.579 23.18 186.991 23.0973 187.374 22.933C187.756 22.7688 188.1 22.5266 188.383 22.2219C188.991 21.5879 189.322 20.739 189.305 19.8609C189.314 19.4316 189.236 19.005 189.075 18.6071C188.913 18.2092 188.673 17.8483 188.367 17.5464C188.085 17.2402 187.741 16.9969 187.359 16.8325C186.976 16.6681 186.563 16.5863 186.147 16.5924H181.832V23.1759H181.847ZM181.19 23.8329V15.9182H186.163C186.667 15.9139 187.166 16.0146 187.629 16.2139C188.092 16.4131 188.509 16.7065 188.852 17.0754C189.22 17.4385 189.511 17.8722 189.707 18.3505C189.903 18.8288 190.001 19.3418 189.994 19.8587C190.003 20.3813 189.908 20.9004 189.715 21.3861C189.521 21.8718 189.234 22.3144 188.869 22.6884C188.522 23.0576 188.103 23.3511 187.637 23.5502C187.172 23.7494 186.67 23.85 186.164 23.8457L181.191 23.8299L181.19 23.8329ZM180.515 24.5079H186.144C186.935 24.5113 187.713 24.3006 188.394 23.8982C189.083 23.4878 189.654 22.9059 190.052 22.2092C190.451 21.5034 190.661 20.7062 190.661 19.8951C190.661 19.084 190.451 18.2867 190.052 17.5809C189.654 16.8887 189.083 16.312 188.394 15.9077C187.722 15.4932 186.948 15.2765 186.158 15.2822H180.53V24.5072L180.515 24.5079ZM179.858 25.1649V14.6049H186.144C187.052 14.6009 187.944 14.8441 188.724 15.3084C189.518 15.771 190.175 16.4342 190.631 17.2314C191.096 18.028 191.339 18.9343 191.335 19.8564C191.337 20.7937 191.095 21.7154 190.631 22.5302C190.175 23.3274 189.518 23.9906 188.724 24.4532C187.944 24.9175 187.052 25.1607 186.144 25.1567L179.858 25.1649ZM179.202 25.8219H186.16C187.182 25.8263 188.186 25.5565 189.068 25.0404C189.959 24.5141 190.698 23.7644 191.21 22.8654C191.746 21.9564 192.026 20.9202 192.023 19.8654C192.036 18.8235 191.754 17.7992 191.21 16.9104C190.7 16.0089 189.954 15.2631 189.053 14.7527C188.175 14.2248 187.168 13.9489 186.144 13.9554H179.186V25.8159L179.202 25.8219ZM186.16 26.4789H178.547V13.2759H186.162C187.302 13.2712 188.421 13.5794 189.398 14.1669C190.394 14.7453 191.219 15.576 191.791 16.5752C192.51 17.8367 192.797 19.299 192.608 20.7389C192.418 22.1787 191.763 23.517 190.741 24.5492C190.137 25.1455 189.426 25.6228 188.645 25.9562C187.863 26.3033 187.015 26.4792 186.159 26.4722L186.16 26.4789Z" fill="#303030"/>
<path d="M197.467 26.4735H196.811V13.2735H197.467V26.4735ZM196.154 26.4735H195.497V13.2735H196.154V26.4735ZM194.84 26.4735H194.183V13.2735H194.84V26.4735ZM198.797 23.1735H205.113V23.8305H198.797V24.4875H205.113V25.1445H198.797V25.8015H205.113V26.4585H198.138V13.2607H205.113V13.9177H198.797V14.5747H205.113V15.2317H198.797V15.8857H205.113V16.5427H198.797V18.1845H204.738V18.8415H198.797V19.4985H204.738V20.1555H198.797V20.8125H204.738V21.4695H198.797V23.1735Z" fill="#303030"/>
<path d="M217.09 21.1561L216.434 19.9524V13.2774H217.09V21.1576V21.1561ZM218.419 23.4391L217.762 22.3291V13.2916H218.419V23.4391ZM209.334 18.6076L209.991 19.8114V26.4759H209.334V18.6076ZM208.005 16.2309L208.662 17.4346V26.4759H208.005V16.2309ZM208.24 13.2759H209.006L216.653 26.4759H215.886L208.24 13.2759ZM209.788 13.2759H210.569L218.2 26.4759H217.417L209.788 13.2759ZM211.336 13.2759H212.102L219.06 25.3314V13.2759H219.717V26.4759H218.936L211.336 13.2759ZM207.349 14.4174V26.4759H206.692V13.2759H207.473L215.088 26.4759H214.322L207.349 14.4174Z" fill="#303030"/>
<path d="M65.3115 9.97607H66.093V47.5653H65.3115V9.97607Z" fill="#303030"/>
<path d="M2.8613 24.0469C3.7058 23.3899 4.5503 22.7178 5.39405 22.0609C7.25455 20.6223 9.12555 19.1786 11.0071 17.7296C11.5546 17.3073 11.6821 17.2916 12.2423 17.7139C14.3686 19.3556 16.4798 21.0139 18.6218 22.6391C21.7493 25.0159 24.8918 27.3641 28.0193 29.7378C28.2848 29.9411 28.4258 29.8938 28.6606 29.7221C31.6156 27.4391 34.5856 25.1718 37.5571 22.8888C39.8401 21.1376 42.1073 19.3549 44.3746 17.5886C44.9063 17.1664 45.2191 17.1821 45.8446 17.6509C47.6446 19.0271 49.4446 20.4183 51.2393 21.7946C51.7238 22.1696 52.2091 22.5296 52.7716 22.9519C51.9901 23.1236 51.2858 23.2804 50.5965 23.4019C47.0741 24.0951 43.6281 25.132 40.3081 26.4978C36.9227 27.8377 33.6132 29.362 30.3946 31.0638C30.2296 31.1156 30.0514 31.1043 29.8943 31.0323C27.2521 30.0161 24.6443 28.9218 21.9826 27.9986C19.5127 27.1669 16.95 26.6417 14.3521 26.4348C9.77899 26.0833 5.18291 26.6905 0.858055 28.2176C0.592555 28.3113 0.326303 28.3894 -0.00219727 28.4831C0.0293027 27.7639 0.0450527 27.0918 0.0915527 26.4348C0.265481 23.985 0.792168 21.5732 1.65531 19.2738C3.16964 15.157 5.60308 11.4398 8.77046 8.40513C11.9378 5.37044 15.7557 3.09822 19.9336 1.76135C23.1202 0.731353 26.4749 0.322711 29.8156 0.557601C35.7301 0.914135 41.3677 3.18667 45.8761 7.0316C49.7208 10.2494 52.6664 14.4082 54.4261 19.1028C54.4642 19.1888 54.4955 19.2775 54.5198 19.3684C54.5513 19.5874 54.6451 19.9781 54.5821 20.0096C54.3087 20.1709 53.9914 20.2421 53.6753 20.2129C53.2317 20.0788 52.8193 19.8577 52.4622 19.5624C52.1051 19.2671 51.8105 18.9036 51.5956 18.4931C50.8763 17.1956 50.2043 15.8681 49.3756 14.6314C46.0929 9.54984 41.1387 5.77423 35.3685 3.9566C32.4146 3.00024 29.2995 2.64327 26.2058 2.9066C22.343 3.20675 18.6097 4.43505 15.3233 6.4871C9.6882 9.82044 5.48809 15.1236 3.53406 21.3724C3.25281 22.2326 3.04955 23.1078 2.79905 23.9681L2.8613 24.0431V24.0469Z" fill="#303030"/>
<path d="M55.9463 30.756C55.7828 33.5499 55.2086 36.3044 54.2423 38.931C52.8038 38.8687 51.4126 38.7435 50.0363 38.79C46.026 38.9459 42.0597 39.6833 38.2613 40.9793C34.0067 42.4454 29.8451 44.1686 25.7993 46.1393C21.9376 47.922 18.0593 49.6575 14.1818 51.3893C13.6501 51.6398 13.0718 51.8115 12.5086 52.0147C12.4026 52.0539 12.2861 52.0539 12.1801 52.0147C11.4608 51.5302 10.7551 51.0142 10.1318 50.5762C13.8533 48.528 17.5433 46.4798 21.2648 44.4315C24.6263 42.5708 27.9728 40.6815 31.3658 38.865C35.8459 36.4638 40.5108 34.4245 45.3158 32.7667C47.9524 31.8598 50.678 31.2361 53.4466 30.906C54.2281 30.7965 55.0411 30.7965 55.9486 30.75L55.9463 30.756Z" fill="#303030"/>
<path d="M36.4786 14.9819C36.5036 16.1052 36.2961 17.2215 35.8691 18.2607C35.442 19.2999 34.8047 20.2396 33.9971 21.0208C33.1896 21.8019 32.2292 22.4077 31.1764 22.7999C30.1235 23.1922 29.0009 23.3625 27.8791 23.3002C26.7796 23.2984 25.6914 23.0774 24.6782 22.6502C23.6651 22.2229 22.7473 21.5978 21.9786 20.8116C21.2098 20.0254 20.6056 19.0939 20.2011 18.0714C19.7967 17.0489 19.6002 15.956 19.6231 14.8567C19.6414 12.6316 20.5398 10.5042 22.122 8.93955C23.7042 7.37492 25.8415 6.50032 28.0666 6.50694C29.1816 6.48895 30.2887 6.69635 31.3216 7.11669C32.3545 7.53704 33.2918 8.16167 34.0774 8.95312C34.8629 9.74457 35.4806 10.6865 35.8932 11.7225C36.3058 12.7585 36.5049 13.8671 36.4786 14.9819ZM29.0049 16.3109C29.2239 17.7022 29.4114 18.9532 29.6146 20.1884C29.6896 20.6384 29.9896 20.9549 30.3339 20.9077C30.7089 20.8604 30.9279 20.5484 30.9121 20.0827C30.8806 18.9097 30.8964 17.7374 30.7869 16.5644C30.6773 16.1035 30.7204 15.6193 30.9098 15.185C31.0992 14.7507 31.4245 14.3896 31.8369 14.1562C32.1549 13.9513 32.4342 13.6918 32.6619 13.3897C32.9329 13.0906 33.1498 12.7468 33.3031 12.3734C33.3416 12.259 33.3472 12.136 33.3192 12.0185C33.2912 11.9011 33.2307 11.7939 33.1447 11.7091C33.0587 11.6243 32.9506 11.5654 32.8328 11.5392C32.7149 11.5129 32.592 11.5202 32.4781 11.5604C32.2552 11.6328 32.0443 11.7382 31.8526 11.8732C31.1776 12.3892 30.5394 12.9367 29.8666 13.4369C29.6602 13.6106 29.4013 13.7097 29.1316 13.7182C27.5364 13.6867 25.9419 13.5929 24.3466 13.5307C23.9556 13.5152 23.5646 13.5152 23.1736 13.5307C22.8144 13.5464 22.5639 13.7182 22.5639 14.0939C22.5639 14.4697 22.7829 14.6414 23.1421 14.7037C24.2364 14.8754 25.3171 15.0787 26.4099 15.2669C26.7384 15.3292 27.0849 15.3922 27.4891 15.4702C26.5824 16.2052 25.7694 16.8772 24.9249 17.5342C24.8025 17.6065 24.6585 17.6331 24.5184 17.6092C23.9866 17.5154 23.4549 17.3587 22.9239 17.2964C22.7945 17.2945 22.6662 17.3203 22.5475 17.372C22.4289 17.4238 22.3228 17.5003 22.2361 17.5964C22.1987 17.6671 22.1775 17.7453 22.1742 17.8252C22.1709 17.9051 22.1855 17.9848 22.217 18.0583C22.2485 18.1318 22.2961 18.1973 22.3563 18.25C22.4164 18.3028 22.4876 18.3413 22.5646 18.3629C22.9306 18.5042 23.286 18.6714 23.6281 18.8632C23.8761 19.0302 24.0715 19.2643 24.1914 19.5382C24.3631 19.9289 24.4419 20.3632 24.5821 20.7892C24.6023 20.8612 24.6366 20.9286 24.683 20.9873C24.7294 21.046 24.787 21.0949 24.8524 21.1313C24.9178 21.1676 24.9898 21.1906 25.0641 21.199C25.1385 21.2073 25.2138 21.2009 25.2856 21.1799C25.3597 21.1693 25.4308 21.1434 25.4944 21.1039C25.5579 21.0643 25.6126 21.012 25.6549 20.9503C25.6972 20.8885 25.7262 20.8186 25.7401 20.7451C25.754 20.6715 25.7525 20.5959 25.7356 20.5229C25.7041 20.1319 25.6884 19.7409 25.6884 19.3499C25.6865 19.2835 25.6981 19.2174 25.7223 19.1556C25.7465 19.0938 25.7829 19.0374 25.8294 18.9899C26.8456 18.1297 27.8776 17.2702 29.0034 16.3162L29.0049 16.3109Z" fill="#303030"/>
<path d="M15.5737 53.9601C17.0595 53.2851 18.4665 52.6934 19.842 52.0371C22.8757 50.5986 25.893 49.1287 28.9425 47.7059C32.7706 45.861 36.7263 44.2935 40.779 43.0154C42.9121 42.3662 45.0995 41.9108 47.3145 41.6549C49.0327 41.4335 50.7726 41.4387 52.4895 41.6707C52.6743 41.7017 52.8571 41.7435 53.037 41.7959C52.4115 42.8459 51.786 43.7819 51.237 44.7824C51.1242 45.0685 50.905 45.2999 50.6254 45.4281C50.3458 45.5563 50.0274 45.5714 49.737 45.4702C47.6352 45.1288 45.4925 45.1235 43.389 45.4544C40.1233 45.8911 36.9311 46.7641 33.8977 48.0501C29.6602 49.9109 25.4857 51.9119 21.2977 53.8514C20.4532 54.2422 19.5937 54.6329 18.7335 55.0087C18.5801 55.0733 18.4094 55.0844 18.249 55.0401C17.3887 54.7116 16.5292 54.3524 15.5752 53.9617L15.5737 53.9601Z" fill="#303030"/>
<path d="M48.2994 48.1593C42.4044 55.1958 30.9744 58.2446 23.0161 56.3058C23.5944 55.9773 24.1104 55.6803 24.6421 55.4148C29.5171 52.9128 34.4461 50.5211 39.7464 49.0038C42.0281 48.2972 44.4081 47.9594 46.7964 48.0033C47.2651 48.019 47.7504 48.0971 48.2964 48.1601L48.2994 48.1593Z" fill="#303030"/>
<path d="M7.34937 47.7991C9.06912 46.8294 10.7896 45.9069 12.4779 44.9064C16.7619 42.3264 21.0279 39.7149 25.3029 37.1199C28.9288 34.8706 32.6826 32.8344 36.5454 31.0216C40.0032 29.388 43.5904 28.0439 47.2704 27.0031C49.3501 26.4399 51.4764 26.0334 53.5876 25.5781C54.2754 25.4371 54.9789 25.4064 55.7626 25.3276C55.8376 26.2029 55.9036 27.0474 55.9816 27.8604C54.7464 27.9856 53.5891 28.0479 52.4476 28.2204C48.9671 28.7772 45.5515 29.6835 42.2529 30.9256C37.0903 32.8796 32.0785 35.2109 27.2581 37.9006C21.7831 40.9006 16.3284 43.9201 10.8556 46.9066C10.0584 47.3446 9.22962 47.7039 8.41662 48.0946C7.80687 48.3946 7.77536 48.3759 7.35311 47.7946L7.34937 47.7991Z" fill="#303030"/>
<path d="M26.6258 33.1953C25.8758 33.6333 25.2345 34.0398 24.5618 34.399C24.3736 34.4823 24.1601 34.488 23.9678 34.4148C21.698 33.3628 19.3167 32.5708 16.869 32.0538C14.1832 31.5123 11.4297 31.3911 8.70676 31.6945C5.83144 32.0574 3.02098 32.8205 0.35701 33.9618C0.28201 33.3985 0.169511 32.8675 0.106511 32.32C0.0315106 31.495 0.0442574 31.4755 0.841507 31.195C3.54933 30.1444 6.39185 29.4811 9.28501 29.2247C10.997 29.0815 12.7182 29.0867 14.4293 29.2405C17.3054 29.515 20.1219 30.2322 22.779 31.3668C23.811 31.8168 24.8273 32.2892 25.8435 32.7737C26.1133 32.8966 26.3744 33.0377 26.625 33.196L26.6258 33.1953Z" fill="#303030"/>
<path d="M1.92385 39.1844C1.62385 38.4029 1.3606 37.6679 1.07935 36.9344C7.6936 33.8384 14.3071 33.4476 21.1403 36.4341C20.3273 36.9344 19.6081 37.3881 18.8903 37.8104C18.7316 37.8595 18.561 37.854 18.4058 37.7946C16.4427 37.1713 14.3986 36.8395 12.3391 36.8099C8.72401 36.7218 5.14425 37.5388 1.92535 39.1866L1.92385 39.1844Z" fill="#303030"/>
<path d="M15.2602 40.1688C11.9767 41.9516 8.6932 43.7336 5.3317 45.5636C4.53445 44.3126 3.8152 43.1553 3.06445 41.9636C6.7181 39.8226 11.0385 39.1202 15.1822 39.9933C15.2037 40.0521 15.2287 40.1094 15.2572 40.1651L15.2602 40.1688Z" fill="#303030"/>
</svg>
