<svg width="256" height="66" viewBox="0 0 256 66" fill="none" xmlns="http://www.w3.org/2000/svg">
<path d="M88.1212 13.5594V12.7967H99.612V13.5594H88.1212ZM88.1212 15.0842V14.3214H99.612V15.0842H88.1212ZM88.1212 16.6269V15.8642H99.612V16.6269H96.5437V30.4052H95.7817V16.6269H95.0212V30.4052H94.2585V16.6269H93.4957V30.4052H92.733V16.6269H91.9702V30.4052H91.2075V16.6269H88.1212Z" fill="white"/>
<path d="M108.943 25.2317L109.251 24.4689H111.865L112.173 25.2317H108.943ZM108.343 26.7744L108.633 26.0117H112.445L112.772 26.7744H108.343ZM107.762 28.2992L108.053 27.5364H113.077L113.404 28.2992H107.762ZM101.537 30.4052H100.701L107.671 12.7967H108.506L115.459 30.4052H114.642L108.088 13.8302L101.535 30.4052H101.537ZM108.182 15.6467L108.617 16.6269L103.171 30.4052H102.351L108.182 15.6467ZM109.035 17.6619L109.435 18.7119L104.824 30.4022H103.989L109.036 17.6589L109.035 17.6619ZM109.834 19.7679L110.233 20.8389L106.475 30.4059H105.658L109.834 19.7679ZM120.399 30.4059H119.564L112.609 12.7967H113.426L120.399 30.4059ZM111.793 12.7967L118.763 30.4052H117.946L110.976 12.7967H111.793ZM110.143 12.7967L117.113 30.4052H116.278L109.326 12.7967H110.143Z" fill="white"/>
<path d="M127.096 30.4052H126.334V12.7967H127.096V30.4052ZM125.571 30.4052H124.808V12.7967H125.571V30.4052ZM124.046 30.4052H123.283V12.7967H124.046V30.4052ZM122.503 30.4052H121.741V12.7967H122.503V30.4052ZM132.703 21.6009L137.203 12.7967H138.056L133.556 21.6009L138.056 30.4052H137.203L132.703 21.6009ZM130.978 21.6009L135.478 12.7967H136.332L131.832 21.6009L136.332 30.4052H135.478L130.978 21.6009ZM129.272 21.6009L133.772 12.7967H134.626L130.126 21.6009L134.626 30.4052H133.772L129.272 21.6009ZM127.547 21.6009L132.047 12.7967H132.901L128.401 21.6009L132.901 30.4052H132.047L127.547 21.6009Z" fill="white"/>
<path d="M146.556 23.1256H145.343C144.132 23.2005 142.928 22.8823 141.912 22.2181C141.525 21.9282 141.214 21.549 141.005 21.1129C140.796 20.6767 140.695 20.1965 140.712 19.7131C140.717 19.2147 140.849 18.7258 141.097 18.2935C141.345 17.8611 141.7 17.4998 142.128 17.2441C143.318 16.509 144.707 16.1603 146.103 16.2459C147.18 16.2406 148.251 16.3997 149.28 16.7176C150.182 16.9803 151.017 17.4321 151.731 18.0429L151.131 18.5146C150.477 18.007 149.731 17.6311 148.934 17.4076C148.015 17.1343 147.061 16.9998 146.102 17.0086C144.91 16.9381 143.721 17.2023 142.671 17.7714C142.332 17.9626 142.047 18.236 141.842 18.5663C141.636 18.8967 141.517 19.2733 141.495 19.6617C141.474 20.0501 141.55 20.4377 141.717 20.7889C141.885 21.14 142.137 21.4435 142.453 21.6714C143.33 22.1872 144.342 22.4276 145.357 22.3614H146.537C147.76 22.2845 148.976 22.6026 150.004 23.2689C150.399 23.5524 150.718 23.9299 150.93 24.3673C151.142 24.8047 151.242 25.2881 151.221 25.7739C151.215 26.2744 151.081 26.7651 150.834 27.2C150.586 27.635 150.232 28 149.805 28.2609C148.609 28.9812 147.224 29.3229 145.83 29.2411C144.753 29.2465 143.682 29.0874 142.653 28.7694C141.751 28.5067 140.916 28.0549 140.202 27.4441L140.802 26.9724C141.456 27.48 142.202 27.8559 142.999 28.0794C143.919 28.3452 144.873 28.4795 145.831 28.4784C147.023 28.5489 148.212 28.2847 149.262 27.7156C149.605 27.5283 149.895 27.2564 150.104 26.9258C150.313 26.5952 150.434 26.2168 150.456 25.8263C150.478 25.4359 150.4 25.0463 150.229 24.6944C150.058 24.3426 149.8 24.0401 149.48 23.8156C148.598 23.2936 147.578 23.0529 146.555 23.1256H146.556ZM146.556 24.6504H145.343C143.714 24.7539 142.1 24.2781 140.787 23.3071C140.262 22.8669 139.846 22.3124 139.569 21.6862C139.292 21.0599 139.162 20.3786 139.189 19.6944C139.184 19.02 139.34 18.3541 139.643 17.7519C139.958 17.136 140.404 16.5969 140.95 16.1724C141.61 15.6777 142.354 15.3086 143.147 15.0834C144.108 14.804 145.105 14.6695 146.106 14.6844C147.416 14.6693 148.719 14.8843 149.954 15.3196C151.061 15.678 152.077 16.2727 152.931 17.0626L152.314 17.5164C151.529 16.8285 150.607 16.3149 149.609 16.0096C148.485 15.641 147.308 15.4571 146.124 15.4651C144.532 15.3728 142.953 15.7997 141.624 16.6816C141.122 17.0122 140.71 17.4623 140.425 17.9914C140.14 18.5205 139.991 19.1121 139.99 19.7131C139.968 20.2955 140.082 20.8751 140.325 21.4049C140.568 21.9348 140.932 22.3999 141.388 22.7626C142.555 23.5778 143.962 23.9743 145.382 23.8876H146.562C148.668 23.8876 149.702 24.5229 149.702 25.7754C149.687 26.0747 149.589 26.3638 149.419 26.6107C149.249 26.8575 149.014 27.0523 148.74 27.1734C147.838 27.592 146.846 27.7792 145.853 27.7179C145.008 27.7228 144.167 27.6192 143.348 27.4096C142.657 27.2414 142.008 26.9324 141.442 26.5021L142.042 26.0304C143.192 26.7089 144.521 27.0251 145.854 26.9379C146.648 26.9802 147.442 26.8686 148.193 26.6094C148.684 26.3919 148.937 26.1009 148.937 25.7559C148.945 25.5752 148.899 25.3962 148.806 25.2413C148.712 25.0863 148.575 24.9622 148.412 24.8844C147.818 24.679 147.187 24.5986 146.56 24.6481L146.556 24.6504ZM146.556 21.5829H145.343C143.274 21.5829 142.239 20.9476 142.239 19.6951C142.254 19.3958 142.352 19.1067 142.522 18.8598C142.692 18.613 142.927 18.4182 143.201 18.2971C144.102 17.8732 145.094 17.6799 146.088 17.7346C146.934 17.7266 147.777 17.8366 148.593 18.0616C149.283 18.2243 149.931 18.5271 150.499 18.9511L149.899 19.4229C148.748 18.7444 147.42 18.4281 146.086 18.5154C145.292 18.4723 144.497 18.5834 143.745 18.8424C143.255 19.0599 143.001 19.3509 143.001 19.6959C142.994 19.8766 143.039 20.0555 143.133 20.2105C143.226 20.3654 143.363 20.4895 143.526 20.5674C144.106 20.7816 144.725 20.8683 145.341 20.8216H146.557C148.187 20.7182 149.801 21.1939 151.114 22.1649C151.639 22.6002 152.057 23.1512 152.334 23.7746C152.611 24.3981 152.74 25.0772 152.711 25.7589C152.716 26.4332 152.561 27.0991 152.257 27.7014C151.937 28.3241 151.485 28.8693 150.932 29.2989C150.283 29.7967 149.545 30.1663 148.757 30.3879C147.794 30.6585 146.799 30.7928 145.798 30.7869C144.49 30.7989 143.189 30.5903 141.95 30.1696C140.846 29.8041 139.832 29.2103 138.973 28.4266L139.59 27.9729C140.378 28.66 141.299 29.1788 142.294 29.4976C143.422 29.8509 144.598 30.028 145.78 30.0226C147.372 30.1149 148.951 29.6881 150.28 28.8061C150.782 28.4755 151.194 28.0255 151.479 27.4964C151.764 26.9673 151.913 26.3756 151.913 25.7746C151.936 25.1922 151.822 24.6126 151.579 24.0828C151.336 23.553 150.971 23.0879 150.515 22.7251C149.367 21.9007 147.969 21.4968 146.558 21.5814L146.556 21.5829Z" fill="white"/>
<path d="M156.159 15.0841H156.994L162.64 29.3709L168.286 15.0841H169.102L163.039 30.4051H162.204L156.159 15.0841ZM157.792 15.0841H158.609L163.147 26.5749L162.712 27.5551L157.792 15.0841ZM159.442 15.0841H160.277L163.981 24.4696L163.582 25.5196L159.445 15.0841H159.442ZM161.092 15.0841H161.909L164.777 22.3456L164.378 23.4166L161.092 15.0841ZM173.2 15.0841H174.035L167.972 30.4051H167.155L173.2 15.0841ZM171.567 15.0841H172.384L166.321 30.4051H165.504L171.567 15.0841ZM169.917 15.0841H170.752L164.671 30.4051H163.854L169.917 15.0841Z" fill="white"/>
<path d="M179.214 30.406H178.451V15.0842H179.214V30.406ZM177.689 30.406H176.926V15.0842H177.689V30.406ZM176.164 30.406H175.402V15.0842H176.164V30.406ZM180.757 26.5757H188.092V27.3385H180.757V28.1012H188.092V28.8662H180.757V29.629H188.092V30.3917H179.992V15.0662H188.092V15.829H180.757V16.5917H188.092V17.3545H180.757V18.1172H188.092V18.88H180.757V20.7857H187.657V21.5485H180.757V22.3112H187.657V23.074H180.757V23.8367H187.657V24.5995H180.757V26.578V26.5757Z" fill="white"/>
<path d="M195.715 23.0896H200.326C200.901 23.1001 201.458 22.8927 201.886 22.5091C202.105 22.3036 202.276 22.0521 202.385 21.7727C202.495 21.4934 202.542 21.1931 202.522 20.8936C202.516 20.6286 202.452 20.368 202.336 20.1298C202.219 19.8917 202.052 19.6817 201.847 19.5144C201.436 19.1242 200.889 18.9091 200.322 18.9144H193.75V30.4051H192.988V18.1524H200.323C201.096 18.1463 201.84 18.4464 202.392 18.9871C202.669 19.2257 202.892 19.5209 203.046 19.8529C203.199 20.1849 203.279 20.5459 203.281 20.9116C203.299 21.3131 203.231 21.7137 203.081 22.0864C202.93 22.4591 202.701 22.795 202.41 23.0716C201.843 23.5968 201.095 23.8829 200.323 23.8704H195.712V23.0896H195.715ZM195.715 24.6144H200.326C201.305 24.6277 202.25 24.256 202.957 23.5794C203.321 23.2357 203.606 22.818 203.794 22.3545C203.982 21.891 204.068 21.3925 204.046 20.8929C204.042 20.4281 203.94 19.9696 203.746 19.5472C203.552 19.1248 203.271 18.7482 202.921 18.4419C202.578 18.1 202.17 17.8294 201.721 17.6456C201.273 17.4618 200.792 17.3685 200.308 17.3709H192.193V30.4051H191.431V16.6269H200.308C200.89 16.6234 201.468 16.7355 202.007 16.9567C202.546 17.1778 203.036 17.5037 203.448 17.9154C203.869 18.2926 204.207 18.7542 204.438 19.2702C204.67 19.7863 204.79 20.3453 204.791 20.9109C204.807 21.5066 204.697 22.0989 204.469 22.6494C204.24 23.1999 203.899 23.6961 203.466 24.1059C203.053 24.522 202.561 24.8505 202.018 25.0719C201.475 25.2933 200.894 25.403 200.308 25.3944H195.699V24.6136L195.715 24.6144ZM195.715 26.1571H200.326C201.244 26.1699 202.148 25.9313 202.939 25.4671C203.728 25.008 204.389 24.3591 204.863 23.5794C205.352 22.7695 205.604 21.8387 205.59 20.8929C205.591 20.014 205.346 19.1524 204.882 18.4059C204.41 17.6278 203.739 16.9888 202.939 16.5541C202.144 16.0981 201.243 15.8601 200.326 15.8641H190.686V30.4051H189.924V15.0841H200.326C201.118 15.0846 201.902 15.245 202.631 15.5559C203.346 15.8474 204 16.2724 204.556 16.8084C205.102 17.34 205.545 17.9678 205.863 18.6601C206.192 19.3516 206.36 20.109 206.353 20.8749C206.375 22.0163 206.08 23.1416 205.499 24.1246C204.952 25.0298 204.159 25.7604 203.212 26.2306L204.809 30.3879H203.992L202.468 26.5576C202.268 26.6326 202.05 26.6844 201.793 26.7571L203.227 30.4059H202.41L201.012 26.8809C200.794 26.8989 200.558 26.9169 200.322 26.9169L201.665 30.4021H200.874L199.531 26.9169H198.841L200.13 30.4021H199.331L198.024 26.9169H195.718V26.1541L195.715 26.1571ZM195.279 30.4051H194.516V19.6951H200.325C200.696 19.6904 201.057 19.8192 201.341 20.0581C201.47 20.1606 201.574 20.2903 201.646 20.4379C201.718 20.5855 201.757 20.7473 201.759 20.9116C201.787 21.1048 201.77 21.3018 201.708 21.4873C201.647 21.6727 201.544 21.8414 201.407 21.9803C201.27 22.1192 201.103 22.2245 200.918 22.2878C200.733 22.3512 200.536 22.371 200.343 22.3456H195.732V21.5829H200.343C200.432 21.5957 200.522 21.5876 200.607 21.5593C200.693 21.531 200.77 21.4832 200.833 21.4198C200.897 21.3565 200.945 21.2791 200.973 21.1941C201.002 21.109 201.01 21.0184 200.997 20.9296C200.993 20.8654 200.972 20.8034 200.938 20.7494C200.903 20.6954 200.854 20.6513 200.797 20.6214C200.666 20.5248 200.507 20.4738 200.344 20.4759H195.297L195.279 30.4059V30.4051Z" fill="white"/>
<path d="M212.634 25.8092V19.6734H216.882C217.262 19.6674 217.639 19.7438 217.987 19.8974C218.335 20.0509 218.645 20.278 218.897 20.5629C219.454 21.1359 219.761 21.9061 219.751 22.7049C219.768 23.5178 219.469 24.3055 218.916 24.9017C218.661 25.187 218.347 25.4141 217.996 25.5676C217.645 25.721 217.266 25.7973 216.883 25.7912L212.634 25.8092ZM213.396 25.0464H216.881C217.161 25.0509 217.439 24.9926 217.693 24.8758C217.948 24.7589 218.173 24.5866 218.352 24.3714C218.765 23.9231 218.987 23.3309 218.969 22.7214C218.978 22.4247 218.928 22.1293 218.822 21.852C218.716 21.5747 218.556 21.3212 218.352 21.1059C218.173 20.8907 217.948 20.7184 217.693 20.6016C217.439 20.4848 217.161 20.4265 216.881 20.4309H213.396V25.0419V25.0464ZM211.871 26.5712H216.881C217.364 26.5761 217.843 26.4801 218.287 26.2895C218.731 26.0989 219.13 25.8178 219.459 25.4642C220.164 24.7281 220.55 23.7424 220.53 22.7229C220.54 22.2247 220.449 21.7295 220.262 21.2676C220.075 20.8057 219.795 20.3868 219.441 20.0364C219.113 19.6809 218.714 19.3986 218.27 19.2078C217.826 19.0171 217.347 18.9222 216.863 18.9294H211.853V26.5719L211.871 26.5712ZM211.108 27.3339V18.1524H216.883C217.469 18.1475 218.048 18.2644 218.586 18.4956C219.123 18.7269 219.607 19.0674 220.006 19.4957C220.433 19.9172 220.77 20.4207 220.998 20.9759C221.226 21.5311 221.339 22.1266 221.331 22.7267C221.341 23.3336 221.231 23.9364 221.006 24.5004C220.782 25.0644 220.448 25.5783 220.024 26.0124C219.621 26.441 219.135 26.7816 218.594 27.0127C218.054 27.2439 217.471 27.3607 216.883 27.3557L211.108 27.3377V27.3339ZM210.328 28.1147H216.863C217.782 28.1188 218.686 27.8742 219.477 27.4067C220.277 26.9304 220.94 26.2549 221.401 25.4462C221.865 24.6268 222.109 23.7013 222.109 22.7597C222.109 21.8181 221.865 20.8925 221.401 20.0732C220.94 19.2695 220.276 18.6 219.477 18.1307C218.697 17.6498 217.797 17.3982 216.881 17.4047H210.346V28.1147H210.328ZM209.566 28.8842V16.6269H216.863C217.917 16.6222 218.953 16.9046 219.859 17.4437C220.78 17.9806 221.544 18.7507 222.073 19.6764C222.613 20.6019 222.896 21.6552 222.891 22.7267C222.894 23.8149 222.612 24.885 222.074 25.8309C221.545 26.7567 220.781 27.5267 219.859 28.0637C218.954 28.6028 217.918 28.8851 216.864 28.8804L209.566 28.8842ZM208.804 29.6469H216.882C218.068 29.6517 219.233 29.3383 220.257 28.7394C221.291 28.1289 222.148 27.2593 222.744 26.2164C223.366 25.1605 223.692 23.9566 223.688 22.7312C223.703 21.5213 223.376 20.3319 222.744 19.2999C222.151 18.2534 221.285 17.3876 220.239 16.7949C219.22 16.1824 218.053 15.8622 216.864 15.8694H208.786V29.6477L208.804 29.6469ZM216.882 30.4097H208.041V15.0842H216.881C218.205 15.0789 219.504 15.4369 220.639 16.1192C221.793 16.7908 222.75 17.755 223.414 18.9144C224.249 20.3789 224.582 22.0765 224.363 23.748C224.143 25.4196 223.382 26.9734 222.197 28.1724C221.496 28.8647 220.671 29.4189 219.765 29.8059C218.856 30.2093 217.872 30.4139 216.878 30.4059L216.882 30.4097Z" fill="white"/>
<path d="M230.006 30.406H229.244V15.0842H230.006V30.406ZM228.481 30.406H227.719V15.0842H228.481V30.406ZM226.957 30.406H226.194V15.0842H226.957V30.406ZM231.55 26.5757H238.883V27.3385H231.55V28.1012H238.883V28.8662H231.55V29.629H238.883V30.3917H230.783V15.0662H238.883V15.829H231.55V16.5917H238.883V17.3545H231.55V18.1172H238.883V18.88H231.55V20.7857H238.45V21.5485H231.55V22.3112H238.45V23.074H231.55V23.8367H238.45V24.5995H231.55V26.578V26.5757Z" fill="white"/>
<path d="M252.791 24.2341L252.029 22.8361V15.0841H252.791V24.2341ZM254.334 26.8846L253.571 25.5954V15.1029H254.334V26.8846ZM243.787 21.2754L244.549 22.6734V30.4066H243.787V21.2754ZM242.244 18.5161L243.007 19.9141V30.4066H242.244V18.5161ZM242.516 15.0849H243.406L252.283 30.4059H251.393L242.516 15.0849ZM244.316 15.0849H245.224L254.083 30.4059H253.175L244.316 15.0849ZM246.116 15.0849H247.006L255.084 29.0806V15.0841H255.847V30.4051H254.939L246.108 15.0841L246.116 15.0849ZM241.487 16.4101V30.4059H240.716V15.0841H241.624L250.464 30.4051H249.574L241.487 16.4101Z" fill="white"/>
<path d="M76.5757 11.2539H77.4832V54.8942H76.5757V11.2539Z" fill="white"/>
<path d="M4.07173 27.5911C5.05198 26.8284 6.03223 26.0484 7.01248 25.2856C9.17248 23.6156 11.3447 21.9406 13.5292 20.2606C14.1645 19.7701 14.31 19.7521 14.9632 20.2426C17.4322 22.1484 19.8825 24.0729 22.3695 25.9606C26.0002 28.7199 29.649 31.4431 33.2797 34.2024C33.588 34.4386 33.7515 34.3839 34.0237 34.1844C37.455 31.5339 40.9035 28.9021 44.3527 26.2516C47.0032 24.2184 49.635 22.1491 52.2675 20.0979C52.8847 19.6074 53.2477 19.6261 53.9737 20.1729C56.061 21.7704 58.149 23.3859 60.2362 24.9834C60.7987 25.4191 61.3612 25.8369 62.0152 26.3266C61.1077 26.5261 60.2902 26.7076 59.4922 26.8516C55.4028 27.6563 51.4022 28.8601 47.5477 30.4456C43.6176 32.0011 39.7756 33.7708 36.039 35.7466C35.8475 35.8069 35.6404 35.7941 35.4577 35.7106C32.3895 34.5309 29.358 33.2596 26.2725 32.1856C23.4049 31.2202 20.4297 30.6106 17.4135 30.3706C12.105 29.9608 6.76942 30.6638 1.74823 32.4346C1.43998 32.5434 1.13098 32.6341 0.749985 32.7429C0.785985 31.9081 0.804732 31.1274 0.858732 30.3646C1.06042 27.5202 1.67173 24.7198 2.67373 22.0501C4.43249 17.2713 7.25801 12.9566 10.9353 9.43416C14.6127 5.91175 19.045 3.27443 23.895 1.72286C27.5952 0.526602 31.4908 0.0520099 35.37 0.324859C42.2357 0.739165 48.78 3.37735 54.0135 7.84061C58.4784 11.576 61.8996 16.4043 63.9435 21.8551C63.9877 21.9549 64.0241 22.0579 64.0522 22.1634C64.0882 22.4176 64.1977 22.8714 64.1272 22.9074C63.8106 23.0942 63.4433 23.1769 63.0772 23.1436C62.5624 22.9878 62.0838 22.731 61.6692 22.3882C61.2547 22.0455 60.9127 21.6235 60.663 21.1471C59.8282 19.6404 59.0475 18.0976 58.0852 16.6636C54.2723 10.7599 48.5164 6.37412 41.8125 4.26461C38.3828 3.15499 34.7661 2.74141 31.1745 3.04811C26.6897 3.39667 22.3555 4.82283 18.54 7.20536C11.9981 11.0748 7.12175 17.2307 4.85248 24.4846C4.52548 25.4829 4.28999 26.4999 3.99899 27.4981L4.07398 27.5889L4.07173 27.5911Z" fill="white"/>
<path d="M65.7014 35.3791C65.5118 38.6239 64.8451 41.823 63.7229 44.8734C62.0527 44.7984 60.4372 44.6559 58.8397 44.7099C54.1842 44.891 49.5796 45.7472 45.1702 47.2516C40.2306 48.9537 35.399 50.9541 30.7019 53.2419C26.2184 55.3111 21.7162 57.3264 17.2139 59.3416C16.5967 59.6319 15.9254 59.8321 15.2714 60.0676C15.1485 60.113 15.0134 60.113 14.8904 60.0676C14.0557 59.5051 13.2404 58.9059 12.5122 58.3974C16.8329 56.0191 21.1169 53.6416 25.4369 51.2634C29.3369 49.1034 33.2249 46.9066 37.1639 44.8006C42.3642 42.013 47.7789 39.6454 53.3564 37.7206C56.4174 36.6678 59.5817 35.9437 62.7959 35.5606C63.7034 35.4339 64.6477 35.4339 65.7007 35.3791H65.7014Z" fill="white"/>
<path d="M43.1009 17.0627C43.1557 22.4357 39.0344 26.8292 33.1169 26.7204C31.8403 26.7187 30.5768 26.4624 29.4004 25.9664C28.224 25.4705 27.1584 24.7449 26.2658 23.8321C25.3733 22.9193 24.6718 21.8376 24.2024 20.6504C23.7329 19.4632 23.505 18.1943 23.5319 16.9179C23.5531 14.3347 24.5961 11.8649 26.433 10.0484C28.2698 8.23194 30.7511 7.21654 33.3344 7.22416C34.6289 7.2032 35.9142 7.4439 37.1133 7.93183C38.3125 8.41976 39.4007 9.14486 40.3128 10.0636C41.2248 10.9824 41.9419 12.076 42.421 13.2786C42.9001 14.4813 43.1314 15.7684 43.1009 17.0627ZM34.4234 18.6054C34.6777 20.2209 34.8952 21.6729 35.1314 23.1054C35.2222 23.6304 35.5672 23.9949 35.9662 23.9402C36.4019 23.8854 36.6562 23.5224 36.6412 22.9779C36.6052 21.6167 36.6232 20.2547 36.4957 18.8934C36.3689 17.6934 36.6044 16.7334 37.7122 16.0982C38.083 15.8609 38.4088 15.5597 38.6744 15.2087C38.9889 14.8614 39.2406 14.4623 39.4184 14.0289C39.4629 13.8956 39.4691 13.7525 39.4362 13.6159C39.4032 13.4792 39.3326 13.3546 39.2323 13.2562C39.132 13.1577 39.006 13.0895 38.8688 13.0591C38.7316 13.0288 38.5886 13.0377 38.4562 13.0847C38.1974 13.1687 37.9527 13.291 37.7302 13.4477C36.9494 14.0477 36.2054 14.6822 35.4247 15.2627C35.1852 15.4648 34.8844 15.5801 34.5712 15.5897C32.7194 15.5537 30.8677 15.4442 29.0167 15.3722C28.5627 15.3542 28.1089 15.3542 27.6554 15.3722C27.2377 15.3902 26.9474 15.5897 26.9474 16.0254C26.9474 16.4612 27.2017 16.6607 27.6224 16.7334C28.8929 16.9329 30.1454 17.1692 31.4167 17.3867C31.7977 17.4617 32.1974 17.5322 32.6692 17.6229C31.6192 18.4764 30.6727 19.2564 29.6924 20.0192C29.5509 20.1043 29.3837 20.1365 29.2207 20.1099C28.6034 20.0012 27.9862 19.8197 27.3689 19.7469C27.2189 19.7442 27.07 19.7736 26.9323 19.8331C26.7945 19.8926 26.6711 19.9808 26.5702 20.0919C26.5267 20.1739 26.5022 20.2646 26.4984 20.3573C26.4946 20.45 26.5116 20.5424 26.5481 20.6277C26.5846 20.713 26.6398 20.789 26.7095 20.8503C26.7793 20.9115 26.8619 20.9563 26.9512 20.9814C27.3759 21.1456 27.7885 21.3399 28.1857 21.5627C28.473 21.7558 28.6995 22.0265 28.8389 22.3434C29.0384 22.7972 29.1292 23.3057 29.2927 23.7954C29.3161 23.8791 29.3558 23.9573 29.4097 24.0255C29.4635 24.0937 29.5304 24.1506 29.6063 24.1928C29.6823 24.235 29.7659 24.2617 29.8522 24.2714C29.9386 24.281 30.026 24.2735 30.1094 24.2492C30.1957 24.2371 30.2785 24.2073 30.3526 24.1615C30.4267 24.1158 30.4904 24.0551 30.5398 23.9833C30.5892 23.9116 30.6231 23.8304 30.6394 23.7448C30.6557 23.6593 30.654 23.5713 30.6344 23.4864C30.5979 23.0324 30.5797 22.5787 30.5797 22.1252C30.5776 22.0481 30.5909 21.9715 30.619 21.8997C30.6471 21.8279 30.6893 21.7625 30.7432 21.7074C31.9229 20.7092 33.1214 19.7109 34.4279 18.6032L34.4234 18.6054Z" fill="white"/>
<path d="M18.8302 62.3183C20.5552 61.5375 22.1887 60.8476 23.7862 60.0856C27.3112 58.4153 30.8115 56.7106 34.3515 55.0606C38.7959 52.9186 43.3885 51.0987 48.0937 49.6148C50.5703 48.861 53.1098 48.3324 55.6815 48.0353C57.6766 47.778 59.6969 47.7841 61.6905 48.0533C61.9049 48.0894 62.117 48.138 62.3257 48.1988C61.5997 49.4153 60.8737 50.5043 60.2384 51.6661C60.1076 51.9988 59.853 52.2678 59.528 52.4168C59.203 52.5657 58.8329 52.5829 58.4955 52.4648C56.0552 52.0685 53.5674 52.0625 51.1252 52.4468C47.3339 52.9538 43.6279 53.9674 40.1062 55.4603C35.187 57.6203 30.3397 59.9438 25.4745 62.1953C24.4942 62.6491 23.4959 63.1028 22.4977 63.5386C22.3196 63.6134 22.1214 63.6261 21.9352 63.5746C20.9369 63.1936 19.9387 62.7758 18.831 62.3221L18.8302 62.3183Z" fill="white"/>
<path d="M56.8252 55.5842C49.9815 63.7532 36.7117 67.2932 27.4717 65.0417C28.1467 64.6607 28.7422 64.3157 29.3595 64.0067C35.0235 61.1019 40.7415 58.3247 46.8952 56.5637C49.545 55.743 52.3088 55.3508 55.0822 55.4019C55.6267 55.4199 56.1892 55.5107 56.8252 55.5834V55.5842Z" fill="white"/>
<path d="M9.28195 55.1656C11.2785 54.0406 13.2757 52.9689 15.2362 51.8071C20.2102 48.8116 25.1662 45.7801 30.1214 42.7666C34.3303 40.1553 38.6877 37.7913 43.1714 35.6866C47.1854 33.7902 51.3497 32.2299 55.6214 31.0216C58.0357 30.3684 60.5047 29.8966 62.9549 29.3716C63.7537 29.2081 64.5704 29.1721 65.4779 29.0814C65.5687 30.0976 65.6414 31.0786 65.7322 32.0221C64.2982 32.1676 62.9572 32.2396 61.6297 32.4399C57.5889 33.0861 53.6236 34.1382 49.7939 35.5801C43.8001 37.8493 37.9813 40.5566 32.385 43.6801C26.0317 47.1654 19.6957 50.6694 13.3425 54.1366C12.417 54.6451 11.4547 55.0621 10.5105 55.5166C9.80245 55.8616 9.76646 55.8436 9.27596 55.1716L9.28195 55.1656Z" fill="white"/>
<path d="M31.6635 38.2111C30.792 38.7196 30.048 39.1914 29.2672 39.6091C29.0486 39.706 28.8006 39.7124 28.5772 39.6271C25.942 38.4058 23.1772 37.4862 20.3355 36.8859C17.2174 36.257 14.0206 36.1161 10.8592 36.4681C7.52107 36.8895 4.25823 37.7756 1.16547 39.1006C1.07472 38.4474 0.947968 37.8301 0.875218 37.1949C0.784468 36.2326 0.800218 36.2146 1.72872 35.8876C4.87236 34.6679 8.17239 33.8978 11.5312 33.6001C13.5188 33.4337 15.517 33.4397 17.5035 33.6181C20.8426 33.9371 24.1124 34.7699 27.1972 36.0871C28.3972 36.6121 29.5755 37.1581 30.7552 37.7206C31.0685 37.8634 31.3724 38.0272 31.6635 38.2111Z" fill="white"/>
<path d="M2.9827 45.1643C2.6377 44.2568 2.32944 43.4033 2.00244 42.5505C9.68094 38.9565 17.3602 38.5005 25.2929 41.9693C24.3487 42.5505 23.5139 43.0763 22.6792 43.5668C22.495 43.624 22.2969 43.6176 22.1167 43.5488C19.8376 42.825 17.4645 42.4396 15.0734 42.405C10.8765 42.3028 6.71975 43.2513 2.9827 45.1643Z" fill="white"/>
<path d="M18.4672 46.3073C14.6549 48.3766 10.8427 50.4466 6.93969 52.5698C6.01419 51.1178 5.17869 49.7746 4.30719 48.3946C8.54887 45.9086 13.5649 45.093 18.3757 46.1071C18.4018 46.1754 18.4321 46.242 18.4664 46.3066L18.4672 46.3073Z" fill="white"/>
<path d="M88.0485 46.126C88.0393 45.3308 88.0879 44.5359 88.1939 43.7478C88.2468 43.2303 88.4346 42.7359 88.7385 42.3137C89.0149 41.9694 89.398 41.7267 89.8275 41.6238C90.4336 41.4782 91.056 41.4112 91.6792 41.4243C92.2965 41.411 92.913 41.4781 93.513 41.6238C93.9522 41.7259 94.343 41.9758 94.6199 42.3318C94.9087 42.7618 95.095 43.2524 95.1645 43.7657C95.358 45.3451 95.358 46.9422 95.1645 48.5215C95.1153 49.0343 94.927 49.5239 94.6199 49.9375C94.3363 50.2823 93.9475 50.5247 93.513 50.6275C92.9128 50.772 92.2965 50.8391 91.6792 50.827C91.0561 50.8378 90.434 50.7708 89.8275 50.6275C89.3981 50.5245 89.015 50.2818 88.7385 49.9375C88.4495 49.5142 88.263 49.0294 88.1939 48.5215C88.0887 47.7275 88.0401 46.9269 88.0485 46.126ZM89.5912 49.5933H92.5485C92.8869 49.6287 93.2271 49.5451 93.5107 49.357C93.6124 49.2486 93.6894 49.1195 93.7364 48.9785C93.7834 48.8375 93.7993 48.688 93.783 48.5402V42.6407H90.8235C90.4907 42.602 90.1552 42.686 89.88 42.877C89.7768 42.9844 89.6988 43.1134 89.6517 43.2547C89.6046 43.396 89.5896 43.5459 89.6077 43.6938V49.5933H89.5912Z" fill="white"/>
<path d="M97.5247 53.1332V43.4207H98.1779L98.9587 44.8547V52.9547L97.5247 53.1332ZM100.956 50.8082C100.45 50.8159 99.9445 50.7671 99.4492 50.6627C99.0999 50.5864 98.7865 50.3946 98.5597 50.1182C98.3274 49.7777 98.1838 49.3846 98.142 48.9745C98.0603 48.3303 98.0239 47.6812 98.0332 47.032C98.0238 46.3887 98.0602 45.7456 98.142 45.1075C98.1837 44.7031 98.3275 44.316 98.5597 43.9825C98.7916 43.712 99.1028 43.5215 99.4492 43.438C99.9443 43.3327 100.45 43.2838 100.956 43.2925C101.392 43.2797 101.827 43.3349 102.245 43.456C102.563 43.5569 102.838 43.7615 103.026 44.0372C103.238 44.3794 103.374 44.763 103.425 45.1622C103.506 45.776 103.542 46.3949 103.534 47.014C103.541 47.645 103.505 48.2757 103.425 48.9017C103.377 49.313 103.24 49.7092 103.026 50.0635C102.838 50.3391 102.563 50.5438 102.245 50.6447C101.826 50.7632 101.391 50.8183 100.956 50.8082ZM98.9594 49.6465H101.374C101.552 49.6612 101.732 49.6356 101.899 49.5715C101.947 49.5413 101.987 49.4983 102.013 49.447C102.038 49.3957 102.049 49.3383 102.044 49.2812V44.4707H99.6299C99.4569 44.4552 99.2826 44.4809 99.1214 44.5457C99.077 44.5615 99.0388 44.5912 99.0126 44.6303C98.9864 44.6695 98.9736 44.7161 98.976 44.7632V49.6465H98.9594Z" fill="white"/>
<path d="M105.693 53.1332V43.4207H106.346L107.127 44.8547V52.9547L105.693 53.1332ZM109.124 50.8082C108.618 50.8159 108.113 50.7671 107.617 50.6627C107.268 50.5864 106.955 50.3946 106.728 50.1182C106.496 49.7777 106.352 49.3846 106.31 48.9745C106.229 48.3303 106.192 47.6812 106.201 47.032C106.192 46.3887 106.229 45.7456 106.31 45.1075C106.352 44.7031 106.496 44.316 106.728 43.9825C106.96 43.712 107.271 43.5214 107.617 43.438C108.113 43.3327 108.618 43.2838 109.124 43.2925C109.56 43.2797 109.995 43.3349 110.413 43.456C110.731 43.5569 111.006 43.7615 111.194 44.0372C111.406 44.3794 111.542 44.763 111.593 45.1622C111.674 45.776 111.71 46.3949 111.702 47.014C111.709 47.645 111.673 48.2757 111.593 48.9017C111.545 49.313 111.409 49.7092 111.194 50.0635C111.006 50.3391 110.731 50.5438 110.413 50.6447C109.994 50.762 109.56 50.8171 109.124 50.8082ZM107.128 49.6465H109.542C109.72 49.6612 109.9 49.6356 110.067 49.5715C110.116 49.5413 110.155 49.4983 110.181 49.447C110.207 49.3957 110.218 49.3383 110.213 49.2812V44.4707H107.798C107.625 44.4552 107.451 44.4809 107.29 44.5457C107.245 44.5615 107.207 44.5912 107.181 44.6303C107.155 44.6695 107.142 44.7161 107.144 44.7632V49.6465H107.128Z" fill="white"/>
<path d="M115.205 49.5361C115.309 49.5412 115.412 49.5533 115.514 49.5722C115.641 49.5902 115.75 49.5902 115.859 49.6082L115.769 50.5884C115.587 50.6432 115.406 50.6791 115.26 50.7151C115.116 50.7362 114.97 50.7482 114.824 50.7511C114.68 50.7627 114.534 50.7445 114.397 50.6976C114.259 50.6508 114.133 50.5764 114.026 50.4789C113.928 50.3678 113.854 50.2383 113.807 50.098C113.76 49.9577 113.742 49.8096 113.753 49.6621V41.2786L115.187 41.0612L115.205 49.5361Z" fill="white"/>
<path d="M120.086 50.737C119.626 50.7518 119.166 50.6905 118.725 50.5555C118.384 50.4612 118.084 50.2571 117.871 49.975C117.643 49.6307 117.495 49.24 117.436 48.8312C117.339 48.2249 117.297 47.6113 117.309 46.9975C117.284 46.2436 117.376 45.4905 117.581 44.7647C117.652 44.5176 117.773 44.2873 117.935 44.0877C118.097 43.8881 118.298 43.7232 118.525 43.603C119.097 43.3545 119.717 43.2366 120.34 43.258C120.933 43.2361 121.526 43.2972 122.101 43.4395C122.283 43.4835 122.455 43.5641 122.604 43.6764C122.754 43.7887 122.88 43.9304 122.973 44.0927C123.154 44.5038 123.235 44.9517 123.209 45.4C123.217 45.8048 123.168 46.2088 123.064 46.6C123.015 46.7492 122.936 46.8871 122.833 47.0056C122.73 47.1241 122.605 47.2208 122.464 47.29C122.048 47.4835 121.597 47.5885 121.138 47.5982C120.557 47.653 119.795 47.6732 118.813 47.6732H118.378V46.7477H120.703C121.029 46.7829 121.357 46.7197 121.647 46.5662C121.739 46.4858 121.81 46.3844 121.854 46.2707C121.898 46.157 121.914 46.0343 121.901 45.913V44.4242H119.995C119.67 44.3938 119.342 44.4567 119.051 44.6057C118.958 44.6849 118.886 44.7862 118.841 44.9002C118.797 45.0142 118.782 45.1375 118.797 45.259V49.4162C119.015 49.471 119.233 49.507 119.472 49.543C119.708 49.561 119.997 49.579 120.325 49.579C120.702 49.5817 121.078 49.5566 121.45 49.504C121.813 49.4492 122.267 49.3585 122.794 49.2317L122.975 50.2817C122.55 50.4265 122.113 50.5297 121.668 50.59C121.151 50.7127 120.619 50.7617 120.088 50.7355L120.086 50.737Z" fill="white"/>
<path d="M124.282 43.4394H125.698L127.423 49.3937H127.569L129.294 43.4394H130.71L128.586 50.6102H126.411L124.282 43.4394Z" fill="white"/>
<path d="M135.682 50.5913V43.4206H136.336L136.717 44.1466C137.05 43.8644 137.431 43.6433 137.842 43.4933C138.293 43.3469 138.766 43.2795 139.24 43.2938C139.766 43.2649 140.291 43.371 140.764 43.6021C140.926 43.6904 141.059 43.8223 141.149 43.9828C141.239 44.1433 141.282 44.3258 141.273 44.5096V50.6093H139.839V44.4736H138.315C137.983 44.4414 137.65 44.5044 137.353 44.6551C137.171 44.7638 137.098 44.9821 137.098 45.3083V50.6093L135.682 50.5913ZM139.84 50.5913V43.4206L140.875 44.1466C141.208 43.8644 141.589 43.6433 142 43.4933C142.451 43.3469 142.924 43.2795 143.398 43.2938C143.924 43.2649 144.449 43.371 144.922 43.6021C145.084 43.6903 145.217 43.8222 145.307 43.9827C145.397 44.1432 145.44 44.3258 145.431 44.5096V50.6093H143.997V44.4736H142.472C142.141 44.4414 141.807 44.5044 141.51 44.6551C141.328 44.7638 141.256 44.9821 141.256 45.3083V50.6093L139.84 50.5913Z" fill="white"/>
<path d="M150.293 50.7369C149.833 50.7517 149.373 50.6904 148.932 50.5554C148.591 50.4611 148.291 50.257 148.078 49.9749C147.85 49.6306 147.702 49.2399 147.643 48.8311C147.546 48.2248 147.504 47.6112 147.516 46.9974C147.491 46.2435 147.583 45.4904 147.788 44.7646C147.859 44.5175 147.98 44.2872 148.142 44.0876C148.304 43.888 148.505 43.7231 148.732 43.6029C149.302 43.3458 149.924 43.2275 150.547 43.2579C151.14 43.236 151.733 43.2971 152.308 43.4394C152.49 43.4834 152.662 43.564 152.811 43.6763C152.961 43.7886 153.087 43.9303 153.18 44.0926C153.361 44.5037 153.442 44.9516 153.416 45.3999C153.424 45.8047 153.375 46.2087 153.271 46.5999C153.222 46.7491 153.144 46.887 153.04 47.0055C152.937 47.124 152.812 47.2207 152.671 47.2899C152.255 47.4834 151.804 47.5884 151.345 47.5981C150.764 47.6529 150.002 47.6731 149.02 47.6731H148.585V46.7476H150.91C151.236 46.7828 151.564 46.7196 151.854 46.5661C151.946 46.4857 152.017 46.3843 152.061 46.2706C152.105 46.1569 152.121 46.0342 152.108 45.9129V44.4241H150.202C149.877 44.3937 149.549 44.4566 149.258 44.6056C149.165 44.6848 149.093 44.7861 149.048 44.9001C149.004 45.0141 148.989 45.1374 149.004 45.2589V49.4161C149.221 49.4709 149.44 49.5069 149.679 49.5429C149.915 49.5609 150.204 49.5789 150.532 49.5789C150.909 49.5816 151.285 49.5565 151.657 49.5039C152.02 49.4491 152.474 49.3584 153.001 49.2316L153.182 50.2816C152.757 50.4264 152.32 50.5296 151.875 50.5899C151.358 50.7135 150.826 50.7625 150.295 50.7354L150.293 50.7369Z" fill="white"/>
<path d="M156.376 43.4394L156.885 44.5644C157.229 44.2383 157.6 43.9408 157.993 43.6749C158.259 43.4928 158.545 43.3406 158.845 43.2211L158.991 44.6191C158.775 44.6849 158.562 44.7638 158.356 44.8554C158.129 44.9461 157.911 45.0554 157.702 45.1824C157.509 45.2841 157.326 45.4058 157.158 45.5454V50.6101H155.723V43.4394H156.376Z" fill="white"/>
<path d="M167.105 43.4387V44.4407H163.511V43.4424L167.105 43.4387ZM165.943 50.5907H164.51V43.5107C164.524 42.9837 164.597 42.46 164.728 41.9492C164.807 41.6311 164.992 41.3494 165.253 41.1504C165.552 40.9851 165.891 40.9035 166.233 40.9142C166.451 40.9142 166.669 40.9322 166.886 40.9502C167.107 40.9687 167.325 41.0051 167.539 41.0589L167.449 42.0939L165.906 41.9672L165.942 50.5922L165.943 50.5907Z" fill="white"/>
<path d="M171.535 50.7369C171.016 50.7475 170.497 50.6925 169.992 50.5734C169.624 50.4846 169.293 50.2811 169.048 49.9922C168.793 49.657 168.624 49.2642 168.557 48.8484C168.453 48.2368 168.405 47.6171 168.412 46.9967C168.395 46.3761 168.444 45.7554 168.557 45.145C168.624 44.7292 168.793 44.3364 169.048 44.0012C169.301 43.722 169.629 43.5204 169.992 43.4199C170.497 43.2998 171.016 43.2448 171.535 43.2564C172.06 43.246 172.585 43.3009 173.096 43.4199C173.466 43.5041 173.799 43.7085 174.04 44.0012C174.286 44.333 174.447 44.7188 174.512 45.1262C174.617 45.7377 174.666 46.3576 174.658 46.978C174.674 47.5986 174.625 48.2192 174.512 48.8297C174.453 49.2477 174.284 49.6425 174.022 49.9734C173.768 50.2527 173.441 50.4542 173.077 50.5547C172.575 50.6921 172.055 50.7533 171.535 50.7362V50.7369ZM169.919 49.5752H172.479C172.664 49.5913 172.85 49.5657 173.023 49.5002C173.072 49.47 173.112 49.4269 173.137 49.3757C173.163 49.3244 173.174 49.267 173.169 49.2099V44.4722H170.609C170.424 44.4559 170.238 44.4816 170.065 44.5472C170.016 44.5774 169.977 44.6205 169.951 44.6717C169.925 44.723 169.914 44.7803 169.919 44.8375V49.5752Z" fill="white"/>
<path d="M177.474 43.4394L177.982 44.5644C178.327 44.2384 178.697 43.9409 179.09 43.6749C179.357 43.4928 179.643 43.3406 179.943 43.2211L180.088 44.6191C179.889 44.6739 179.671 44.7646 179.435 44.8554C179.207 44.9424 178.988 45.0519 178.782 45.1824C178.588 45.2841 178.406 45.4058 178.237 45.5454V50.6101H176.799V43.4394H177.474Z" fill="white"/>
<path d="M185.186 50.5913V43.4206H185.839L186.22 44.1466C186.554 43.8644 186.935 43.6432 187.345 43.4933C187.796 43.3469 188.269 43.2795 188.743 43.2938C189.27 43.2649 189.795 43.371 190.268 43.6021C190.43 43.6904 190.563 43.8223 190.653 43.9828C190.743 44.1433 190.786 44.3258 190.777 44.5096V50.6093H189.343V44.4736H187.818C187.486 44.4414 187.153 44.5044 186.856 44.6551C186.762 44.7343 186.69 44.8355 186.646 44.9495C186.602 45.0636 186.586 45.1869 186.601 45.3083V50.6093L185.185 50.5913H185.186ZM189.361 50.5913V43.4206L190.396 44.1466C190.73 43.8644 191.111 43.6433 191.521 43.4933C191.972 43.3469 192.445 43.2795 192.919 43.2938C193.446 43.2649 193.971 43.371 194.444 43.6021C194.606 43.6904 194.739 43.8223 194.829 43.9828C194.919 44.1433 194.962 44.3258 194.953 44.5096V50.6093H193.519V44.4736H191.994C191.662 44.4414 191.329 44.5044 191.032 44.6551C190.938 44.7343 190.866 44.8355 190.822 44.9495C190.778 45.0636 190.762 45.1869 190.777 45.3083L190.777 50.6093L189.361 50.5913Z" fill="white"/>
<path d="M198.184 42.1869C197.933 42.2174 197.681 42.1526 197.476 42.0054C197.328 41.8076 197.263 41.5602 197.294 41.3154C197.258 41.192 197.256 41.0612 197.288 40.9367C197.32 40.8122 197.385 40.6985 197.476 40.6076C197.567 40.5167 197.68 40.4519 197.805 40.42C197.929 40.388 198.06 40.3901 198.184 40.4259C198.429 40.3948 198.676 40.4599 198.874 40.6074C199.021 40.8123 199.086 41.065 199.055 41.3154C199.081 41.5573 199.024 41.8009 198.892 42.0054C198.687 42.1525 198.434 42.2173 198.184 42.1869ZM197.458 43.5302L198.892 43.3127V50.5922H197.458V43.5302Z" fill="white"/>
<path d="M201.469 50.5913V43.4206H202.123L202.504 44.1465C202.862 43.8591 203.268 43.6379 203.704 43.4933C204.18 43.3485 204.677 43.2811 205.174 43.2938C205.701 43.2649 206.226 43.371 206.699 43.6021C206.86 43.6905 206.994 43.8224 207.083 43.9829C207.173 44.1434 207.216 44.3259 207.207 44.5096V50.6093H205.773V44.4736H204.103C203.771 44.4414 203.437 44.5043 203.14 44.6551C203.047 44.7343 202.975 44.8355 202.931 44.9495C202.886 45.0636 202.871 45.1869 202.886 45.3083V50.6093L201.469 50.5913Z" fill="white"/>
<path d="M211.889 43.294C212.395 43.2854 212.901 43.3342 213.396 43.4395C213.746 43.5131 214.061 43.7054 214.286 43.984C214.522 44.3151 214.667 44.7035 214.703 45.109C214.784 45.7409 214.821 46.3777 214.812 47.0148C214.82 47.67 214.784 48.325 214.703 48.9753C214.661 49.3908 214.518 49.7897 214.286 50.137C214.064 50.4191 213.748 50.6122 213.396 50.6815C212.901 50.7868 212.395 50.8356 211.889 50.827C211.452 50.844 211.015 50.7825 210.6 50.6455C210.285 50.538 210.012 50.3348 209.819 50.0643C209.602 49.7114 209.465 49.3146 209.419 48.9025C209.339 48.2765 209.303 47.6458 209.311 47.0148C209.302 46.3957 209.339 45.7768 209.419 45.163C209.468 44.7572 209.604 44.3668 209.819 44.0193C210.016 43.7528 210.288 43.5508 210.6 43.4388C211.016 43.3069 211.454 43.2575 211.889 43.2933V43.294ZM213.868 44.4558H211.454C211.275 44.4411 211.096 44.4667 210.928 44.5308C210.88 44.561 210.84 44.6041 210.815 44.6554C210.789 44.7066 210.779 44.764 210.784 44.821V49.6495H213.198C213.376 49.6643 213.556 49.6386 213.723 49.5745C213.772 49.5443 213.811 49.5012 213.837 49.45C213.862 49.3987 213.873 49.3414 213.868 49.2843L213.868 44.4558ZM215.302 40.8978V50.6095H214.648L213.867 49.1755V41.0755L215.302 40.8978Z" fill="white"/>
<path d="M218.573 43.4394L219.082 44.5644C219.426 44.2383 219.796 43.9408 220.189 43.6749C220.456 43.4928 220.742 43.3406 221.042 43.2211L221.188 44.6191C220.988 44.6739 220.77 44.7646 220.534 44.8554C220.306 44.9423 220.087 45.0519 219.88 45.1824C219.687 45.2842 219.504 45.4058 219.336 45.5454V50.6101H217.898V43.4394H218.573Z" fill="white"/>
<path d="M225.03 50.737C224.569 50.7518 224.109 50.6904 223.669 50.5555C223.331 50.4544 223.033 50.2517 222.815 49.975C222.587 49.6307 222.438 49.24 222.379 48.8312C222.283 48.225 222.24 47.6113 222.253 46.9975C222.228 46.2436 222.32 45.4905 222.525 44.7647C222.596 44.5176 222.717 44.2873 222.879 44.0877C223.041 43.8881 223.242 43.7232 223.469 43.603C224.04 43.3527 224.661 43.2347 225.284 43.258C225.877 43.2361 226.47 43.2972 227.045 43.4395C227.227 43.4834 227.398 43.5641 227.548 43.6764C227.698 43.7887 227.823 43.9303 227.917 44.0927C228.097 44.5038 228.178 44.9517 228.153 45.4C228.161 45.8048 228.112 46.2088 228.007 46.6C227.903 46.898 227.688 47.1448 227.407 47.29C226.992 47.4835 226.541 47.5885 226.082 47.5982C225.501 47.653 224.739 47.6732 223.757 47.6732H223.321V46.7477H225.646C225.972 46.7829 226.301 46.7197 226.591 46.5662C226.682 46.4858 226.753 46.3844 226.798 46.2707C226.842 46.157 226.858 46.0343 226.845 45.913V44.4242H224.938C224.613 44.3938 224.285 44.4567 223.994 44.6057C223.901 44.6849 223.829 44.7861 223.784 44.9002C223.74 45.0142 223.725 45.1375 223.74 45.259V49.4162C223.957 49.471 224.176 49.507 224.415 49.543C224.651 49.561 224.94 49.579 225.268 49.579C225.645 49.5817 226.021 49.5566 226.393 49.504C226.756 49.4492 227.21 49.3585 227.737 49.2317L227.918 50.2817C227.494 50.4285 227.056 50.5318 226.611 50.59C226.094 50.7127 225.562 50.7617 225.031 50.7355L225.03 50.737Z" fill="white"/>
</svg>
